<?xml version="1.0" standalone="no"?>
<!DOCTYPE svg PUBLIC "-//W3C//DTD SVG 1.1//EN" "http://www.w3.org/Graphics/SVG/1.1/DTD/svg11.dtd" >
<svg xmlns="http://www.w3.org/2000/svg" xmlns:xlink="http://www.w3.org/1999/xlink" version="1.1">
<metadata>
Created by FontForge 20170731 at Wed Mar 23 19:13:45 2011
 By ,,,
(c) 1990, 1991, 1992, 1994, 1997, 1998, 2000, 2002, 2004 Adobe Systems Incorporated. All rights reserved.
</metadata>
<defs>
<font id="MinionPro-MediumIt" horiz-adv-x="400" >
  <font-face 
    font-family="Minion Pro Med"
    font-weight="500"
    font-style="italic"
    font-stretch="normal"
    units-per-em="1000"
    panose-1="2 4 5 3 5 3 6 9 2 3"
    ascent="727"
    descent="-273"
    x-height="450"
    cap-height="649"
    bbox="-205 -360 1684 1007"
    underline-thickness="50"
    underline-position="-200"
    slope="-12"
    unicode-range="U+0020-FB06"
  />
<missing-glyph horiz-adv-x="500" 
d="M0 0v700h500v-700h-500zM250 395l170 255h-340zM280 350l170 -255v510zM80 50h340l-170 255zM50 605v-510l170 255z" />
    <glyph glyph-name="T_h" unicode="Th" horiz-adv-x="1040" 
d="M994 110l13 -25q-40 -44 -83 -70.5t-67 -26.5q-40 0 -18 98l53 232q15 65 -9 65q-29 0 -95.5 -63t-103.5 -125q-17 -71 -39 -188q-40 -6 -80 -19l-7 8q70 312 127 609q-90 8 -175 8h-62l-100 -483q-13 -66 -0.5 -81.5t82.5 -20.5l-7 -28h-283l6 28q63 5 79.5 20.5
t30.5 81.5l106 483h-68q-61 0 -86.5 -6.5t-40.5 -23.5q-25 -30 -51 -89h-32q31 96 48 180h22q7 -16 16 -20.5t30 -4.5h394q61 0 79.5 3.5t24.5 15.5l4 19q57 25 76 25q13 0 6 -33q-45 -204 -88 -412h2q84 109 181 161q40 22 67 22q57 0 31 -114l-53 -233q-9 -37 2 -37
q20 0 68 44z" />
    <glyph glyph-name="Tcaron_h" unicode="&#x164;h" horiz-adv-x="1040" 
d="M994 110l13 -25q-40 -44 -83 -70.5t-67 -26.5q-40 0 -18 98l53 232q15 65 -9 65q-29 0 -95.5 -63t-103.5 -125q-17 -71 -39 -188q-40 -6 -80 -19l-7 8q70 312 127 609q-90 8 -175 8h-62l-100 -483q-13 -66 -0.5 -81.5t82.5 -20.5l-7 -28h-283l6 28q63 5 79.5 20.5
t30.5 81.5l106 483h-68q-61 0 -86.5 -6.5t-40.5 -23.5q-25 -30 -51 -89h-32q31 96 48 180h22q7 -16 16 -20.5t30 -4.5h394q61 0 79.5 3.5t24.5 15.5l4 19q57 25 76 25q13 0 6 -33q-45 -204 -88 -412h2q84 109 181 161q40 22 67 22q57 0 31 -114l-53 -233q-9 -37 2 -37
q20 0 68 44zM553 815l14 -23q-77 -51 -137 -106h-27q-43 52 -104 106l19 23q49 -21 108 -58q71 38 127 58z" />
    <glyph glyph-name="uni021A_h" unicode="&#x21a;h" horiz-adv-x="1040" 
d="M994 110l13 -25q-40 -44 -83 -70.5t-67 -26.5q-40 0 -18 98l53 232q15 65 -9 65q-29 0 -95.5 -63t-103.5 -125q-17 -71 -39 -188q-40 -6 -80 -19l-7 8q70 312 127 609q-90 8 -175 8h-62l-100 -483q-13 -66 -0.5 -81.5t82.5 -20.5l-7 -28h-283l6 28q63 5 79.5 20.5
t30.5 81.5l106 483h-68q-61 0 -86.5 -6.5t-40.5 -23.5q-25 -30 -51 -89h-32q31 96 48 180h22q7 -16 16 -20.5t30 -4.5h394q61 0 79.5 3.5t24.5 15.5l4 19q57 25 76 25q13 0 6 -33q-45 -204 -88 -412h2q84 109 181 161q40 22 67 22q57 0 31 -114l-53 -233q-9 -37 2 -37
q20 0 68 44zM285 -30q25 0 43 -18.5t19 -48.5q0 -48 -36.5 -77t-86.5 -40l-8 28q69 26 69 59q0 26 -36 37q-12 3 -12 20t13.5 28.5t34.5 11.5z" />
    <glyph glyph-name="f_b" unicode="fb" horiz-adv-x="764" 
d="M336 434l-20 -32l-99 -10q-33 -193 -52 -282q-25 -125 -54.5 -192t-74.5 -112q-60 -61 -111 -61q-22 0 -41.5 13t-19.5 30q0 22 29 47q11 8 19 0q28 -26 63 -26q25 0 39 20q31 36 66 246q7 44 24.5 153.5t27.5 165.5h-81l-4 10l30 30h63q28 134 98 203q30 30 73.5 51.5
t76.5 21.5q50 0 79 -25q56 25 70 25q12 0 5 -31q-34 -138 -84 -370h2q58 68 115.5 104.5t95.5 36.5q35 0 54.5 -30t19.5 -82q0 -83 -43 -166t-109 -128q-84 -56 -155 -56q-56 0 -84 44q-23 36 -5 128q49 244 97 458q-33 51 -86 51q-47 0 -80 -53t-55 -182h111zM620 389
q-29 0 -74 -35.5t-98 -107.5q-9 -25 -18 -83q-24 -126 59 -126q29 0 52 14q43 27 77.5 105t34.5 164q0 69 -33 69z" />
    <glyph glyph-name="f_f_b" unicode="ffb" horiz-adv-x="1028" 
d="M599 434l-20 -33l-97 -9q-23 -143 -42 -242q-25 -134 -59 -204t-88 -117q-31 -28 -70 -43.5t-69 -15.5q-67 0 -108 46q-28 -29 -62.5 -49.5t-62.5 -20.5q-21 0 -39.5 11t-18.5 27q2 21 23 40q16 19 29 10q36 -23 59 -23q25 0 42 21q31 44 62 237q13 78 29.5 179.5
t23.5 143.5h-84l-3 11l29 31h65q26 110 89 174q34 34 82.5 56.5t92.5 22.5q71 0 102 -46q33 32 74.5 50.5t75.5 18.5q49 0 78 -25q53 25 70 25q12 0 5 -31q-47 -192 -84 -370h2q59 69 116 105t94 36q34 0 54 -30.5t20 -81.5q0 -82 -43 -166t-109 -129q-83 -55 -155 -55
q-26 0 -48.5 12.5t-34.5 31.5q-24 38 -5 128q20 101 97 456q-34 54 -87 54q-47 -1 -80 -53.5t-54 -182.5h109zM884 389q-27 0 -72.5 -36t-98.5 -108q-9 -26 -18 -82q-24 -127 58 -127q28 0 51 15q44 27 79 104.5t35 164.5q0 69 -34 69zM224 434h181q18 98 58 156
q-32 55 -100 55q-53 0 -86 -47.5t-53 -163.5zM396 392h-180q-48 -267 -51 -282q-33 -165 -81 -241q17 -21 46.5 -34.5t56.5 -13.5q63 0 91 44q39 53 71 233q35 215 47 294z" />
    <glyph glyph-name="f_f_h" unicode="ffh" horiz-adv-x="1063" 
d="M1019 111l12 -25q-41 -44 -83.5 -71t-66.5 -27q-40 0 -18 98l53 232q8 36 6.5 50t-14.5 14q-30 0 -96 -62.5t-104 -125.5q-31 -141 -39 -187q-40 -6 -80 -19l-7 8q50 217 130 622q-36 52 -89 52q-47 0 -79 -53t-54 -183h109l-20 -33l-96 -8q-39 -220 -44 -246
q-25 -130 -59 -200.5t-87 -117.5q-31 -28 -69 -43.5t-70 -15.5q-67 0 -109 46q-27 -29 -61 -49.5t-62 -20.5q-22 0 -41 10.5t-19 26.5q2 22 23 43q17 17 30 8q34 -24 59 -24q24 0 41 22q30 40 63 238q16 104 53 323h-83l-4 11l29 30h65q26 108 90 173q33 34 81.5 57t92.5 23
q69 0 105 -44q29 30 71 48.5t77 18.5q49 0 80 -26q52 26 67 26q13 0 5 -29l-88 -417h2q88 114 183 165q39 21 66 21q57 0 32 -114l-54 -232q-5 -22 -4.5 -29.5t6.5 -8.5q18 -2 69 45zM224 434h181q18 99 60 158q-32 53 -99 53q-56 0 -89 -47.5t-53 -163.5zM397 393h-181
q-37 -211 -52 -283q-33 -166 -80 -240q17 -21 47 -35t58 -14q61 0 88 45q41 56 71 232q23 132 49 295z" />
    <glyph glyph-name="f_f_j" unicode="ffj" horiz-adv-x="773" 
d="M72 434h65q25 108 91 174q32 33 80 55.5t95 22.5q70 0 102 -43q69 67 151 67q54 0 80 -23.5t26 -45.5q0 -34 -39 -48q-34 -13 -40 14q-18 65 -62 65q-95 0 -133 -238h106q73 0 136 13q21 -8 8 -71q-54 -273 -58 -289q-36 -180 -122 -256q-66 -61 -109 -61q-16 0 -30 9
t-14 23q0 24 27 47q11 9 21 4q27 -17 51 -17q39 0 64 101q15 68 78 393q8 41 0.5 52t-46.5 11h-119q-39 -220 -44 -243q-25 -137 -57 -205.5t-87 -115.5q-31 -28 -69 -44t-67 -16q-66 0 -113 47q-27 -29 -61.5 -50t-62.5 -21q-22 0 -39.5 10t-17.5 26q2 23 23 42q16 16 29 9
q34 -22 58 -22q26 0 40 22q29 39 62 238q10 64 19.5 120.5t19.5 114.5t15 89h-83l-2 9zM221 434h181q20 99 62 159q-34 52 -97 52q-56 0 -90.5 -48t-55.5 -163zM394 394h-181q-9 -49 -24 -140t-25 -143q-33 -169 -82 -243q17 -21 46.5 -34t59.5 -13q61 0 90 44q36 48 66 222
q28 164 50 307z" />
    <glyph glyph-name="f_f_k" unicode="ffk" horiz-adv-x="1014" 
d="M710 239q31 37 85 91q116 120 173 120q20 0 31.5 -9.5t11.5 -22.5q0 -21 -20 -43q-11 -9 -17 -6q-16 9 -40 9q-57 0 -123 -78q28 -94 74 -182q30 -61 45 -61q18 0 57 45l17 -22q-60 -92 -114 -92q-38 0 -68 67q-36 75 -73 183q-41 -43 -52 -62q-20 -91 -33 -168
q-46 -8 -79 -20l-7 6q60 269 135 627q-34 49 -88 49q-48 -1 -80 -52t-55 -184h109l-20 -33l-96 -9q-39 -223 -43 -242q-26 -135 -58.5 -204.5t-86.5 -115.5q-31 -28 -70.5 -44t-69.5 -16q-67 0 -110 46q-26 -29 -61 -49.5t-63 -20.5q-21 0 -39.5 10t-18.5 26q2 22 24 42
q16 16 29 8q36 -23 58 -23q25 0 42 22q31 44 62 238q11 67 28 170t25 153h-83l-4 11l30 31h64q25 107 91 174q33 34 81.5 56.5t93.5 22.5q68 0 103 -44q30 30 72 48.5t76 18.5q49 0 80 -26q52 26 67 26q12 0 6 -27q-46 -200 -98 -444zM224 434h181q19 100 59 159
q-34 52 -98 52q-55 0 -88 -47t-54 -164zM397 392h-181q-4 -23 -21 -120.5t-29 -160.5q-34 -169 -80 -243q17 -20 46.5 -34t56.5 -14q61 0 90 45q39 52 69 227q35 209 49 300z" />
    <glyph glyph-name="f_f_t" unicode="fft" horiz-adv-x="833" 
d="M868 434l-27 -37l-100 -4l-57 -271q-12 -60 7 -60q12 0 41 19t47 38l14 -24q-29 -36 -79 -72t-85 -36q-54 0 -25 135l58 271h-180q-6 -32 -15 -84t-16.5 -92t-14.5 -76q-24 -128 -56 -195t-85 -115q-32 -29 -71.5 -45t-70.5 -16q-68 0 -109 45q-67 -69 -123 -69
q-21 0 -39.5 11.5t-18.5 27.5q0 21 22 43q16 16 29 7q33 -24 59 -24q27 0 42 21q32 42 63 235q8 53 19 121.5t18.5 115.5t14.5 89h-83l-4 10l30 31h65q23 104 89 170q33 34 82 58t94 24q68 0 99 -45q32 32 71 50.5t73 18.5q28 0 47 -14.5t18 -30.5q0 -27 -28 -46
q-14 -10 -24 0q-36 41 -71 41q-63 0 -98 -226h182l18 78l82 64l10 -7l-31 -135h117zM223 434h181q18 100 57 156q-33 54 -97 54q-54 0 -88 -49t-53 -161zM396 393h-181q-7 -39 -15.5 -92.5t-16.5 -98t-17 -92.5q-33 -167 -81 -241q16 -20 44.5 -34.5t56.5 -14.5q62 0 89 44
q40 49 72 227q10 59 19 114.5t17.5 108.5t12.5 79z" />
    <glyph glyph-name="f_h" unicode="fh" horiz-adv-x="795" 
d="M752 111l13 -25q-40 -45 -83 -71.5t-67 -26.5q-40 0 -18 98l53 230q15 67 -8 67q-30 0 -95.5 -62.5t-103.5 -125.5q-25 -106 -39 -188q-40 -6 -80 -19l-7 8q47 208 129 622q-32 49 -89 49q-48 0 -79.5 -50.5t-53.5 -182.5h110l-20 -32l-97 -10q-38 -214 -53 -284
q-25 -123 -55.5 -190.5t-76.5 -112.5q-57 -60 -111 -60q-22 0 -41.5 13t-18.5 30q0 25 29 47q10 9 19 0q31 -29 62 -29q25 0 40 21q33 36 67 244q10 59 27 164.5t26 158.5h-82l-3 10l29 30h64q26 129 99 202q31 32 73.5 53t78.5 21q49 0 78 -25q56 25 68 25t6 -29l-88 -415
h2q85 110 182 162q38 22 67 22q56 0 31 -114l-54 -233q-8 -37 2 -37q7 0 28 13.5t40 31.5z" />
    <glyph glyph-name="f_j" unicode="fj" horiz-adv-x="508" 
d="M75 434h61q30 140 108 211q72 65 149 65q52 0 76.5 -22.5t24.5 -45.5q0 -36 -37 -47q-35 -12 -40 11q-15 66 -60 66q-93 0 -135 -238h101q88 0 140 13q12 1 13.5 -19.5t-6.5 -59.5q-4 -22 -24.5 -122.5t-32.5 -158.5q-36 -180 -121 -255q-67 -62 -108 -62q-16 0 -31 9.5
t-15 23.5q0 24 28 48q10 10 21 3q28 -17 52 -17q20 0 34 21.5t28 78.5q20 85 78 391q9 42 2.5 54t-43.5 12h-124q-36 -199 -53 -274q-28 -132 -57 -198.5t-74 -112.5q-61 -64 -116 -64q-22 0 -40 12t-18 29q0 22 30 47q10 7 19 0q29 -25 59 -25q25 0 42 20q30 35 67 248
q36 203 55 318h-78l-4 10z" />
    <glyph glyph-name="f_k" unicode="fk" horiz-adv-x="752" 
d="M446 241q31 37 84 90q56 56 97.5 87.5t75.5 31.5q20 0 32 -9.5t12 -22.5q0 -22 -20 -42q-10 -10 -17 -7q-14 8 -40 8q-55 0 -125 -77q28 -90 76 -183q29 -59 45 -59q20 0 56 44l18 -22q-60 -92 -115 -92q-37 0 -67 67q-39 82 -75 183q-37 -38 -51 -61q-14 -67 -33 -169
q-44 -8 -79 -20l-6 6q83 372 135 625q-33 51 -88 51q-47 0 -80.5 -53t-56.5 -183h110l-21 -33l-96 -10q-49 -264 -53 -283q-25 -124 -55 -190.5t-76 -111.5q-60 -61 -112 -61q-22 0 -41.5 13t-18.5 30q0 25 28 47q11 7 20 0q31 -27 62 -27q24 0 39 20q34 42 68 243
q9 51 26 158.5t27 162.5h-82l-3 10l30 32h64q25 131 99 203q31 31 74 52t78 21q49 0 79 -25q53 25 67 25q12 0 6 -28q-53 -235 -97 -441z" />
    <glyph glyph-name="f_t" unicode="ft" horiz-adv-x="572" 
d="M605 434l-26 -37l-100 -4l-57 -271q-13 -59 6 -59q12 0 40.5 18t46.5 37l15 -23q-31 -37 -80 -72.5t-84 -35.5q-14 0 -22.5 12t-11 42t9.5 81l58 271h-183q-42 -234 -50 -272q-27 -132 -56 -200.5t-74 -113.5q-58 -61 -113 -61q-23 0 -41.5 12t-17.5 29q0 23 29 48
q11 8 20 0q30 -26 61 -26q24 0 40 20q29 32 65 247q21 130 52 317h-79l-4 10l31 31h60q26 131 96 201q75 75 145 75q28 0 46.5 -15t18.5 -32q0 -26 -29 -46q-13 -10 -23 0q-38 41 -70 41t-55.5 -51.5t-43.5 -172.5h184l19 79l82 64l10 -7l-31 -136h116z" />
    <glyph glyph-name="longs_b" unicode="&#x17f;b" horiz-adv-x="724" 
d="M421 309h2q60 70 116 105.5t94 35.5q34 0 53.5 -30t19.5 -81q0 -84 -42 -167.5t-108 -127.5q-82 -56 -154 -56q-26 0 -49.5 12.5t-35.5 31.5q-23 38 -5 127q14 71 47.5 224t50.5 237q-29 49 -79 49q-29 0 -50.5 -21.5t-45 -92t-43.5 -194.5q-34 -204 -48 -274
q-23 -113 -52 -175.5t-74 -106.5q-60 -60 -114 -60q-22 0 -42 14t-20 31q0 23 29 46q12 10 21 1q31 -29 63 -29q25 0 42 20q30 32 63 246q34 222 43 271q36 201 114 286q29 35 69.5 57t75.5 22q44 0 73 -23q48 23 64 23q14 0 7 -29q-58 -248 -85 -372zM582 389
q-28 0 -73.5 -37t-96.5 -106q-9 -26 -19 -82q-12 -69 6 -99t54 -30q26 0 50 16q43 26 77.5 104t34.5 164q0 70 -33 70z" />
    <glyph glyph-name="longs_h" unicode="&#x17f;h" horiz-adv-x="760" 
d="M717 111l12 -25q-40 -45 -83 -71.5t-67 -26.5q-40 0 -18 98l53 232q15 65 -7 65q-30 0 -94.5 -62.5t-103.5 -125.5q-24 -99 -39 -188q-40 -6 -80 -19l-7 8q68 299 130 623q-12 23 -34 36.5t-44 13.5q-29 1 -51.5 -20.5t-47.5 -92.5t-44 -195q-26 -167 -48 -274
q-22 -114 -51 -176t-75 -105q-58 -61 -114 -61q-22 0 -42 14t-20 31q0 23 28 45q11 10 21 2q31 -29 65 -29q23 0 41 20q30 30 63 246q36 234 42 270q35 199 115 287q28 34 71 56.5t79 22.5q44 0 72 -24q42 24 63 24q12 0 6 -27l-88 -417h2q84 109 180 162q40 22 67 22
q57 0 31 -114l-53 -233q-8 -36 2 -37q7 0 28 13.5t40 31.5z" />
    <glyph glyph-name="longs_i" unicode="&#x17f;i" horiz-adv-x="503" 
d="M361 710q51 0 74 -22t22 -44q0 -34 -37 -47q-33 -12 -39 12q-11 60 -56 60q-27 -1 -47.5 -22t-43.5 -88.5t-42 -184.5q-27 -183 -51 -293q-23 -111 -51.5 -171t-74.5 -105q-60 -60 -114 -60q-22 0 -42 14.5t-20 30.5q0 22 29 45q12 9 20 1q32 -28 65 -28q25 0 41 21
q31 31 64 240q39 239 44 270q36 205 116 294q30 35 68.5 56t74.5 21zM458 111l13 -21q-31 -37 -78.5 -69.5t-73.5 -32.5q-41 0 -16 100l61 250q9 33 0 33q-13 0 -68 -42l-12 24q43 41 89 69t68 28q33 0 12 -82l-67 -268q-8 -34 2 -34q16 0 70 45z" />
    <glyph glyph-name="longs_k" unicode="&#x17f;k" horiz-adv-x="719" 
d="M411 242l2 -1q31 37 84 90q119 119 173 119q20 0 31.5 -9.5t11.5 -22.5q0 -22 -20 -42q-9 -9 -17 -6q-16 8 -39 8q-30 0 -64 -23.5t-60 -52.5q27 -92 75 -184q28 -61 44 -61q18 0 56 44l18 -21q-60 -92 -114 -92q-36 0 -68 67q-44 95 -73 184q-40 -42 -52 -63
q-20 -98 -33 -168q-43 -8 -80 -20l-6 6q79 355 136 628q-12 22 -33.5 35t-45.5 13q-30 0 -53 -22.5t-47 -93.5t-44 -195q-32 -190 -49 -275q-23 -111 -51 -172.5t-74 -105.5q-61 -61 -115 -61q-22 0 -42 14t-20 31q0 22 29 45q11 10 20 2q29 -29 64 -29q25 0 42 20
q29 29 63 246q31 201 43 267q38 202 116 289q30 35 71 57.5t74 22.5q48 0 76 -24q44 24 64 24q13 0 6 -26q-68 -308 -99 -442z" />
    <glyph glyph-name="longs_l" unicode="&#x17f;l" horiz-adv-x="500" 
d="M467 118l15 -24q-38 -45 -85 -75.5t-72 -30.5q-43 0 -17 123q41 192 106 507q-28 51 -77 51q-46 0 -80.5 -62.5t-61.5 -235.5q-22 -156 -48 -283q-23 -113 -52 -175t-75 -106q-61 -62 -114 -62q-22 0 -42 14t-20 31q0 22 29 45q12 10 21 1q31 -29 64 -29q23 0 41 21
q30 32 63 243q30 200 42 264q36 211 116 296q29 34 70 56.5t75 22.5q43 0 73 -24q48 24 64 24q12 0 6 -27q-69 -334 -121 -579q-8 -39 4 -39q9 0 32.5 16t43.5 37z" />
    <glyph glyph-name="longs_longs" unicode="&#x17f;&#x17f;" horiz-adv-x="490" 
d="M609 711q25 0 43 -14.5t18 -30.5q-2 -25 -27 -43q-15 -12 -28 1q-30 34 -62 34q-20 0 -35 -19t-32 -81t-34 -174q-29 -193 -43 -265q-23 -116 -54.5 -181t-84.5 -112q-63 -56 -135 -56q-62 0 -107 46q-27 -30 -61.5 -50t-63.5 -20q-21 0 -39.5 11t-18.5 27q0 23 23 42
q16 14 26 9q34 -26 59 -26q24 0 43 19q33 37 64 245q33 218 37 238q36 215 129 306q29 28 69.5 49t79.5 21q71 0 100 -44q72 68 134 68zM169 -180q59 0 85 42q38 46 69 239q33 209 39 246q26 168 75 243q-36 55 -95 55q-54 0 -91.5 -67t-65.5 -251q-34 -209 -42 -248
q-28 -143 -73 -210q13 -19 42 -34t57 -15z" />
    <glyph glyph-name="longs_longs_i" unicode="&#x17f;&#x17f;i" horiz-adv-x="762" 
d="M615 710q50 0 74 -22.5t24 -44.5q0 -32 -38 -47q-31 -11 -38 12q-14 61 -57 61q-41 0 -71.5 -65t-56.5 -231q-27 -173 -42 -250q-22 -116 -56 -183.5t-88 -114.5q-62 -55 -130 -55q-64 0 -107 46q-27 -30 -60.5 -50t-63.5 -20q-21 0 -40 12t-19 28q0 21 22 41q18 14 26 9
q35 -27 61 -27q22 0 41 19q30 34 65 244q30 189 39 239q37 216 130 306q29 28 69.5 48.5t78.5 20.5q69 0 99 -45q69 69 138 69zM168 -180q57 0 84 42q41 52 73 245q28 178 36 226q27 174 79 256q-36 57 -92 57q-54 0 -93 -70t-69 -261q-19 -123 -42 -236q-27 -138 -75 -210
q15 -20 43 -34.5t56 -14.5zM716 112l14 -22q-31 -37 -78.5 -69.5t-72.5 -32.5q-42 0 -17 100l62 250q7 32 -1 32q-15 0 -67 -41l-13 24q44 41 89 69t67 28q33 0 14 -80l-68 -270q-8 -34 2 -34q17 0 69 46z" />
    <glyph glyph-name="longs_longs_l" unicode="&#x17f;&#x17f;l" horiz-adv-x="763" 
d="M726 117l14 -23q-38 -45 -84.5 -75.5t-71.5 -30.5q-43 0 -17 123q70 336 106 506q-29 53 -81 53q-31 -1 -54 -22.5t-46 -90.5t-41 -191q-29 -189 -42 -252q-21 -112 -53.5 -177.5t-85.5 -111.5q-62 -55 -133 -55q-63 0 -108 46q-27 -30 -60.5 -50t-63.5 -20
q-22 0 -40.5 12t-18.5 28q0 23 22 41q17 15 27 9q35 -27 60 -27t42 20q32 32 64 246q27 182 36 235q37 220 129 309q28 27 69.5 47t80.5 20q69 0 103 -44q28 29 67.5 48.5t73.5 19.5q45 0 75 -25q41 25 65 25q12 0 7 -27q-17 -80 -122 -579q-8 -40 3 -40q9 0 33.5 16.5
t44.5 36.5zM346 645q-26 0 -47 -13t-42 -47.5t-39.5 -102.5t-34.5 -170q-24 -157 -39 -227q-30 -153 -73 -216q15 -20 42.5 -34.5t57.5 -14.5q56 0 84 45q39 48 68 228q8 54 20 130t16 102q29 178 81 265q-37 55 -94 55z" />
    <glyph glyph-name="f_f" unicode="ff" horiz-adv-x="538" 
d="M74 434h65q24 110 88 172q33 34 82.5 57t97.5 23q68 0 99 -42q71 66 135 66q26 0 44 -14t17 -29q-2 -25 -26 -44q-16 -11 -29 1q-31 33 -63 33q-20 0 -34 -15.5t-29.5 -65.5t-30.5 -142h113l-20 -32l-100 -8q-6 -31 -13.5 -79.5t-15 -88t-15.5 -80.5
q-25 -130 -57.5 -198.5t-87.5 -116.5q-31 -29 -70.5 -45t-69.5 -16q-67 0 -113 43q-26 -27 -59 -47t-61 -20q-22 0 -40.5 11t-18.5 27q0 18 24 42q16 16 28 8q33 -24 59 -24q25 0 41 22q32 45 64 237q35 208 53 325h-82l-4 11zM224 434h181q19 101 60 160q-15 22 -42 36
t-56 14q-61 0 -92 -49t-51 -161zM397 394h-181q-34 -205 -50 -281q-32 -166 -83 -246q16 -19 46.5 -32t58.5 -13q63 0 90 41q40 49 70 231q44 266 49 300z" />
    <glyph glyph-name="f_f_i" unicode="ffi" horiz-adv-x="797" 
d="M752 114l13 -23q-29 -37 -78.5 -70t-75.5 -33q-43 0 -19 105q25 105 54 233q10 45 2.5 56t-47.5 11h-117q-42 -231 -44 -243q-26 -134 -60.5 -206t-91.5 -119q-29 -26 -65 -41t-65 -15q-66 0 -109 46q-25 -28 -60 -49t-65 -21q-23 0 -41.5 11.5t-18.5 27.5q0 22 25 43
q15 15 28 7q33 -24 58 -24q26 0 41 21q31 43 63 240q10 63 27 167t25 156h-83l-2 9l28 31h65q25 107 93 174q32 33 79.5 55.5t92.5 22.5q69 0 103 -43q69 67 151 67q54 0 79.5 -23.5t25.5 -46.5q0 -30 -37 -45q-36 -15 -42 12q-16 66 -62 66q-93 0 -132 -239h105
q89 0 136 15q28 0 9 -75q-21 -82 -63 -262q-11 -47 1 -47q9 0 32 15t42 34zM224 434h180q23 102 62 159q-35 53 -97 53q-56 0 -90 -48.5t-55 -163.5zM398 394h-181q-10 -51 -25.5 -142t-25.5 -142q-31 -163 -78 -242q15 -20 44 -33.5t59 -13.5q59 0 87 44q40 52 69 220
q13 79 29.5 179t21.5 130z" />
    <glyph glyph-name="f_f_l" unicode="ffl" horiz-adv-x="800" 
d="M601 434l-21 -33l-96 -9q-43 -239 -44 -244q-26 -136 -60 -206.5t-91 -117.5q-29 -25 -65 -40t-65 -15q-68 0 -112 47q-25 -29 -60.5 -50t-65.5 -21q-23 0 -41.5 11t-18.5 27q0 20 25 43q14 16 28 6q32 -23 58 -23q29 0 44 21q31 43 63 240q9 58 26.5 164.5t25.5 159.5
h-82l-4 10l29 30h65q23 107 90 174q32 33 80.5 55.5t94.5 22.5q66 0 104 -43q30 28 75 47.5t82 19.5q49 0 75 -24q46 24 62 24q14 0 5 -40q-62 -276 -117 -563q-9 -43 5 -43q7 0 31 16.5t41 34.5l15 -22q-35 -44 -82.5 -74.5t-71.5 -30.5q-43 0 -20 119q48 230 107 517
q-27 45 -85 45q-103 0 -139 -235h110zM224 434h182q19 100 60 159q-14 23 -42 37.5t-58 14.5q-52 0 -86 -46.5t-56 -164.5zM398 394h-181q-7 -37 -16.5 -94t-17.5 -102t-17 -89q-32 -168 -78 -239q16 -21 45.5 -34.5t59.5 -13.5q61 0 88 43q39 50 67 221q28 167 50 308z" />
    <glyph glyph-name="longs_t" unicode="&#x17f;t" horiz-adv-x="537" 
d="M363 710q38 0 58.5 -18t20.5 -37q-2 -30 -34 -46q-17 -9 -25 6q-25 47 -67 47q-24 -1 -42 -20t-40 -87t-41 -189q-29 -181 -51 -286q-23 -111 -51 -171t-74 -104q-60 -60 -113 -60q-23 0 -43 13.5t-20 30.5q0 22 28 44q12 9 21 2q27 -27 65 -27q24 0 40 20q30 30 64 242
q6 37 20 123.5t21 130.5q38 216 119 306q29 34 68 57t76 23zM574 432l-27 -35l-99 -5l-57 -270q-13 -60 6 -60q12 0 40.5 19t47.5 38l14 -23q-30 -38 -79.5 -73t-85.5 -35q-51 0 -23 134l57 270h-73l-3 9l25 31h60l16 64l83 63l10 -8l-29 -119h117z" />
    <glyph glyph-name="f_i" unicode="fi" horiz-adv-x="535" 
d="M488 115l15 -22q-29 -37 -79 -71t-78 -34q-43 0 -19 101q10 42 29 122.5t27 115.5q10 45 3 56.5t-45 11.5h-124q-33 -192 -52 -276q-29 -130 -57.5 -197.5t-73.5 -112.5q-60 -63 -115 -63q-23 0 -41.5 12t-17.5 29q0 22 29 47q11 8 21 0q28 -24 60 -24q24 0 41 19
q31 36 68 247q12 71 28.5 173t23.5 146h-78l-3 10l29 29h60q30 139 109 211q72 65 149 65q52 0 76 -22t24 -45q0 -16 -11 -30t-28 -18q-33 -10 -37 12q-14 64 -61 64q-93 0 -134 -237h102q81 0 140 13q25 2 7 -73q-38 -153 -63 -263q-12 -46 2 -46q7 0 30.5 16t43.5 34z" />
    <glyph glyph-name="f_l" unicode="fl" horiz-adv-x="532" 
d="M336 434l-21 -33l-98 -9q-45 -251 -53 -289q-25 -120 -54 -185.5t-75 -110.5q-60 -61 -114 -61q-22 0 -40.5 12.5t-18.5 29.5q0 24 29 46q11 7 20 0q29 -25 61 -25q26 0 42 20q30 34 67 249q13 78 30 186.5t20 128.5h-80l-3 11l30 30h61q23 128 98 200q32 33 78 54.5
t84 21.5q50 0 74 -24q50 24 61 24q12 0 5 -32q-77 -358 -119 -571q-7 -42 5 -42q9 0 33 17t41 36l15 -24q-34 -44 -81.5 -75t-73.5 -31q-42 0 -17 127q23 113 54 264t51 245q-10 17 -32 30.5t-50 13.5q-57 0 -89.5 -62t-50.5 -172h111z" />
    <glyph glyph-name=".notdef" horiz-adv-x="500" 
d="M0 0v700h500v-700h-500zM250 395l170 255h-340zM280 350l170 -255v510zM80 50h340l-170 255zM50 605v-510l170 255z" />
    <glyph glyph-name=".null" horiz-adv-x="0" 
 />
    <glyph glyph-name="nonmarkingreturn" horiz-adv-x="333" 
 />
    <glyph glyph-name="space" unicode=" " horiz-adv-x="227" 
 />
    <glyph glyph-name="exclam" unicode="!" horiz-adv-x="261" 
d="M224 664q30 0 42.5 -8t9.5 -24q-1 -8 -22 -78q-18 -60 -51 -177t-51 -177q-4 -6 -18 -6t-15 6q5 59 16 176.5t16 176.5q6 65 9 81q6 30 64 30zM101 -12q-24 0 -39 16.5t-15 41.5q0 31 18 50.5t47 19.5q24 0 39 -17t15 -43q0 -31 -19 -49.5t-46 -18.5z" />
    <glyph glyph-name="quotedbl" unicode="&#x22;" horiz-adv-x="353" 
d="M238 710l10 -9q-8 -31 -36.5 -103.5t-50.5 -114.5l-33 -14q28 156 30 217zM399 710l9 -9q-9 -31 -37.5 -103.5t-49.5 -114.5l-32 -14q29 171 29 217z" />
    <glyph glyph-name="numbersign" unicode="#" horiz-adv-x="480" 
d="M487 457l-12 -62h-92l-40 -136h82l-12 -62h-88l-52 -177h-42l51 177h-108l-52 -177h-42l51 177h-94l13 62h100l40 136h-91l13 62h97l46 155h42l-46 -155h108l46 155h42l-46 -155h86zM341 395h-108l-40 -136h108z" />
    <glyph glyph-name="dollar" unicode="$" horiz-adv-x="480" 
d="M460 452l-29 -3q-8 117 -91 135l-43 -223l21 -14q57 -36 87 -72.5t30 -90.5q0 -80 -60.5 -128t-146.5 -52l-16 -84h-37l17 84q-54 4 -94.5 22.5t-57.5 37.5q0 72 -2 138l28 3q4 -27 12.5 -51.5t23.5 -50.5t40 -43.5t57 -21.5l46 247l-20 13q-114 66 -114 154q0 76 58 121
t141 46l15 76h37l-15 -77q49 -2 118 -38q-1 -12 -5 -128zM264 378l40 209q-55 -1 -84.5 -32t-29.5 -73q0 -58 74 -104zM278 268l-43 -231q54 4 84 37t30 81q0 36 -16.5 61t-54.5 52z" />
    <glyph glyph-name="percent" unicode="%" horiz-adv-x="762" 
d="M667 629l-498 -658l-28 25l497 657zM385 498q0 -82 -51.5 -153t-128.5 -71q-55 0 -84 39.5t-29 97.5q0 82 51 153t128 71q56 0 85 -39.5t29 -97.5zM313 526q0 78 -46 78q-25 0 -46 -24t-32.5 -59t-17.5 -68.5t-6 -59.5q0 -88 46 -88q26 0 47 26t32.5 64t17 72.5t5.5 58.5
zM718 212q0 -82 -51.5 -153t-128.5 -71q-56 0 -84.5 39.5t-28.5 97.5q0 82 51 153t128 71q56 0 85 -39.5t29 -97.5zM646 239q0 79 -46 79q-33 0 -58 -41t-35 -87.5t-10 -83.5q0 -87 46 -87q27 0 48 26t32.5 64t17 72t5.5 58z" />
    <glyph glyph-name="ampersand" unicode="&#x26;" horiz-adv-x="764" 
d="M723 410h32q3 -29 3 -61q0 -119 -56 -119q-18 0 -47 21q-6 4 -28.5 20.5t-33.5 23.5q-34 -126 -97 -198q-93 -109 -221 -109q-90 0 -150 60.5t-60 165.5q0 114 82 200q69 69 122 69q28 0 44 -20t16 -52q0 -11 -2 -24l2 -1q121 116 121 204q1 9 -6 38q-3 14 10 28.5
t31 14.5q19 0 30.5 -15.5t11.5 -41.5q0 -83 -119 -200q-111 -111 -261 -203q12 -69 59.5 -108t111.5 -39q87 0 151 68t94 184q-53 36 -81 36q-19 0 -30 -12t-11 -30q0 -26 10 -44q8 -13 8 -19q-1 -9 -13.5 -15.5t-24.5 -6.5q-17 0 -29.5 15.5t-12.5 36.5q0 47 60 92
q20 16 45 26.5t39 10.5q47 0 153 -81q18 -15 28 -15q18 0 19 100zM230 431q-31 0 -59.5 -47.5t-28.5 -117.5q0 -13 1 -19q75 43 119 87q6 22 6 37q0 26 -10.5 43t-27.5 17z" />
    <glyph glyph-name="quotesingle" unicode="'" horiz-adv-x="194" 
d="M238 710l10 -9q-8 -30 -36.5 -102.5t-50.5 -115.5l-33 -14q27 147 30 217z" />
    <glyph glyph-name="parenleft" unicode="(" horiz-adv-x="343" 
d="M377 711l17 -24q-111 -74 -177 -219t-66 -310q0 -200 84 -307l-24 -20q-66 54 -99.5 147.5t-33.5 193.5q0 181 82.5 326.5t216.5 212.5z" />
    <glyph glyph-name="parenright" unicode=")" horiz-adv-x="336" 
d="M142 691l24 20q71 -56 105 -160.5t25 -220.5q-7 -163 -86 -298.5t-210 -200.5l-17 24q107 73 170 207t69 284q9 99 -11.5 194t-68.5 151z" />
    <glyph glyph-name="asterisk" unicode="*" horiz-adv-x="398" 
d="M437 509v-27l-135 -18l31 -139l-24 -10l-63 134l-127 -69l-15 24l109 87l-100 110l18 21l116 -88l66 131l26 -9l-36 -138z" />
    <glyph glyph-name="plus" unicode="+" horiz-adv-x="598" 
d="M552 228h-209v-228h-60v228h-210v53h210v206h60v-206h209v-53z" />
    <glyph glyph-name="comma" unicode="," horiz-adv-x="240" 
d="M7 -115l-11 29q88 38 89 93q1 45 -46 60q-10 3 -9 15q1 22 16.5 36.5t35.5 14.5q32 0 53.5 -30.5t19.5 -69.5q-2 -56 -45 -93.5t-103 -54.5z" />
    <glyph glyph-name="hyphen" unicode="-" horiz-adv-x="335" 
d="M300 255l-18 -58h-234l18 58h234z" />
    <glyph glyph-name="period" unicode="." horiz-adv-x="240" 
d="M91 -12q-23 0 -37.5 15.5t-14.5 39.5q0 29 17.5 47.5t44.5 18.5q22 0 36.5 -16t14.5 -40q0 -30 -18 -47.5t-43 -17.5z" />
    <glyph glyph-name="slash" unicode="/" horiz-adv-x="322" 
d="M361 664l-320 -709h-55l319 709h56z" />
    <glyph glyph-name="zero" unicode="0" horiz-adv-x="480" 
d="M322 635q44 0 76 -20t49 -54.5t24 -75t5 -86.5q-2 -64 -19.5 -132.5t-48.5 -132.5t-84 -105t-117 -41q-85 0 -123 69t-34 174q2 62 20 129.5t50 130.5t85 103.5t117 40.5zM316 601q-41 0 -75 -41.5t-54 -104.5t-31.5 -128.5t-13.5 -122.5q-8 -182 71 -182q40 0 73.5 45
t53 112t31 132.5t13.5 118.5q8 171 -68 171z" />
    <glyph glyph-name="one" unicode="1" horiz-adv-x="480" 
d="M379 635l-99 -512q-12 -62 0 -76t84 -20l-7 -27h-281l6 27q67 7 82.5 20.5t27.5 75.5l72 366q9 45 0.5 56t-52.5 11l-34 1l6 26q106 15 195 52z" />
    <glyph glyph-name="two" unicode="2" horiz-adv-x="480" 
d="M110 498l64 82q60 55 134 55q72 0 115 -42.5t43 -115.5q0 -30 -10.5 -59.5t-24.5 -52t-45 -54t-53 -51t-67 -57.5l-143 -125h175q43 0 62.5 10.5t48.5 52.5l26 -12q-16 -34 -56 -129h-376l2 22q121 102 197 174q83 81 127 142.5t44 121.5q0 48 -25.5 77t-78.5 29
q-69 0 -137 -89z" />
    <glyph glyph-name="three" unicode="3" horiz-adv-x="480" 
d="M127 519l49 62q56 54 131 54q61 0 98 -35t37 -87q0 -53 -47 -91q-34 -26 -77 -51v-2q54 -15 86 -52t32 -91q0 -100 -111 -176q-42 -30 -91.5 -46t-86.5 -16q-61 0 -98 35q-24 21 -21 42q3 20 29 37q11 9 21 -1q60 -62 125 -62q60 0 98.5 40.5t38.5 118.5q0 58 -33 89
t-81 31q-25 0 -57 -8l-6 28q188 53 188 153q0 39 -22 61t-61 22q-58 0 -120 -77z" />
    <glyph glyph-name="four" unicode="4" horiz-adv-x="480" 
d="M466 223l-9 -45h-94l-11 -64q-10 -55 0 -68t68 -19l-6 -27h-260l6 27q64 5 79 18t26 69l13 64h-257l7 29q220 269 374 422h48l-78 -406h94zM351 527h-3q-122 -133 -254 -304h192z" />
    <glyph glyph-name="five" unicode="5" horiz-adv-x="480" 
d="M473 623l-31 -78h-233l-55 -178q76 24 105 24q80 0 127 -46t47 -113q0 -57 -33.5 -107.5t-93.5 -87.5q-80 -49 -154 -49q-34 0 -64 11.5t-46 27.5q-20 20 -17 39q4 23 29 38q11 7 22 -3q59 -62 129 -62q61 0 97.5 41.5t36.5 115.5q0 65 -35 102.5t-105 37.5
q-44 0 -89 -16l-7 9l82 294h288z" />
    <glyph glyph-name="six" unicode="6" horiz-adv-x="480" 
d="M500 641l7 -32q-49 -8 -111 -33q-165 -70 -226 -222l1 -2l62 30q36 17 61 17q72 0 115.5 -47.5t43.5 -125.5q0 -99 -67.5 -168.5t-159.5 -69.5q-83 0 -132 58.5t-49 150.5q0 145 89 256.5t236 157.5q59 19 130 30zM248 344q-42 0 -90 -30q-20 -52 -20 -122
q0 -71 26 -120.5t77 -49.5q53 0 86 54.5t33 132.5q0 57 -26 96t-86 39z" />
    <glyph glyph-name="seven" unicode="7" horiz-adv-x="480" 
d="M524 623l7 -12q-66 -109 -196 -316t-185 -296l-86 -11l-6 12q234 290 389 545h-211q-46 0 -64 -12.5t-44 -62.5l-28 9q19 48 44 144h380z" />
    <glyph glyph-name="eight" unicode="8" horiz-adv-x="480" 
d="M314 635q62 0 107 -38t45 -101q0 -56 -45 -94q-53 -39 -91 -63q56 -42 83.5 -77.5t27.5 -85.5q0 -78 -66 -133t-156 -55q-75 0 -128 41.5t-53 114.5q0 59 55 105q33 26 110 74q-82 63 -82 140q0 71 57 121.5t136 50.5zM300 601q-43 0 -70 -31t-27 -75q0 -64 67 -114
q5 -4 32 -23q83 56 83 140q0 46 -23.5 74.5t-61.5 28.5zM233 22q51 0 84 35.5t33 92.5q0 46 -28.5 78t-90.5 75q-104 -65 -104 -159q0 -53 28.5 -87.5t77.5 -34.5z" />
    <glyph glyph-name="nine" unicode="9" horiz-adv-x="480" 
d="M308 635q86 0 130.5 -61.5t44.5 -148.5q0 -143 -85 -253t-215 -158q-79 -29 -137 -29l-4 30q104 20 193 91t130 181l-70 -33q-31 -14 -56 -14q-64 0 -108 46.5t-44 120.5q0 91 66 159.5t155 68.5zM297 601q-50 0 -83.5 -50.5t-33.5 -119.5q0 -61 28.5 -97t82.5 -36
q47 0 82 26q19 53 19 121q0 23 -3 45.5t-12 50t-29.5 44t-50.5 16.5z" />
    <glyph glyph-name="colon" unicode=":" horiz-adv-x="240" 
d="M136 293q-23 0 -37.5 15.5t-14.5 39.5q0 29 17 47.5t44 18.5q22 0 36.5 -15.5t14.5 -40.5q0 -29 -18 -47t-42 -18zM91 -12q-24 0 -38 15.5t-14 39.5q0 29 17 47.5t44 18.5q23 0 37.5 -16t14.5 -41q0 -29 -18 -46.5t-43 -17.5z" />
    <glyph glyph-name="semicolon" unicode=";" horiz-adv-x="240" 
d="M133 293q-23 0 -37.5 16t-14.5 40q0 29 17 47t44 18q23 0 37.5 -15.5t14.5 -40.5q0 -29 -18.5 -47t-42.5 -18zM7 -115l-12 29q90 37 90 92q0 47 -46 61q-10 3 -9 15q1 22 16.5 36.5t35.5 14.5q32 0 53 -29t21 -66q0 -59 -43.5 -97t-105.5 -56z" />
    <glyph glyph-name="less" unicode="&#x3c;" horiz-adv-x="597" 
d="M519 0l-453 228v51l453 228v-58l-392 -195v-2l392 -194v-58z" />
    <glyph glyph-name="equal" unicode="=" horiz-adv-x="598" 
d="M554 320h-486v52h486v-52zM554 137h-486v52h486v-52z" />
    <glyph glyph-name="greater" unicode="&#x3e;" horiz-adv-x="597" 
d="M553 228l-452 -228v58l391 194v2l-391 195v58l452 -228v-51z" />
    <glyph glyph-name="question" unicode="?" horiz-adv-x="358" 
d="M204 213l-21 -20q-33 17 -61 49.5t-28 67.5q0 37 29 67t79 61q85 50 107 75q17 20 17 37q0 21 -14 34t-39 13q-29 0 -55.5 -13t-43 -26t-20.5 -13q-12 0 -24 14.5t-12 31.5q0 20 28 39q46 34 93 34q55 0 95.5 -44.5t40.5 -103.5q0 -69 -68 -112q-10 -6 -28 -18
q-44 -28 -62 -41t-32 -30t-14 -34q0 -33 33 -68zM134 -12q-24 0 -39.5 16.5t-15.5 41.5q0 31 18 50.5t47 19.5q24 0 39.5 -17t15.5 -43q0 -31 -19.5 -49.5t-45.5 -18.5z" />
    <glyph glyph-name="at" unicode="@" horiz-adv-x="741" 
d="M542 -21l10 -29q-92 -51 -199 -51q-125 0 -212 80.5t-87 219.5q0 114 57 202.5t144 132.5t185 44q129 0 203 -74t73 -184q0 -103 -70.5 -176t-173.5 -73q-35 0 -44 20.5t1 51.5l12 51l-2 1q-28 -40 -81.5 -82t-84.5 -42q-20 0 -34.5 23t-14.5 61q0 48 21 100.5t62 90.5
q75 70 163 71q1 0 53 -8q20 -4 32 -4q-32 -127 -54 -230q-7 -34 -3.5 -48t18.5 -13q55 1 103.5 55.5t48.5 150.5q0 102 -66.5 160t-169.5 58q-137 0 -224 -92.5t-87 -236.5q0 -49 14 -94t43.5 -84t83.5 -62.5t125 -23.5q85 0 155 34zM428 378q-37 0 -65 -31
q-23 -25 -41.5 -74t-19.5 -97q0 -42 21 -42q17 0 52.5 31.5t76.5 92.5q15 45 29 109q-18 11 -53 11z" />
    <glyph glyph-name="A" unicode="A" horiz-adv-x="665" 
d="M622 28l-7 -28h-243l8 28q49 5 60 16.5t6 45.5q-2 14 -23 142h-206q-37 -69 -67 -132q-21 -43 -12 -55t67 -17l-7 -28h-217l8 28q47 7 66 22t54 78l298 527l35 9l26 -166q29 -178 65 -379q10 -57 23.5 -71t65.5 -20zM416 276l-39 252h-2q-17 -31 -64.5 -118t-71.5 -134
h177z" />
    <glyph glyph-name="B" unicode="B" horiz-adv-x="587" 
d="M129 649h239q193 0 193 -138q0 -64 -45.5 -102.5t-118.5 -53.5v-2q64 -13 105.5 -52t41.5 -104q0 -54 -31 -95.5t-83 -66.5q-73 -35 -206 -35h-218l7 28q57 5 72.5 19t27.5 74l80 413q11 56 0.5 69t-70.5 18zM249 367h46q81 0 124.5 38.5t43.5 104.5q0 56 -33 81t-81 25
q-31 0 -45 -10q-12 -9 -19 -45zM242 333l-40 -209q-10 -53 8 -71t67 -18q70 0 116.5 46t46.5 121q0 69 -42.5 100t-110.5 31h-45z" />
    <glyph glyph-name="C" unicode="C" horiz-adv-x="638" 
d="M584 177l27 -14q-38 -91 -79 -153q-97 -25 -173 -25q-130 0 -212 75.5t-82 211.5q0 175 120.5 284t297.5 109q82 0 172 -32q-4 -110 -8 -156l-31 -3q-6 86 -43 120t-112 34q-125 0 -207 -104.5t-82 -248.5q0 -112 52 -183t145 -71q67 0 116 39.5t99 116.5z" />
    <glyph glyph-name="D" unicode="D" horiz-adv-x="712" 
d="M129 649h250q153 0 238 -66.5t85 -205.5q0 -94 -43 -174t-122 -129q-118 -74 -309 -74h-220l7 28q57 6 72 20.5t26 72.5l78 405q11 60 1 74t-70 21zM287 554l-80 -423q-7 -37 -4.5 -54.5t15.5 -25.5q22 -14 68 -14q142 1 226.5 100.5t84.5 245.5q0 110 -59.5 170.5
t-166.5 61.5q-47 0 -63 -11q-13 -8 -21 -50z" />
    <glyph glyph-name="E" unicode="E" horiz-adv-x="561" 
d="M127 649h439q-2 -14 -19 -154l-30 -2q-2 68 -14 89q-9 18 -27 25t-69 7h-72q-26 0 -33 -6.5t-12 -34.5l-41 -214h91q62 0 79 11.5t35 61.5h30l-38 -192h-30q2 56 -9.5 67.5t-74.5 11.5h-91l-33 -175q-14 -76 4 -93q17 -15 98 -15q54 0 81.5 7t47.5 27q29 27 68 95l29 -10
q-38 -100 -62 -155h-472l7 28q60 5 76 19t28 74l78 407q12 60 1.5 74t-72.5 19z" />
    <glyph glyph-name="F" unicode="F" horiz-adv-x="530" 
d="M130 649h437q-3 -35 -18 -153l-30 -3q-2 63 -12 87q-8 19 -27.5 26.5t-69.5 7.5h-76q-25 0 -32 -7t-12 -33l-43 -226h101q63 0 79.5 11t37.5 61h30l-39 -194h-29q0 57 -12.5 69t-75.5 12h-101l-34 -182q-11 -62 2 -77t81 -20l-7 -28h-270l6 28q56 5 71 20t27 77l76 398
q12 65 2.5 78.5t-69.5 19.5z" />
    <glyph glyph-name="G" unicode="G" horiz-adv-x="684" 
d="M657 476l-31 -3q-1 83 -41.5 119.5t-117.5 36.5q-129 0 -211.5 -103.5t-82.5 -248.5q0 -115 55.5 -185.5t154.5 -70.5q93 0 107 70l19 92q10 55 -2.5 67t-87.5 20l7 27h254l-7 -27q-42 -6 -53 -18.5t-21 -68.5l-16 -82q-9 -49 -5 -78q-7 -2 -45.5 -12t-56.5 -13.5t-50 -8
t-60 -4.5q-135 0 -217.5 75.5t-82.5 210.5q0 173 119 283.5t306 110.5q85 0 178 -31q-7 -73 -12 -158z" />
    <glyph glyph-name="H" unicode="H" horiz-adv-x="746" 
d="M792 649l-7 -28q-57 -5 -71.5 -19.5t-26.5 -75.5l-77 -403q-11 -61 -0.5 -75.5t70.5 -19.5l-6 -28h-262l6 28q59 5 74.5 19.5t26.5 75.5l38 199h-316l-37 -199q-12 -62 -1 -76t72 -19l-7 -28h-257l7 28q55 5 69 19.5t26 75.5l78 403q12 62 1 76t-73 19l7 28h256l-7 -28
q-54 -5 -68.5 -20t-25.5 -75l-31 -161h316l30 161q12 61 2 75.5t-69 19.5l6 28h257z" />
    <glyph glyph-name="I" unicode="I" horiz-adv-x="341" 
d="M386 649l-6 -28q-57 -5 -71.5 -18t-25.5 -69l-80 -415q-11 -58 0.5 -72t72.5 -19l-6 -28h-263l7 28q57 4 72 18.5t26 72.5l81 415q10 55 -1.5 68.5t-73.5 18.5l7 28h261z" />
    <glyph glyph-name="J" unicode="J" horiz-adv-x="327" 
d="M382 649l-6 -28q-55 -7 -68.5 -20t-23.5 -72l-74 -398q-18 -97 -50.5 -154t-90.5 -90q-43 -27 -86 -32l-9 32q80 22 110 108q18 49 39 155l71 379q10 60 -1 73t-72 19l7 28h254z" />
    <glyph glyph-name="K" unicode="K" horiz-adv-x="658" 
d="M721 649l-7 -27q-54 -8 -80.5 -19.5t-72.5 -48.5q-57 -46 -214 -182q80 -139 176 -275q29 -40 48.5 -52t60.5 -17l-7 -28h-152q-111 171 -181 290q-24 42 -54 29l-35 -191q-12 -65 -2 -80t69 -20l-6 -28h-253l8 28q54 5 68.5 20t26.5 80l76 397q12 62 2 76t-69 20l7 28
h250l-6 -28q-56 -6 -70 -20t-26 -76l-34 -176q36 12 75 44q98 81 198 181q22 22 20 30.5t-28 12.5l-28 4l7 28h233z" />
    <glyph glyph-name="L" unicode="L" horiz-adv-x="535" 
d="M487 169l29 -11q-53 -135 -64 -158h-447l7 28q57 4 72.5 18.5t26.5 71.5l81 415q11 57 0.5 70t-71.5 18l6 28h259l-6 -28q-59 -5 -73 -18t-25 -70l-79 -411q-9 -55 10 -72q16 -14 88 -14q83 0 115 31q36 36 71 102z" />
    <glyph glyph-name="M" unicode="M" horiz-adv-x="878" 
d="M910 649l-7 -28q-63 -5 -77 -18t-23 -74q-21 -137 -54 -393q-9 -72 2 -87t71 -21l-6 -28h-259l7 28q56 6 70 21.5t25 86.5q12 79 34 216t31 199h-3l-325 -547h-24q-29 168 -99 538h-3l-72 -260q-39 -145 -46 -191q-5 -34 8.5 -46t66.5 -17l-6 -28h-226l7 28q42 4 61 17
t32 45q20 50 70 218l58 199q22 73 11 90.5t-81 23.5l8 28h173q50 -245 105 -488l303 488h168z" />
    <glyph glyph-name="N" unicode="N" horiz-adv-x="705" 
d="M767 649l-6 -28q-44 -2 -60.5 -15t-26.5 -48q-17 -55 -39 -170l-75 -396h-34l-294 526h-3l-51 -260q-21 -108 -25 -168q-2 -34 15 -46t70 -16l-6 -28h-232l7 28q40 2 59 15t29 45q15 46 42 172l50 238q7 43 6 59t-11 34q-9 16 -26.5 22t-57.5 8l7 28h151l289 -500h3
l45 239q22 115 26 171q3 35 -14.5 47t-72.5 15l8 28h227z" />
    <glyph glyph-name="O" unicode="O" horiz-adv-x="711" 
d="M431 665q120 0 194 -80t74 -207q0 -163 -104 -278t-262 -115q-119 0 -193 78.5t-74 205.5q0 104 47 194.5t131.5 146t186.5 55.5zM424 629q-72 0 -131.5 -56t-91 -141t-31.5 -175q0 -105 43 -170.5t128 -65.5q76 0 135.5 58.5t88.5 142t29 169.5q0 107 -41 172.5
t-129 65.5z" />
    <glyph glyph-name="P" unicode="P" horiz-adv-x="561" 
d="M131 649h231q215 0 215 -169q0 -98 -72 -154.5t-167 -63.5q-13 -1 -37 -1l-68 21l-30 -157q-12 -62 0.5 -76.5t81.5 -20.5l-6 -28h-273l7 28q57 6 72 20.5t28 76.5l80 403q11 59 0.5 73t-69.5 20zM286 560l-46 -245q34 -13 71 -13q64 0 116 47.5t52 135.5q0 63 -33 97
t-94 34q-26 0 -42 -8q-16 -7 -24 -48z" />
    <glyph glyph-name="Q" unicode="Q" horiz-adv-x="711" 
d="M667 -139l-8 -22q-69 0 -123 15q-74 22 -215 123l-14 10q-109 8 -175 84.5t-66 195.5q0 161 105 279.5t260 118.5q120 0 194 -80t74 -208q0 -132 -74 -237t-193 -139l13 -9q102 -74 222 -131zM302 24l72 18q5 -3 13.5 -9t11.5 -8q85 25 140 135.5t55 229.5
q0 107 -41.5 173t-129.5 66q-71 0 -130.5 -56.5t-91 -141t-31.5 -174.5q0 -91 34.5 -154.5t97.5 -78.5z" />
    <glyph glyph-name="R" unicode="R" horiz-adv-x="605" 
d="M591 18l-8 -26h-12q-73 3 -107.5 24.5t-62.5 73.5q-27 50 -67 148q-11 28 -24 37t-39 9h-39l-28 -156q-12 -65 -1.5 -80t70.5 -20l-6 -28h-259l7 28q57 6 71.5 20.5t27.5 78.5l78 402q11 61 1.5 74t-69.5 18l6 28h224q99 0 144 -31q62 -40 62 -123q0 -71 -44 -119
t-112 -71q27 -69 59 -134q37 -72 62 -106q26 -34 66 -47zM239 317h43q67 0 105 25q34 23 54 61.5t20 83.5q0 63 -30 96t-83 33q-31 0 -44 -10q-11 -8 -18 -44z" />
    <glyph glyph-name="S" unicode="S" horiz-adv-x="472" 
d="M37 197l29 3q6 -43 21.5 -80.5t52 -68.5t87.5 -31q54 0 86 34.5t32 91.5q0 39 -22 71t-68 68l-29 22q-23 18 -39 33t-35 37.5t-29 50t-10 56.5q0 79 57.5 130t147.5 51q48 0 99 -17q11 -4 26 -10t17 -7q0 -1 -3 -142l-30 -3q-16 145 -120 145q-49 0 -79 -34t-30 -80
q0 -39 22.5 -68.5t67.5 -63.5l30 -22q58 -43 88 -85.5t30 -99.5q0 -86 -65 -139.5t-157 -53.5q-56 0 -105 19.5t-69 42.5q0 10 -1 60.5t-2 89.5z" />
    <glyph glyph-name="T" unicode="T" horiz-adv-x="606" 
d="M638 674h23q-10 -51 -24 -178l-32 -2q0 66 -12 91q-7 17 -28.5 23t-75.5 6h-59l-93 -493q-11 -59 2.5 -74t80.5 -19l-6 -28h-281l7 28q62 4 78.5 19t27.5 74l94 493h-50q-59 0 -82 -6.5t-38 -23.5q-22 -26 -50 -90h-31q32 107 47 180h23q7 -16 16.5 -20.5t30.5 -4.5h380
q18 0 27.5 5t24.5 20z" />
    <glyph glyph-name="U" unicode="U" horiz-adv-x="707" 
d="M776 649l-7 -28q-46 -2 -62.5 -13.5t-26.5 -42.5q-16 -54 -40 -176l-16 -81q-35 -181 -116 -257q-72 -66 -173 -66q-98 0 -156 54q-77 72 -45 242l47 249q11 59 0.5 72.5t-69.5 18.5l7 28h255l-6 -28q-56 -5 -70.5 -18.5t-25.5 -72.5l-46 -244q-24 -126 15.5 -186
t119.5 -60q88 0 141 66.5t81 209.5l15 73q23 122 26 177q1 30 -16.5 41t-72.5 14l7 28h234z" />
    <glyph glyph-name="V" unicode="V" horiz-adv-x="676" 
d="M750 649l-7 -28q-48 -5 -67.5 -20t-57.5 -75q-92 -147 -303 -536h-33q-37 229 -97 543q-11 56 -25 69.5t-62 18.5l8 28h236l-7 -28l-26 -4q-29 -4 -35.5 -13t-2.5 -37q3 -22 78 -438h2q186 334 226 418q19 41 14 53.5t-39 16.5l-29 4l8 28h219z" />
    <glyph glyph-name="W" unicode="W" horiz-adv-x="950" 
d="M1010 649l-6 -28q-49 -7 -66 -20.5t-47 -73.5q-56 -106 -255 -537h-33l-81 487h-3l-235 -487h-34l-61 536q-7 62 -19 76t-62 19l6 28h234l-7 -28l-25 -3q-30 -5 -37 -16t-3 -51l43 -406h2l232 493h32l82 -495h2q149 324 180 405q16 41 9.5 53t-44.5 17l-25 3l6 28h215z
" />
    <glyph glyph-name="X" unicode="X" horiz-adv-x="642" 
d="M681 649l-7 -28q-51 -5 -71 -15t-58 -51q-39 -43 -162 -192l110 -246q25 -57 43 -70t75 -19l-7 -28h-259l6 28l30 4q28 5 33 13.5t-5 34.5q-21 52 -89 209q-106 -134 -155 -208q-16 -24 -12.5 -34t33.5 -15l23 -4l-6 -28h-228l7 28q47 4 69 15.5t57 47.5q66 72 194 234
l-95 219q-22 48 -38 60t-67 17l7 28h237l-6 -28l-25 -4q-25 -5 -29.5 -11.5t2.5 -26.5q12 -35 79 -180q77 93 134 174q15 23 11.5 31t-28.5 13l-28 4l6 28h219z" />
    <glyph glyph-name="Y" unicode="Y" horiz-adv-x="615" 
d="M690 649l-8 -28q-48 -5 -68 -17.5t-58 -59.5q-46 -58 -161 -222q-17 -25 -25 -58l-28 -138q-13 -63 -0.5 -77.5t80.5 -20.5l-7 -28h-276l7 28q62 5 77.5 19.5t28.5 78.5l26 132q7 29 -5 60q-42 116 -85 230q-17 46 -31.5 57t-61.5 16l8 28h237l-7 -28l-34 -5
q-24 -4 -28.5 -12.5t2.5 -30.5q57 -159 88 -237q111 156 156 232q15 26 10.5 35t-33.5 14l-29 4l8 28h217z" />
    <glyph glyph-name="Z" unicode="Z" horiz-adv-x="591" 
d="M614 649l6 -14q-267 -324 -483 -594q46 -5 150 -5q78 0 118 6t63 25q33 28 75 111l29 -13q-41 -124 -60 -165h-504l-7 16q289 349 489 598h-151q-70 0 -95.5 -7.5t-41.5 -27.5q-27 -30 -52 -95l-30 3q26 95 42 187h21q9 -16 18.5 -20.5t31.5 -4.5h381z" />
    <glyph glyph-name="bracketleft" unicode="[" horiz-adv-x="343" 
d="M387 704l-7 -29q-77 -8 -93.5 -20.5t-27.5 -74.5l-119 -618q-12 -62 0.5 -74.5t90.5 -20.5l-7 -29h-174l166 866h171z" />
    <glyph glyph-name="backslash" unicode="\" horiz-adv-x="375" 
d="M327 -45h-55l-185 709h55z" />
    <glyph glyph-name="bracketright" unicode="]" horiz-adv-x="343" 
d="M326 704l-166 -866h-172l7 29q78 8 94 20t28 75l118 618q5 24 7 36t-1 23.5t-6.5 16t-18.5 9t-28 6t-44 4.5l7 29h175z" />
    <glyph glyph-name="asciicircum" unicode="^" horiz-adv-x="555" 
d="M506 211h-63l-154 345l-155 -345h-59l192 412h47z" />
    <glyph glyph-name="underscore" unicode="_" horiz-adv-x="500" 
d="M500 -125h-500v50h500v-50z" />
    <glyph glyph-name="grave" unicode="`" 
d="M323 500l-30 -9q-11 20 -30.5 55.5t-34.5 62t-27 46.5l4 10q8 4 37 9t41 4q6 -29 20.5 -93t19.5 -85z" />
    <glyph glyph-name="a" unicode="a" horiz-adv-x="496" 
d="M460 119l13 -24q-39 -48 -84 -77.5t-68 -29.5q-38 0 -20 91l18 88h-2q-53 -75 -123 -133q-57 -46 -96 -46q-24 0 -42 29.5t-18 84.5q0 75 32.5 149t85.5 120q40 34 92 56.5t100 22.5q24 0 62 -7q34 -7 42 -6l3 -4q-35 -137 -69 -323q-8 -43 2 -43q7 0 29.5 16t42.5 36z
M156 57q27 0 90 68.5t87 118.5q14 49 33 147q-25 14 -64 14q-40 0 -67 -19q-48 -36 -76.5 -112.5t-28.5 -152.5q0 -64 26 -64z" />
    <glyph glyph-name="b" unicode="b" horiz-adv-x="489" 
d="M103 650l2 26q36 4 71.5 12.5t56.5 15t27 6.5q13 0 6 -31q-37 -148 -87 -376h2q59 72 117 109.5t96 37.5q34 0 53.5 -30.5t19.5 -81.5q0 -83 -43.5 -166.5t-109.5 -127.5q-82 -56 -155 -56q-26 0 -49 12.5t-34 31.5q-24 37 -6 125q14 69 46 217t48 227q6 34 1 41t-33 8
h-29zM211 34q25 0 50 15q44 27 79.5 106t35.5 165q0 70 -33 70q-26 0 -77.5 -42t-95.5 -106q-8 -23 -18 -79q-13 -69 5.5 -99t53.5 -30z" />
    <glyph glyph-name="c" unicode="c" horiz-adv-x="385" 
d="M339 123l15 -23q-45 -53 -100 -82.5t-101 -29.5q-51 0 -80.5 38.5t-29.5 108.5q0 65 28 131t76 110q33 30 79.5 52t82.5 22q32 0 55 -15.5t23 -35.5q2 -30 -34 -49q-14 -9 -23 5q-34 47 -76 47q-45 0 -78 -63q-42 -77 -42 -181q0 -53 18.5 -80t50.5 -27q34 0 72.5 23
t63.5 49z" />
    <glyph glyph-name="d" unicode="d" horiz-adv-x="513" 
d="M476 115l14 -24q-38 -46 -83 -74.5t-69 -28.5q-39 0 -20 94l17 81h-2q-48 -66 -128 -130q-59 -45 -97 -45q-29 0 -49 31.5t-20 89.5q0 72 31.5 145t85.5 119q35 31 88.5 54t88.5 23q31 0 59 -10l32 159q7 33 0.5 41.5t-39.5 8.5h-30l3 26q38 4 74.5 13t57.5 15.5t27 6.5
q14 0 7 -29q-74 -320 -122 -580q-7 -35 4 -35q19 0 70 49zM161 57q34 0 96 64t91 116l31 143q-28 26 -79 26q-38 0 -65 -19q-46 -34 -75 -112.5t-29 -145.5q0 -35 8.5 -53.5t21.5 -18.5z" />
    <glyph glyph-name="e" unicode="e" horiz-adv-x="403" 
d="M353 127l17 -23q-107 -116 -215 -116q-46 0 -79.5 33.5t-33.5 113.5q0 73 31.5 143.5t88.5 113.5q74 58 143 58q41 0 65.5 -23.5t24.5 -57.5q0 -110 -262 -178q-2 -12 -2 -31q0 -46 17.5 -77.5t58.5 -31.5q67 0 146 76zM266 408q-22 0 -39 -11q-71 -44 -90 -174
q177 49 177 131q0 25 -13.5 39.5t-34.5 14.5z" />
    <glyph glyph-name="f" unicode="f" horiz-adv-x="275" 
d="M78 434h62q27 132 86 196q35 38 75.5 59t71.5 21q26 0 44.5 -14.5t17.5 -29.5q-1 -25 -27 -44q-15 -10 -26 1q-35 38 -63 38q-29 0 -50.5 -47.5t-42.5 -179.5h114l-21 -33l-101 -9q-30 -176 -52 -284q-26 -122 -56.5 -189t-75.5 -113q-60 -61 -112 -61q-23 0 -43.5 13.5
t-20.5 30.5q0 22 29 45q11 9 20 0q29 -27 66 -27q25 0 41 21q31 42 65 243q21 126 53 322h-82l-3 11z" />
    <glyph glyph-name="g" unicode="g" horiz-adv-x="425" 
d="M476 446l8 -20q-38 -41 -74 -49q-14 -2 -24 -3q7 -23 7 -53q0 -91 -74 -151q-52 -42 -133 -59q-17 -13 -19 -29q0 -20 72 -57q73 -38 105 -69.5t32 -64.5q0 -59 -80 -102.5t-161 -43.5q-75 0 -128.5 33t-52.5 79q1 32 42 66t125 76q-39 24 -37 50q0 26 64 63
q-90 20 -90 121q0 48 23 92.5t62 74.5q64 50 131 50q55 0 87 -28q79 1 115 24zM203 151q41 0 75 47t34 123q0 42 -16 67.5t-47 25.5q-40 0 -71 -48q-35 -54 -35 -128q0 -41 16.5 -64t43.5 -23zM177 -212q53 0 86 21t33 51q0 36 -70 78q-60 34 -78 43q-103 -51 -103 -106
q0 -37 40 -62t92 -25z" />
    <glyph glyph-name="h" unicode="h" horiz-adv-x="515" 
d="M470 110l14 -24q-41 -45 -83 -71.5t-67 -26.5q-41 0 -19 100l53 228q15 68 -9 68q-32 0 -98 -63t-103 -127q-18 -73 -38 -187q-41 -6 -79 -19l-7 8q80 366 124 597q7 39 1.5 47t-36.5 9h-27l4 26q36 3 71.5 12t56 16t25.5 7q13 0 5 -34l-88 -410h2q83 110 179 162
q39 22 70 22q59 0 29 -131l-50 -216q-8 -37 3 -37q7 0 28 13t39 31z" />
    <glyph glyph-name="i" unicode="i" horiz-adv-x="277" 
d="M223 643q21 0 32 -13.5t11 -34.5q1 -24 -16 -42.5t-41 -18.5q-19 0 -31 13t-13 34q0 23 16 42.5t42 19.5zM229 112l14 -22q-31 -37 -78.5 -69.5t-72.5 -32.5q-41 0 -17 100l61 250q7 33 -1 33q-16 0 -67 -42l-12 24q42 41 88.5 69t68.5 28q32 0 12 -82l-67 -268
q-8 -34 2 -34q19 0 69 46z" />
    <glyph glyph-name="j" unicode="j" horiz-adv-x="270" 
d="M218 649q20 0 31.5 -13.5t11.5 -33.5q0 -25 -16 -43t-40 -18q-20 0 -32.5 13t-13.5 34q0 23 16 42t43 19zM66 321l-13 24q44 45 91.5 75t71.5 30q17 0 19 -25.5t-9 -80.5q-12 -63 -56 -281q-38 -182 -123 -257q-68 -61 -107 -61q-16 0 -30.5 10t-14.5 24q0 24 26 46
q12 10 22 4q32 -19 52 -19q38 0 61 100q16 65 81 403q3 17 5 27.5t2 17t-1.5 8.5t-4.5 2q-7 0 -30 -15t-42 -32z" />
    <glyph glyph-name="k" unicode="k" horiz-adv-x="473" 
d="M442 102l18 -22q-61 -92 -116 -92q-18 0 -33.5 14.5t-33.5 52.5q-38 83 -73 183q-42 -43 -51 -60q-22 -97 -35 -170q-43 -8 -80 -20l-6 6q88 385 134 608q6 30 0 37.5t-36 8.5l-30 1l5 26q37 4 72.5 13t56 15.5t25.5 6.5q12 0 5 -29q-69 -308 -99 -440h2q25 30 84 89
q118 120 174 120q19 0 31 -9.5t12 -22.5q0 -22 -21 -43q-9 -9 -16 -6q-16 9 -40 9q-57 0 -125 -78q25 -82 76 -183q29 -60 44 -60q17 0 56 45z" />
    <glyph glyph-name="l" unicode="l" horiz-adv-x="254" 
d="M219 118l15 -24q-39 -45 -85.5 -75.5t-71.5 -30.5q-43 0 -17 123q42 196 103 485q7 34 0 43t-41 10l-27 1l4 25q35 4 71 13t57.5 15.5t25.5 6.5q13 0 7 -31q-119 -567 -121 -578q-7 -36 3 -36q9 0 33.5 16.5t43.5 36.5z" />
    <glyph glyph-name="m" unicode="m" horiz-adv-x="789" 
d="M739 111l13 -25q-39 -43 -81.5 -70.5t-64.5 -27.5q-43 0 -18 102l54 230q15 63 -9 63q-31 0 -98.5 -72.5t-96.5 -127.5q-22 -84 -39 -176q-45 -6 -81 -19l-7 7q59 237 72 298q10 49 8.5 69.5t-15.5 20.5q-32 0 -100 -74t-94 -127q-16 -52 -42 -175q-42 -6 -79 -19l-8 8
q39 145 83 337q8 41 -1 41q-17 0 -68 -47l-12 25q41 45 82 71.5t64 26.5q39 0 10 -122l-17 -69h2q84 116 175 170q36 21 64 21q59 0 26 -151l-9 -38h2q85 118 179 169q36 20 62 20q58 0 24 -146l-49 -205q-8 -33 3 -33q7 0 27 13.5t39 31.5z" />
    <glyph glyph-name="n" unicode="n" horiz-adv-x="535" 
d="M485 112l15 -25q-43 -47 -83.5 -73t-63.5 -26q-42 0 -17 105q18 73 52 219q16 70 -7 70q-30 0 -96.5 -68.5t-104.5 -132.5q-28 -116 -40 -173q-43 -6 -79 -20l-7 8q39 150 81 337q9 40 -2 40q-7 0 -26.5 -13.5t-37.5 -31.5l-13 26q42 44 82.5 70t63.5 26q37 0 10 -114
l-19 -80h2q80 110 177 170q40 24 69 24q60 0 25 -145q-15 -67 -47 -203q-9 -36 2 -36q7 0 26 13t38 33z" />
    <glyph glyph-name="o" unicode="o" horiz-adv-x="474" 
d="M180 -12q-69 0 -102 45t-33 112q0 93 43 165.5t108 106.5q61 33 113 33q64 0 99.5 -41.5t35.5 -115.5q0 -67 -28 -133t-79 -109q-75 -63 -157 -63zM217 29q16 0 31 6q41 17 73 90.5t31 167.5q0 58 -21 88t-56 30q-18 0 -36 -8q-35 -17 -68.5 -84t-33.5 -171
q0 -55 21.5 -87t58.5 -32z" />
    <glyph glyph-name="p" unicode="p" horiz-adv-x="491" 
d="M245 515l-18 -77q44 12 93 12q75 0 109.5 -35.5t34.5 -104.5q0 -111 -85 -206q-36 -42 -87 -73t-100 -43q-33 0 -57 10l-28 -138q-8 -42 -0.5 -54t44.5 -16l24 -2l-4 -27l-238 -12l5 26q46 9 61 23.5t25 59.5q17 82 54.5 255t56.5 262q-39 -12 -81 -36l-7 27q39 27 96 49
l11 45q28 33 81 61zM218 398l-68 -332q9 -13 26.5 -23.5t33.5 -9.5q53 0 107.5 85t54.5 178q0 109 -100 109q-29 0 -54 -7z" />
    <glyph glyph-name="q" unicode="q" horiz-adv-x="489" 
d="M422 -213l-5 -26l-237 -12l5 26l17 4q35 8 47.5 21.5t21.5 58.5l62 300h-2q-48 -62 -121 -120q-63 -51 -107 -51q-28 0 -47 32.5t-19 82.5q0 76 32.5 147t84.5 117q32 28 76 49t76 28q30 6 54 6q39 0 90 -15l17 -4q-27 -110 -47 -219l-64 -347q-8 -47 -1 -58.5t42 -16.5z
M307 405q-41 0 -71 -22q-48 -36 -77.5 -110.5t-29.5 -143.5q0 -34 9 -52t22 -18q32 0 89 55t91 109q24 96 35 167q-25 15 -68 15z" />
    <glyph glyph-name="r" unicode="r" horiz-adv-x="370" 
d="M61 327l-14 24q38 42 80 70.5t64 28.5q38 0 14 -116l-10 -49h3q38 74 78.5 119.5t69.5 45.5q30 0 44 -26q14 -21 -1 -46q-12 -20 -28 -31q-13 -11 -23 -1q-16 18 -35 18t-48 -41q-46 -64 -69 -122q-18 -77 -40 -194q-42 -7 -78 -19l-8 8q47 190 72 333q8 44 -2 44
q-7 0 -28.5 -14t-40.5 -32z" />
    <glyph glyph-name="s" unicode="s" horiz-adv-x="340" 
d="M114 -12q-36 0 -69.5 23.5t-34.5 50.5q0 26 31 44q17 9 26 -3q44 -63 100 -63q27 0 44.5 16.5t17.5 39.5q0 36 -60 82q-29 22 -44.5 36t-30 38.5t-14.5 49.5q0 54 54 99q24 21 56.5 35t57.5 14q33 0 56.5 -18t23.5 -40q0 -27 -27 -44q-14 -8 -23 4q-37 48 -80 48
q-22 0 -36.5 -15t-14.5 -38t16.5 -42.5t49.5 -44.5q46 -34 66 -60t20 -59q0 -57 -60.5 -105t-124.5 -48z" />
    <glyph glyph-name="t" unicode="t" horiz-adv-x="310" 
d="M343 434l-27 -36l-98 -5l-57 -271q-12 -60 6 -60q12 0 40.5 19t47.5 38l14 -23q-31 -37 -80 -72.5t-85 -35.5q-14 0 -22.5 12t-11 41.5t9.5 80.5l58 271h-73l-3 9l25 32h60l23 94l83 65l10 -7l-35 -152h115z" />
    <glyph glyph-name="u" unicode="u" horiz-adv-x="535" 
d="M495 116l14 -24q-38 -45 -82 -74.5t-68 -29.5q-42 0 -18 105q8 31 18 84h-2q-74 -102 -159 -160q-41 -29 -79 -29q-64 0 -34 131q7 30 25 105t27 116q8 35 -2 35q-13 0 -68 -46l-12 26q43 42 86 68.5t66 26.5q18 0 21.5 -19t-8.5 -71l-54 -234q-15 -66 11 -66
q37 0 101 69t96 128q2 8 15.5 69t21.5 98l77 26h11q-51 -208 -77 -344q-8 -40 3 -40q7 0 29.5 15.5t40.5 34.5z" />
    <glyph glyph-name="v" unicode="v" horiz-adv-x="450" 
d="M227 93h2q148 187 147 256q0 28 -10 44q-6 10 -1 25q12 32 46 32q19 0 32 -16.5t13 -41.5q0 -48 -62 -134q-99 -138 -209 -270h-29q-8 172 -21 312q-6 73 -18 73q-14 0 -58 -51l-17 23q31 43 66 74t59 31q38 0 46 -113q13 -226 14 -244z" />
    <glyph glyph-name="w" unicode="w" horiz-adv-x="672" 
d="M463 97h2q134 184 135 249q0 25 -11 47q-7 13 0 26q13 31 43 31q20 0 33 -16.5t12 -42.5q0 -37 -40 -104q-44 -70 -212 -299h-31q-14 166 -30 304h-2q-86 -143 -186 -304h-29q-1 131 -12 322q-3 63 -15 63q-11 0 -59 -49l-16 21q34 45 70.5 75t60.5 30q36 0 39 -103
q4 -160 3 -226h2q135 230 182 314h26q7 -64 19 -181t16 -157z" />
    <glyph glyph-name="x" unicode="x" horiz-adv-x="475" 
d="M85 321l-18 21q75 108 124 108q19 0 32 -23.5t33 -83.5l17 -54q63 90 99.5 125.5t68.5 35.5q20 0 32 -13.5t11 -31.5q0 -18 -14 -32.5t-27 -14.5q-7 0 -16 9q-9 12 -23 12q-20 0 -56 -45q-40 -46 -63 -80l33 -106q27 -86 48 -86q22 0 71 58l18 -21q-71 -111 -131 -111
q-40 0 -69 93l-29 93q-67 -105 -105.5 -145.5t-74.5 -40.5q-20 0 -33.5 14t-13.5 36q1 19 14 34t28 15q9 0 17 -10t23 -10q36 0 134 145l-33 102q-19 63 -34 63q-18 0 -63 -56z" />
    <glyph glyph-name="y" unicode="y" horiz-adv-x="447" 
d="M245 79h2q130 196 130 268q0 19 -12 48q-5 12 2 27q14 28 44 28q18 0 30 -15.5t12 -41.5q2 -43 -36 -107q-70 -126 -177 -276q-108 -155 -182 -237l-109 -28l-8 23q136 89 233 218q-2 131 -32 328q-9 59 -21 59q-7 0 -23 -16t-34 -41l-18 24q29 45 63 77.5t60 32.5
q41 0 54 -121q14 -106 22 -250z" />
    <glyph glyph-name="z" unicode="z" horiz-adv-x="417" 
d="M424 464l20 -22q-20 -26 -61 -70q-50 -56 -265 -274q29 1 77 -16q68 -24 88 -24q44 0 101 85l24 -18q-40 -81 -73 -113.5t-68 -32.5q-33 0 -133 49q-43 20 -65 5q-17 -11 -31 -34q-7 -10 -13 -8q-10 4 -12.5 15t8.5 34.5t40 53.5q26 27 125.5 126t150.5 153
q-26 -6 -63 -3q-58 5 -91 6q-33 0 -53.5 -20t-46.5 -64l-26 14q19 44 42 83q38 59 75 59q31 0 103 -12q53 -10 84 -10q28 0 63 38z" />
    <glyph glyph-name="braceleft" unicode="{" horiz-adv-x="343" 
d="M387 710l-3 -28q-49 -6 -69.5 -29t-27.5 -62q-6 -32 -10 -94q-6 -89 -10 -110q-18 -96 -103 -114l-1 -4q64 -15 64 -83q0 -21 -5 -43t-16 -54t-15 -44q-27 -96 -27 -121q0 -54 66 -64l-7 -28q-125 0 -126 95q0 35 32 152q27 91 27 117q0 54 -73 60l7 30q30 2 50.5 10.5
t30.5 24t13.5 25.5t7.5 28q2 10 11 89q6 73 16 123q24 124 168 124z" />
    <glyph glyph-name="bar" unicode="|" horiz-adv-x="245" 
d="M171 -250h-66v1000h66v-1000z" />
    <glyph glyph-name="braceright" unicode="}" horiz-adv-x="343" 
d="M297 286l-7 -30q-30 -2 -50 -10.5t-30 -24t-13.5 -25.5t-7.5 -28q-3 -18 -10 -89q-7 -75 -17 -123q-24 -124 -169 -124l4 29q48 7 69 29.5t28 58.5q6 33 10 96q6 87 10 109q19 97 102 115v4q-67 16 -61 99q1 16 6 36t15 50l13 39q24 84 25 106q5 68 -64 79l7 28
q24 0 45 -4.5t41.5 -15.5t31 -33.5t7.5 -55.5q-1 -34 -31 -138q-24 -83 -26 -104q-3 -29 13.5 -49.5t58.5 -23.5z" />
    <glyph glyph-name="asciitilde" unicode="~" horiz-adv-x="566" 
d="M503 300l38 -21q-34 -114 -128 -114q-50 0 -126 46q-53 32 -90 32q-59 0 -90 -85l-37 27q44 109 132 109q52 0 114 -37q68 -39 103 -39q29 0 48.5 19.5t35.5 62.5z" />
    <glyph glyph-name="uni00A0" unicode="&#xa0;" horiz-adv-x="227" 
 />
    <glyph glyph-name="exclamdown" unicode="&#xa1;" horiz-adv-x="260" 
d="M227 391q0 -30 -19 -49.5t-46 -19.5q-24 0 -39.5 17t-15.5 43q0 31 19 49.5t47 18.5q23 0 38.5 -17t15.5 -42zM49 -228q-57 0 -52 32q2 12 22 78q16 53 50 171.5t53 182.5q5 6 18 5.5t15 -5.5q-4 -52 -10 -111t-12.5 -130t-10.5 -112q-4 -61 -8 -80q-6 -31 -65 -31z" />
    <glyph glyph-name="cent" unicode="&#xa2;" horiz-adv-x="480" 
d="M374 619l-16 -79q62 0 102 -31q14 -11 14 -27t-13 -29.5t-24 -13.5q-8 0 -17 10q-31 41 -71 46l-65 -341q3 0 7 -0.5t6 -0.5q67 0 129 53l16 -23q-76 -81 -169 -90l-19 -97h-37l19 98q-70 6 -117 54t-47 129q0 100 73.5 173.5t175.5 86.5l16 82h37zM248 160l65 339
q-71 -2 -111.5 -59t-40.5 -139q0 -58 24.5 -94.5t62.5 -46.5z" />
    <glyph glyph-name="sterling" unicode="&#xa3;" horiz-adv-x="480" 
d="M384 295h-161q-8 -65 -37.5 -109.5t-81.5 -82.5q41 1 106 -28q80 -36 120 -36q53 0 60 41q2 15 -2 35q-4 10 5 23q24 26 41 26q10 0 15 -14t1 -34q-5 -29 -29 -59.5t-56 -50.5q-53 -33 -96 -33q-9 0 -18.5 1.5t-21 5.5t-18.5 6.5t-21 9.5t-18.5 9.5t-20.5 11.5t-18 10
q-42 24 -63 24q-24 0 -48 -42q-6 -13 -14 -13q-32 12 -8 47q12 18 61 64q65 62 69 188h-89l7 37h83q2 46 7 81q16 110 106 178q59 45 111 45q32 -1 56.5 -14t32.5 -27q10 -18 0 -34q-7 -11 -22 -22q-15 -8 -28 3q-44 44 -83 44q-65 0 -79 -93q-5 -36 -7 -161h167z" />
    <glyph glyph-name="currency" unicode="&#xa4;" horiz-adv-x="480" 
d="M477 135l-43 -42l-65 75q-47 -38 -108 -38q-64 0 -109 38l-65 -75l-42 42l71 67q-45 51 -45 123q0 73 45 123l-71 68l42 41l65 -75q48 38 110 38t107 -38l65 75l43 -41l-71 -68q44 -50 44 -123q0 -71 -44 -123zM261 467q-53 0 -89 -40t-36 -102q0 -63 36 -102.5t89 -39.5
q54 0 89 39.5t35 102.5q0 62 -35.5 102t-88.5 40z" />
    <glyph glyph-name="yen" unicode="&#xa5;" horiz-adv-x="480" 
d="M551 623l-5 -27q-38 -5 -56.5 -16.5t-46.5 -50.5q-46 -60 -133 -197h108l-8 -36h-116l-15 -70h119l-8 -36h-118l-15 -84q-10 -51 1 -62t70 -16l-7 -28h-247l6 28q55 4 69 15.5t24 62.5l15 84h-113l9 36h111l13 70h-112l8 36h102q-17 87 -52 209q-8 31 -21.5 41t-50.5 14
l5 27h209l-5 -28l-29 -4q-19 -2 -24 -9t-1 -26q16 -76 45 -205q96 150 123 197q13 23 9 32.5t-27 12.5l-26 3l6 27h184z" />
    <glyph glyph-name="brokenbar" unicode="&#xa6;" horiz-adv-x="245" 
d="M171 325h-66v350h66v-350zM171 -175h-66v350h66v-350z" />
    <glyph glyph-name="section" unicode="&#xa7;" horiz-adv-x="474" 
d="M430 217q0 -116 -130 -232q-82 -73 -164 -88q-42 0 -73 25q-16 14 -16 31q1 10 11.5 21.5t19.5 16.5q11 6 19 -2q42 -33 85 -33q31 0 55 17.5t25 45.5q2 42 -51 99q-13 14 -27.5 31t-29.5 35l-20 24q-61 71 -61 142q0 104 113 206q79 73 164 88q47 0 73 -26
q12 -12 10 -26q0 -10 -9 -20.5t-17 -15.5q-9 -5 -18 1l-7 5q-6 6 -9.5 8.5t-11.5 7.5t-15.5 7.5t-18.5 5t-22 2.5q-31 0 -50.5 -18.5t-19.5 -41.5q0 -32 31 -66q42 -47 82 -87q82 -82 82 -163zM185 509l-2 1q-52 -49 -52 -119q0 -65 52 -122l49 -54q55 -61 70 -97
q17 -31 12 -76l1 -1q52 56 52 126t-55 132q-15 16 -49.5 56t-44.5 52q-41 47 -33 102z" />
    <glyph glyph-name="dieresis" unicode="&#xa8;" 
d="M187 633q20 0 31 -13t11 -31q0 -25 -15 -42t-39 -17q-18 0 -30 12.5t-12 31.5q0 22 15 40.5t39 18.5zM366 633q20 0 31 -13t11 -31q0 -25 -15 -42t-39 -17q-18 0 -30 12.5t-12 31.5q0 22 15 40.5t39 18.5z" />
    <glyph glyph-name="copyright" unicode="&#xa9;" horiz-adv-x="694" 
d="M372 627q130 0 216.5 -88.5t86.5 -216.5q0 -127 -87 -215t-216 -88t-215.5 88t-86.5 215q0 128 86.5 216.5t215.5 88.5zM373 592q-110 0 -182.5 -77t-72.5 -192q0 -114 72.5 -191.5t182.5 -77.5q109 0 181.5 77.5t72.5 191.5q0 115 -72 192t-182 77zM502 262l23 -5
q-20 -79 -25 -89q-57 -19 -106 -19q-92 0 -141.5 51t-49.5 120q0 81 57 129t138 48q59 0 105 -18q2 -15 5.5 -46t5.5 -44l-22 -4q-17 42 -39.5 62t-60.5 20q-52 0 -82.5 -39t-30.5 -101q0 -65 33 -106t83 -41q38 0 63 20.5t44 61.5z" />
    <glyph glyph-name="ordfeminine" unicode="&#xaa;" horiz-adv-x="337" 
d="M347 355l8 -20q-25 -27 -55 -45.5t-45 -18.5q-29 0 -18 51l12 53h-3q-33 -42 -77 -74q-38 -30 -64 -30q-16 0 -27.5 16t-11.5 53q0 44 20.5 89.5t49.5 71.5q24 21 61 36.5t72 15.5q16 0 35 -4q15 -4 38 -4q-28 -117 -39 -189q-3 -28 2 -28q13 0 42 27zM235 519
q-19 0 -33 -8q-25 -14 -44 -54q-23 -49 -23 -99q0 -32 14 -32q20 0 54 36q27 28 47 62q16 24 25 87q-14 8 -40 8z" />
    <glyph glyph-name="guillemotleft" unicode="&#xab;" horiz-adv-x="450" 
d="M249 388l-107 -166l71 -167l-25 -15q-89 129 -133 182q59 56 171 183zM414 388l-107 -166l72 -167l-26 -15q-94 137 -133 182q59 56 171 183z" />
    <glyph glyph-name="logicalnot" unicode="&#xac;" horiz-adv-x="598" 
d="M541 98h-60v219h-419v52h479v-271z" />
    <glyph glyph-name="uni00AD" unicode="&#xad;" horiz-adv-x="335" 
d="M300 255l-18 -58h-234l18 58h234z" />
    <glyph glyph-name="registered" unicode="&#xae;" horiz-adv-x="313" 
d="M200 661q55 0 92.5 -38.5t37.5 -91.5q0 -52 -37.5 -90t-92.5 -38t-92 37t-37 91q0 53 37.5 91.5t91.5 38.5zM201 638q-44 0 -72.5 -31t-28.5 -76t29 -75t72 -30t72 30t29 75t-29 76t-72 31zM274 475l-3 -12q-34 0 -49 20q-13 20 -19 30q-5 7 -13 7h-4v-22q0 -7 0.5 -10.5
t3 -5.5t5 -2.5t10.5 -1.5v-14h-68v14q10 1 13.5 2t5 5t1.5 13v69q0 13 -3 15.5t-16 3.5v15h69q48 0 48 -36q0 -23 -27 -35q13 -24 33 -45q9 -9 13 -10zM186 574v-37h9q10 0 17 5q11 6 11 20q0 24 -24 24q-13 0 -13 -12z" />
    <glyph glyph-name="macron" unicode="&#xaf;" 
d="M379 599l-13 -55h-226l14 55h225z" />
    <glyph glyph-name="degree" unicode="&#xb0;" horiz-adv-x="352" 
d="M238 664q57 0 94.5 -35t37.5 -95q0 -63 -43 -102.5t-106 -39.5q-57 0 -94.5 35t-37.5 93q0 62 44 103t105 41zM236 623q-37 0 -62.5 -28.5t-25.5 -74.5q0 -37 21 -62t56 -25q39 0 63.5 28.5t24.5 70.5q0 40 -20.5 65.5t-56.5 25.5z" />
    <glyph glyph-name="plusminus" unicode="&#xb1;" horiz-adv-x="598" 
d="M545 310h-213v-202h-60v202h-213v52h213v189h60v-189h213v-52zM545 0h-486v52h486v-52z" />
    <glyph glyph-name="twosuperior" unicode="&#xb2;" horiz-adv-x="329" 
d="M311 491l21 -10q-26 -54 -39 -85h-245l4 19q75 57 116 93q93 81 93 137q0 26 -14.5 42t-43.5 16q-39 0 -85 -55l-18 17l41 49q35 40 94 40q42 0 71.5 -26t29.5 -71q0 -15 -3.5 -28.5t-13.5 -27t-16.5 -22.5t-23.5 -23.5t-23 -19.5t-27 -20.5t-24 -17.5l-58 -45v-2h91
q26 0 40 7.5t33 32.5z" />
    <glyph glyph-name="threesuperior" unicode="&#xb3;" horiz-adv-x="329" 
d="M133 663l-18 16l32 39q36 36 89 36q36 0 62 -19.5t26 -53.5q0 -43 -67 -73v-2q29 -7 49.5 -27t20.5 -51q0 -69 -86 -112q-49 -26 -93 -26q-49 0 -71 24q-12 12 -7 27q5 16 21 26q11 7 22 -4q40 -35 74 -35q27 0 46.5 20.5t19.5 53.5q0 34 -19 51t-48 17q-21 0 -37 -7
l-5 25q47 10 77.5 31.5t30.5 48.5q0 42 -45 42q-39 0 -74 -47z" />
    <glyph glyph-name="acute" unicode="&#xb4;" 
d="M387 661l-158 -170l-25 16q47 75 92 158q10 3 43 6.5t45 2.5z" />
    <glyph glyph-name="mu" unicode="&#xb5;" horiz-adv-x="515" 
d="M471 116l14 -24q-38 -46 -81.5 -75t-68.5 -29q-42 0 -18 105q7 29 18 81h-2q-74 -105 -134 -155q-38 -31 -70 -31q-31 0 -42 45h-2q-22 -78 -18 -147q5 -78 33 -104l1 -7q-7 -11 -24.5 -21.5t-36.5 -10.5q-18 0 -29 18.5t-10 54.5q3 54 37 198q39 173 92 414l81 22l6 -5
q-59 -254 -70 -303q-9 -42 -3 -63t23 -21q33 0 92 69t91 129q4 16 11 49t13.5 62t12.5 57l77 26h11q-41 -159 -77 -344q-8 -41 3 -41q7 0 28.5 15.5t41.5 35.5z" />
    <glyph glyph-name="paragraph" unicode="&#xb6;" horiz-adv-x="489" 
d="M533 538l-35 -26l-82 -10l-91 -474q-24 -122 -100 -188q-24 -22 -53.5 -35t-43.5 -13q-41 0 -63 24q-14 15 -7 31q6 18 23 28q11 9 21 0q30 -23 65 -23t59.5 33.5t44.5 135.5l26 131l-66 -27q-5 -3 -18 -3q-53 0 -94 52t-41 125q0 109 79.5 180.5t186.5 71.5h186z" />
    <glyph glyph-name="periodcentered" unicode="&#xb7;" horiz-adv-x="240" 
d="M123 168q-23 0 -38 15.5t-15 40.5q0 29 18 48.5t45 19.5q23 0 38 -16.5t15 -41.5q0 -30 -19 -48t-44 -18z" />
    <glyph glyph-name="cedilla" unicode="&#xb8;" 
d="M206 1l-21 -26q-10 -13 -10 -21t11 -21q30 -38 29 -66q-1 -29 -36 -56.5t-88 -43.5l-12 28q68 31 69 59q1 14 -18 38q-15 18 -16.5 29.5t12.5 30.5l40 49h40z" />
    <glyph glyph-name="onesuperior" unicode="&#xb9;" horiz-adv-x="329" 
d="M290 419l-6 -23h-194l5 23q40 4 52 13t19 44l34 177q5 31 1 37.5t-29 8.5l-26 3l5 22q65 9 138 30l-54 -278q-6 -35 3 -43.5t52 -13.5z" />
    <glyph glyph-name="ordmasculine" unicode="&#xba;" horiz-adv-x="319" 
d="M238 553q45 0 71 -27.5t26 -75.5q0 -91 -66 -142q-48 -37 -97 -37q-47 0 -73 29.5t-26 73.5q0 52 25.5 94.5t64.5 63.5q36 21 75 21zM221 523q-11 0 -21 -5q-22 -9 -40 -45.5t-18 -95.5q0 -35 12.5 -54.5t35.5 -19.5q10 0 21 4q20 9 39 51.5t18 98.5q0 31 -12.5 48.5
t-34.5 17.5z" />
    <glyph glyph-name="guillemotright" unicode="&#xbb;" horiz-adv-x="450" 
d="M93 389l26 15q94 -137 133 -182q-59 -56 -171 -183l-23 17l107 166zM259 389l25 15q89 -129 133 -182q-59 -56 -171 -183l-23 17l107 166z" />
    <glyph glyph-name="onequarter" unicode="&#xbc;" horiz-adv-x="764" 
d="M667 629l-509 -658l-27 25l507 657zM277 301l-6 -24h-195l5 24q40 4 51.5 13t18.5 44l35 176q6 32 1.5 38.5t-29.5 8.5l-26 2l5 23q58 7 139 29l-54 -277q-7 -35 2.5 -44t52.5 -13zM669 133l-7 -36h-57l-5 -24q-6 -30 2.5 -38t43.5 -12l-5 -23h-180l5 23q40 4 51.5 11.5
t17.5 37.5l4 25h-161l5 24q131 144 227 237h45l-43 -225h57zM576 286q-75 -82 -137 -153h107z" />
    <glyph glyph-name="onehalf" unicode="&#xbd;" horiz-adv-x="748" 
d="M654 629l-509 -658l-27 25l507 657zM270 301l-6 -24h-195l6 24q40 4 52 13t18 44l35 176q5 32 0.5 38.5t-29.5 8.5l-26 2l6 23q59 7 138 29l-54 -277q-7 -35 3 -44t52 -13zM663 95l21 -10q-12 -25 -39 -85h-244l3 19q75 57 116 93q44 38 68.5 70t24.5 66q0 27 -15 42.5
t-44 15.5q-37 0 -84 -55l-17 18l39 49q37 40 98 40q40 0 69 -26.5t29 -70.5q0 -17 -6.5 -33.5t-14.5 -28.5t-24.5 -28t-26 -23.5t-31 -24t-28.5 -21.5l-57 -45v-2h90q26 0 40 7.5t33 32.5z" />
    <glyph glyph-name="threequarters" unicode="&#xbe;" horiz-adv-x="748" 
d="M679 629l-509 -658l-27 25l507 657zM145 544l-18 17l32 38q34 36 89 36q37 0 63 -19t26 -54q0 -41 -68 -73v-2q29 -7 49.5 -27t20.5 -50q0 -71 -84 -113q-49 -26 -94 -26q-49 0 -71 24q-13 13 -8 27q8 18 22 26q11 6 21 -4q41 -36 74 -36q27 0 46.5 20.5t19.5 54.5
t-19 51t-48 17q-20 0 -36 -6l-6 24q48 10 78.5 31.5t30.5 49.5q0 41 -46 41q-39 0 -74 -47zM677 133l-6 -36h-58l-5 -24q-6 -30 2.5 -38t43.5 -12l-4 -23h-180l5 23q40 4 51.5 11.5t16.5 37.5l5 25h-161l5 24q127 140 226 237h45l-43 -225h57zM586 286h-2
q-106 -117 -136 -153h107z" />
    <glyph glyph-name="questiondown" unicode="&#xbf;" horiz-adv-x="361" 
d="M234 450q24 0 39.5 -16.5t15.5 -42.5q0 -30 -18.5 -49.5t-45.5 -19.5q-25 0 -40.5 17t-15.5 43q0 30 19 49t46 19zM167 223l19 21q35 -19 63 -51t28 -67q0 -62 -109 -128q-83 -49 -105 -73q-18 -20 -18 -39q0 -20 14.5 -33t38.5 -13q30 0 56 13t42 25.5t20 12.5
q12 0 24.5 -14t12.5 -31q0 -20 -29 -40q-47 -34 -93 -34q-55 0 -96 44.5t-41 103.5q0 67 68 112q9 6 25.5 16.5t24.5 15.5t21 13.5t19.5 13.5t15.5 12.5t13.5 13t9 12.5t6.5 13.5t2 13.5q0 33 -32 67z" />
    <glyph glyph-name="Agrave" unicode="&#xc0;" horiz-adv-x="665" 
d="M622 28l-7 -28h-243l8 28q49 5 60 16.5t6 45.5q-2 14 -23 142h-206q-37 -69 -67 -132q-21 -43 -12 -55t67 -17l-7 -28h-217l8 28q47 7 66 22t54 78l298 527l35 9l26 -166q29 -178 65 -379q10 -57 23.5 -71t65.5 -20zM416 276l-39 252h-2q-17 -31 -64.5 -118t-71.5 -134
h177zM476 710l-14 -26l-193 62l-2 8q3 13 18.5 34.5t25.5 25.5q67 -41 165 -104z" />
    <glyph glyph-name="Aacute" unicode="&#xc1;" horiz-adv-x="665" 
d="M622 28l-7 -28h-243l8 28q49 5 60 16.5t6 45.5q-2 14 -23 142h-206q-37 -69 -67 -132q-21 -43 -12 -55t67 -17l-7 -28h-217l8 28q47 7 66 22t54 78l298 527l35 9l26 -166q29 -178 65 -379q10 -57 23.5 -71t65.5 -20zM416 276l-39 252h-2q-17 -31 -64.5 -118t-71.5 -134
h177zM576 754l-3 -8l-192 -63l-13 26q25 16 81.5 52t82.5 53q10 -3 25.5 -24.5t18.5 -35.5z" />
    <glyph glyph-name="Acircumflex" unicode="&#xc2;" horiz-adv-x="665" 
d="M622 28l-7 -28h-243l8 28q49 5 60 16.5t6 45.5q-2 14 -23 142h-206q-37 -69 -67 -132q-21 -43 -12 -55t67 -17l-7 -28h-217l8 28q47 7 66 22t54 78l298 527l35 9l26 -166q29 -178 65 -379q10 -57 23.5 -71t65.5 -20zM416 276l-39 252h-2q-17 -31 -64.5 -118t-71.5 -134
h177zM563 707l-19 -23q-54 22 -109 57q-80 -41 -128 -57l-14 23q72 46 138 106h27q41 -49 105 -106z" />
    <glyph glyph-name="Atilde" unicode="&#xc3;" horiz-adv-x="665" 
d="M622 28l-7 -28h-243l8 28q49 5 60 16.5t6 45.5q-2 14 -23 142h-206q-37 -69 -67 -132q-21 -43 -12 -55t67 -17l-7 -28h-217l8 28q47 7 66 22t54 78l298 527l35 9l26 -166q29 -178 65 -379q10 -57 23.5 -71t65.5 -20zM416 276l-39 252h-2q-17 -31 -64.5 -118t-71.5 -134
h177zM540 794l26 -16q-29 -83 -82 -83q-19 0 -69 23q-30 12 -43 12q-26 0 -48 -44l-25 19q31 82 81 82q21 0 61 -18q37 -17 52 -17q23 0 47 42z" />
    <glyph glyph-name="Adieresis" unicode="&#xc4;" horiz-adv-x="665" 
d="M622 28l-7 -28h-243l8 28q49 5 60 16.5t6 45.5q-2 14 -23 142h-206q-37 -69 -67 -132q-21 -43 -12 -55t67 -17l-7 -28h-217l8 28q47 7 66 22t54 78l298 527l35 9l26 -166q29 -178 65 -379q10 -57 23.5 -71t65.5 -20zM416 276l-39 252h-2q-17 -31 -64.5 -118t-71.5 -134
h177zM340 795q20 0 30.5 -13t10.5 -32q0 -24 -15 -41t-38 -17q-18 0 -30 12.5t-12 31.5q0 22 15 40.5t39 18.5zM530 795q20 0 31 -13t11 -32q0 -24 -15.5 -41t-38.5 -17q-18 0 -30 12.5t-12 31.5q0 22 15 40.5t39 18.5z" />
    <glyph glyph-name="Aring" unicode="&#xc5;" horiz-adv-x="665" 
d="M622 28l-7 -28h-243l8 28q49 5 60 16.5t6 45.5q-2 14 -23 142h-206q-37 -69 -67 -132q-21 -43 -12 -55t67 -17l-7 -28h-217l8 28q47 7 66 22t54 78l298 527l35 9l26 -166q29 -178 65 -379q10 -57 23.5 -71t65.5 -20zM416 276l-39 252h-2q-17 -31 -64.5 -118t-71.5 -134
h177zM523 775q-1 -39 -29.5 -63t-67.5 -24q-36 0 -58.5 22.5t-21.5 57.5q1 41 29.5 66t66.5 25q35 0 58.5 -23t22.5 -61zM477 776q1 22 -9 35.5t-29 13.5q-20 0 -33 -15.5t-14 -39.5q0 -47 39 -47q19 0 32 15t14 38z" />
    <glyph glyph-name="AE" unicode="&#xc6;" horiz-adv-x="863" 
d="M849 498l-30 -2q-2 63 -15 88q-8 18 -28.5 24t-72.5 6h-69q-25 0 -31.5 -5.5t-11.5 -32.5l-45 -240h91q63 0 81 11.5t37 62.5h30l-38 -194h-30q1 55 -12 67t-77 12h-90l-28 -155q-14 -73 5 -89q19 -15 99 -15q55 0 81.5 6t46.5 26q30 28 67 96l29 -11q-55 -141 -61 -153
h-473l6 28q61 5 77.5 19t28.5 76l34 172h-173q-100 -147 -132 -203q-19 -31 -14.5 -43t36.5 -16l31 -5l-7 -28h-232l6 28q49 6 70.5 19t56.5 61q68 92 194 272t134 191q17 25 12.5 32.5t-38.5 11.5l-53 5l9 29h517q-1 -7 -7 -63t-11 -88zM304 336h154l55 277q-13 0 -30 -16
q-78 -110 -179 -261z" />
    <glyph glyph-name="Ccedilla" unicode="&#xc7;" horiz-adv-x="639" 
d="M308 -50l30 36q-120 4 -195.5 79t-75.5 204q0 173 118.5 284t302.5 111q71 0 169 -28q-8 -152 -9 -159l-30 -3q-6 86 -44.5 120t-109.5 34q-126 0 -208 -104.5t-82 -248.5q0 -115 50 -184t139 -69q70 0 119.5 39.5t102.5 119.5l27 -12q-38 -101 -77 -158
q-89 -23 -159 -25l-11 -13q-11 -13 -11 -21t12 -22q32 -38 31 -68t-36.5 -58t-90.5 -44l-10 27q68 30 71 60q1 16 -19 40q-17 19 -18 31.5t14 31.5z" />
    <glyph glyph-name="Egrave" unicode="&#xc8;" horiz-adv-x="561" 
d="M127 649h439q-2 -14 -19 -154l-30 -2q-2 68 -14 89q-9 18 -27 25t-69 7h-72q-26 0 -33 -6.5t-12 -34.5l-41 -214h91q62 0 79 11.5t35 61.5h30l-38 -192h-30q2 56 -9.5 67.5t-74.5 11.5h-91l-33 -175q-14 -76 4 -93q17 -15 98 -15q54 0 81.5 7t47.5 27q29 27 68 95l29 -10
q-38 -100 -62 -155h-472l7 28q60 5 76 19t28 74l78 407q12 60 1.5 74t-72.5 19zM442 711l-14 -26l-193 62l-2 8q3 13 18.5 35t25.5 26q20 -13 77.5 -49t87.5 -56z" />
    <glyph glyph-name="Eacute" unicode="&#xc9;" horiz-adv-x="561" 
d="M127 649h439q-2 -14 -19 -154l-30 -2q-2 68 -14 89q-9 18 -27 25t-69 7h-72q-26 0 -33 -6.5t-12 -34.5l-41 -214h91q62 0 79 11.5t35 61.5h30l-38 -192h-30q2 56 -9.5 67.5t-74.5 11.5h-91l-33 -175q-14 -76 4 -93q17 -15 98 -15q54 0 81.5 7t47.5 27q29 27 68 95l29 -10
q-38 -100 -62 -155h-472l7 28q60 5 76 19t28 74l78 407q12 60 1.5 74t-72.5 19zM519 755l-3 -8l-191 -62l-13 25q25 16 81.5 52t82.5 53q10 -3 25.5 -24.5t17.5 -35.5z" />
    <glyph glyph-name="Ecircumflex" unicode="&#xca;" horiz-adv-x="561" 
d="M127 649h439q-2 -14 -19 -154l-30 -2q-2 68 -14 89q-9 18 -27 25t-69 7h-72q-26 0 -33 -6.5t-12 -34.5l-41 -214h91q62 0 79 11.5t35 61.5h30l-38 -192h-30q2 56 -9.5 67.5t-74.5 11.5h-91l-33 -175q-14 -76 4 -93q17 -15 98 -15q54 0 81.5 7t47.5 27q29 27 68 95l29 -10
q-38 -100 -62 -155h-472l7 28q60 5 76 19t28 74l78 407q12 60 1.5 74t-72.5 19zM510 707l-19 -23q-54 23 -109 57q-79 -40 -128 -57l-14 24q76 49 138 105h27q41 -49 105 -106z" />
    <glyph glyph-name="Edieresis" unicode="&#xcb;" horiz-adv-x="561" 
d="M127 649h439q-2 -14 -19 -154l-30 -2q-2 68 -14 89q-9 18 -27 25t-69 7h-72q-26 0 -33 -6.5t-12 -34.5l-41 -214h91q62 0 79 11.5t35 61.5h30l-38 -192h-30q2 56 -9.5 67.5t-74.5 11.5h-91l-33 -175q-14 -76 4 -93q17 -15 98 -15q54 0 81.5 7t47.5 27q29 27 68 95l29 -10
q-38 -100 -62 -155h-472l7 28q60 5 76 19t28 74l78 407q12 60 1.5 74t-72.5 19zM293 795q20 0 31 -13t11 -32q0 -24 -15.5 -41t-38.5 -17q-18 0 -30 12.5t-12 31.5q0 22 15 40.5t39 18.5zM483 795q20 0 31 -13t11 -32q0 -24 -15.5 -41t-38.5 -17q-18 0 -30 12.5t-12 31.5
q0 22 15 40.5t39 18.5z" />
    <glyph glyph-name="Igrave" unicode="&#xcc;" horiz-adv-x="341" 
d="M386 649l-6 -28q-57 -5 -71.5 -18t-25.5 -69l-80 -415q-11 -58 0.5 -72t72.5 -19l-6 -28h-263l7 28q57 4 72 18.5t26 72.5l81 415q10 55 -1.5 68.5t-73.5 18.5l7 28h261zM334 710l-15 -26l-193 62l-2 8q4 13 19 35t25 25q33 -20 166 -104z" />
    <glyph glyph-name="Iacute" unicode="&#xcd;" horiz-adv-x="341" 
d="M386 649l-6 -28q-57 -5 -71.5 -18t-25.5 -69l-80 -415q-11 -58 0.5 -72t72.5 -19l-6 -28h-263l7 28q57 4 72 18.5t26 72.5l81 415q10 55 -1.5 68.5t-73.5 18.5l7 28h261zM405 754l-3 -8l-191 -63l-14 26q25 16 81.5 52t82.5 53q10 -3 25.5 -24.5t18.5 -35.5z" />
    <glyph glyph-name="Icircumflex" unicode="&#xce;" horiz-adv-x="341" 
d="M386 649l-6 -28q-57 -5 -71.5 -18t-25.5 -69l-80 -415q-11 -58 0.5 -72t72.5 -19l-6 -28h-263l7 28q57 4 72 18.5t26 72.5l81 415q10 55 -1.5 68.5t-73.5 18.5l7 28h261zM396 707l-19 -23q-54 23 -109 57q-73 -37 -128 -57l-13 24q77 50 137 105h27q41 -49 105 -106z" />
    <glyph glyph-name="Idieresis" unicode="&#xcf;" horiz-adv-x="341" 
d="M386 649l-6 -28q-57 -5 -71.5 -18t-25.5 -69l-80 -415q-11 -58 0.5 -72t72.5 -19l-6 -28h-263l7 28q57 4 72 18.5t26 72.5l81 415q10 55 -1.5 68.5t-73.5 18.5l7 28h261zM179 795q19 0 30 -13t11 -32q0 -24 -15 -41t-38 -17q-18 0 -30 12.5t-12 31.5q0 22 15 40.5
t39 18.5zM369 795q20 0 31 -13t11 -32q0 -24 -15.5 -41t-38.5 -17q-18 0 -30 12.5t-12 31.5q0 22 15 40.5t39 18.5z" />
    <glyph glyph-name="Eth" unicode="&#xd0;" horiz-adv-x="723" 
d="M137 649h251q150 0 236 -65.5t86 -202.5q0 -95 -44 -175.5t-123 -130.5q-117 -75 -310 -75h-218l8 28q57 6 72 19.5t27 71.5l38 201h-107l9 39h106l32 167q11 64 0.5 76.5t-71.5 18.5zM250 320l-34 -185q-8 -40 -5.5 -58t17.5 -27q22 -13 66 -13q77 0 138.5 30.5t98.5 81
t56 111.5t19 127q0 103 -53 165.5t-166 62.5q-52 0 -67 -9q-17 -8 -23 -42l-39 -205h153l-9 -39h-152z" />
    <glyph glyph-name="Ntilde" unicode="&#xd1;" horiz-adv-x="705" 
d="M767 649l-6 -28q-44 -2 -60.5 -15t-26.5 -48q-17 -55 -39 -170l-75 -396h-34l-294 526h-3l-51 -260q-21 -108 -25 -168q-2 -34 15 -46t70 -16l-6 -28h-232l7 28q40 2 59 15t29 45q15 46 42 172l50 238q7 43 6 59t-11 34q-9 16 -26.5 22t-57.5 8l7 28h151l289 -500h3
l45 239q22 115 26 171q3 35 -14.5 47t-72.5 15l8 28h227zM554 789l26 -16q-29 -83 -81 -83q-18 0 -70 23q-28 12 -42 12q-26 0 -48 -44l-26 19q33 82 82 82q19 0 61 -18q36 -17 52 -17q23 0 46 42z" />
    <glyph glyph-name="Ograve" unicode="&#xd2;" horiz-adv-x="711" 
d="M431 665q120 0 194 -80t74 -207q0 -163 -104 -278t-262 -115q-119 0 -193 78.5t-74 205.5q0 104 47 194.5t131.5 146t186.5 55.5zM424 629q-72 0 -131.5 -56t-91 -141t-31.5 -175q0 -105 43 -170.5t128 -65.5q76 0 135.5 58.5t88.5 142t29 169.5q0 107 -41 172.5
t-129 65.5zM519 719l-14 -26l-193 62l-2 8q3 13 18.5 34.5t25.5 25.5q33 -21 93 -58.5t72 -45.5z" />
    <glyph glyph-name="Oacute" unicode="&#xd3;" horiz-adv-x="711" 
d="M431 665q120 0 194 -80t74 -207q0 -163 -104 -278t-262 -115q-119 0 -193 78.5t-74 205.5q0 104 47 194.5t131.5 146t186.5 55.5zM424 629q-72 0 -131.5 -56t-91 -141t-31.5 -175q0 -105 43 -170.5t128 -65.5q76 0 135.5 58.5t88.5 142t29 169.5q0 107 -41 172.5
t-129 65.5zM565 763l-2 -8l-192 -62l-13 25q25 16 81.5 52t82.5 53q10 -3 25.5 -24.5t17.5 -35.5z" />
    <glyph glyph-name="Ocircumflex" unicode="&#xd4;" horiz-adv-x="711" 
d="M431 665q120 0 194 -80t74 -207q0 -163 -104 -278t-262 -115q-119 0 -193 78.5t-74 205.5q0 104 47 194.5t131.5 146t186.5 55.5zM424 629q-72 0 -131.5 -56t-91 -141t-31.5 -175q0 -105 43 -170.5t128 -65.5q76 0 135.5 58.5t88.5 142t29 169.5q0 107 -41 172.5
t-129 65.5zM570 715l-19 -23q-54 22 -109 57q-80 -41 -128 -57l-13 24q71 45 137 105h27q41 -49 105 -106z" />
    <glyph glyph-name="Otilde" unicode="&#xd5;" horiz-adv-x="711" 
d="M431 665q120 0 194 -80t74 -207q0 -163 -104 -278t-262 -115q-119 0 -193 78.5t-74 205.5q0 104 47 194.5t131.5 146t186.5 55.5zM424 629q-72 0 -131.5 -56t-91 -141t-31.5 -175q0 -105 43 -170.5t128 -65.5q76 0 135.5 58.5t88.5 142t29 169.5q0 107 -41 172.5
t-129 65.5zM550 803l25 -16q-30 -83 -81 -83q-18 0 -70 23q-26 13 -42 13q-26 0 -48 -45l-26 19q33 82 82 82q21 0 61 -18q37 -16 52 -16q23 0 47 41z" />
    <glyph glyph-name="Odieresis" unicode="&#xd6;" horiz-adv-x="711" 
d="M431 665q120 0 194 -80t74 -207q0 -163 -104 -278t-262 -115q-119 0 -193 78.5t-74 205.5q0 104 47 194.5t131.5 146t186.5 55.5zM424 629q-72 0 -131.5 -56t-91 -141t-31.5 -175q0 -105 43 -170.5t128 -65.5q76 0 135.5 58.5t88.5 142t29 169.5q0 107 -41 172.5
t-129 65.5zM352 804q19 0 30 -13t11 -31q0 -24 -15 -41.5t-38 -17.5q-18 0 -30 12.5t-12 31.5q0 22 15 40.5t39 18.5zM542 804q20 0 31 -13t11 -31q0 -25 -15 -42t-39 -17q-18 0 -30 12.5t-12 31.5q0 22 15 40.5t39 18.5z" />
    <glyph glyph-name="multiply" unicode="&#xd7;" horiz-adv-x="598" 
d="M536 50l-39 -41l-192 198l-193 -198l-38 41l191 197l-191 194l38 41l193 -196l192 198l39 -40l-193 -197z" />
    <glyph glyph-name="Oslash" unicode="&#xd8;" horiz-adv-x="710" 
d="M633 693l29 -22l-52 -71q89 -81 89 -222q0 -164 -105 -278.5t-264 -114.5q-83 0 -145 41l-52 -69l-27 25l50 66q-43 38 -67 95.5t-23 125.5q0 104 47 194.5t132 146t187 55.5q87 0 148 -43zM203 111l340 461q-36 56 -118 56q-75 0 -135 -56t-90.5 -139t-30.5 -172
q0 -97 34 -150zM563 538l-338 -460q41 -57 116 -57q76 0 136 58t89.5 140.5t29.5 168.5q0 95 -33 150z" />
    <glyph glyph-name="Ugrave" unicode="&#xd9;" horiz-adv-x="707" 
d="M776 649l-7 -28q-46 -2 -62.5 -13.5t-26.5 -42.5q-16 -54 -40 -176l-16 -81q-35 -181 -116 -257q-72 -66 -173 -66q-98 0 -156 54q-77 72 -45 242l47 249q11 59 0.5 72.5t-69.5 18.5l7 28h255l-6 -28q-56 -5 -70.5 -18.5t-25.5 -72.5l-46 -244q-24 -126 15.5 -186
t119.5 -60q88 0 141 66.5t81 209.5l15 73q23 122 26 177q1 30 -16.5 41t-72.5 14l7 28h234zM526 710l-14 -26l-193 62l-2 8q3 13 18.5 34.5t24.5 25.5q33 -20 166 -104z" />
    <glyph glyph-name="Uacute" unicode="&#xda;" horiz-adv-x="707" 
d="M776 649l-7 -28q-46 -2 -62.5 -13.5t-26.5 -42.5q-16 -54 -40 -176l-16 -81q-35 -181 -116 -257q-72 -66 -173 -66q-98 0 -156 54q-77 72 -45 242l47 249q11 59 0.5 72.5t-69.5 18.5l7 28h255l-6 -28q-56 -5 -70.5 -18.5t-25.5 -72.5l-46 -244q-24 -126 15.5 -186
t119.5 -60q88 0 141 66.5t81 209.5l15 73q23 122 26 177q1 30 -16.5 41t-72.5 14l7 28h234zM601 754l-3 -8l-191 -63l-14 26q25 16 81.5 52t82.5 53q10 -3 26 -24.5t18 -35.5z" />
    <glyph glyph-name="Ucircumflex" unicode="&#xdb;" horiz-adv-x="707" 
d="M776 649l-7 -28q-46 -2 -62.5 -13.5t-26.5 -42.5q-16 -54 -40 -176l-16 -81q-35 -181 -116 -257q-72 -66 -173 -66q-98 0 -156 54q-77 72 -45 242l47 249q11 59 0.5 72.5t-69.5 18.5l7 28h255l-6 -28q-56 -5 -70.5 -18.5t-25.5 -72.5l-46 -244q-24 -126 15.5 -186
t119.5 -60q88 0 141 66.5t81 209.5l15 73q23 122 26 177q1 30 -16.5 41t-72.5 14l7 28h234zM593 710l-19 -24q-56 24 -109 58q-74 -39 -128 -58l-14 24q77 49 138 106l26 -1q49 -57 106 -105z" />
    <glyph glyph-name="Udieresis" unicode="&#xdc;" horiz-adv-x="707" 
d="M776 649l-7 -28q-46 -2 -62.5 -13.5t-26.5 -42.5q-16 -54 -40 -176l-16 -81q-35 -181 -116 -257q-72 -66 -173 -66q-98 0 -156 54q-77 72 -45 242l47 249q11 59 0.5 72.5t-69.5 18.5l7 28h255l-6 -28q-56 -5 -70.5 -18.5t-25.5 -72.5l-46 -244q-24 -126 15.5 -186
t119.5 -60q88 0 141 66.5t81 209.5l15 73q23 122 26 177q1 30 -16.5 41t-72.5 14l7 28h234zM370 795q20 0 30.5 -13t10.5 -32q0 -24 -15 -41t-38 -17q-18 0 -30 12.5t-12 31.5q0 22 15 40.5t39 18.5zM560 795q20 0 31 -13t11 -32q0 -24 -15.5 -41t-38.5 -17q-18 0 -30 12.5
t-12 31.5q0 22 15 40.5t39 18.5z" />
    <glyph glyph-name="Yacute" unicode="&#xdd;" horiz-adv-x="615" 
d="M690 649l-8 -28q-48 -5 -68 -17.5t-58 -59.5q-46 -58 -161 -222q-17 -25 -25 -58l-28 -138q-13 -63 -0.5 -77.5t80.5 -20.5l-7 -28h-276l7 28q62 5 77.5 19.5t28.5 78.5l26 132q7 29 -5 60q-42 116 -85 230q-17 46 -31.5 57t-61.5 16l8 28h237l-7 -28l-34 -5
q-24 -4 -28.5 -12.5t2.5 -30.5q57 -159 88 -237q111 156 156 232q15 26 10.5 35t-33.5 14l-29 4l8 28h217zM545 754l-3 -8l-191 -63l-14 26q113 72 164 105q11 -3 26.5 -24.5t17.5 -35.5z" />
    <glyph glyph-name="Thorn" unicode="&#xde;" horiz-adv-x="549" 
d="M275 0h-265l6 27q57 6 71.5 18.5t24.5 66.5l81 422q11 55 1 68.5t-67 19.5l7 27h246l-7 -27q-57 -6 -70 -22t-27 -98h70q93 0 146 -39t53 -117q0 -91 -70.5 -143t-167.5 -53q-16 -1 -36 4l-60 16l-11 -58q-10 -53 2.5 -66t79.5 -19zM261 429l-43 -225q40 -14 76 -14
q57 0 104.5 40t47.5 120q0 118 -129 119q-27 0 -41 -7q-11 -4 -15 -33z" />
    <glyph glyph-name="germandbls" unicode="&#xdf;" horiz-adv-x="518" 
d="M80 434h58q15 73 41.5 123.5t74.5 91.5q72 61 149 61q59 0 93 -33.5t34 -87.5q0 -36 -16 -60q-116 -84 -116 -151q0 -29 34 -86q46 -73 46 -123q0 -69 -66 -125t-132 -56q-31 0 -58.5 18t-27.5 39t23 37q13 8 24 -1q45 -42 87 -42q34 0 55 23.5t21 55.5q0 38 -34 98
q-20 31 -27.5 44t-16.5 36t-9 42q0 38 32 78.5t96 96.5q10 25 10 53q0 48 -23 76.5t-61 28.5q-32 0 -57 -20.5t-40.5 -49t-28 -74t-18.5 -78t-13 -79.5q0 -3 -0.5 -5t-1 -4.5t-0.5 -4.5q-18 -111 -37 -221q-41 -236 -130 -325q-31 -32 -62 -48.5t-51 -16.5q-21 0 -39.5 12
t-18.5 29q0 24 27 45q13 10 22 2q28 -22 58 -22q26 0 41 21q29 37 61 242q12 80 27.5 183t20.5 135h-77l-4 13z" />
    <glyph glyph-name="agrave" unicode="&#xe0;" horiz-adv-x="496" 
d="M460 119l13 -24q-39 -48 -84 -77.5t-68 -29.5q-38 0 -20 91l18 88h-2q-53 -75 -123 -133q-57 -46 -96 -46q-24 0 -42 29.5t-18 84.5q0 75 32.5 149t85.5 120q40 34 92 56.5t100 22.5q24 0 62 -7q34 -7 42 -6l3 -4q-35 -137 -69 -323q-8 -43 2 -43q7 0 29.5 16t42.5 36z
M156 57q27 0 90 68.5t87 118.5q14 49 33 147q-25 14 -64 14q-40 0 -67 -19q-48 -36 -76.5 -112.5t-28.5 -152.5q0 -64 26 -64zM366 500l-30 -9q-11 20 -30.5 55.5t-34.5 62t-27 46.5l4 10q8 4 37 9t41 4q6 -27 20 -89t20 -89z" />
    <glyph glyph-name="aacute" unicode="&#xe1;" horiz-adv-x="496" 
d="M460 119l13 -24q-39 -48 -84 -77.5t-68 -29.5q-38 0 -20 91l18 88h-2q-53 -75 -123 -133q-57 -46 -96 -46q-24 0 -42 29.5t-18 84.5q0 75 32.5 149t85.5 120q40 34 92 56.5t100 22.5q24 0 62 -7q34 -7 42 -6l3 -4q-35 -137 -69 -323q-8 -43 2 -43q7 0 29.5 16t42.5 36z
M156 57q27 0 90 68.5t87 118.5q14 49 33 147q-25 14 -64 14q-40 0 -67 -19q-48 -36 -76.5 -112.5t-28.5 -152.5q0 -64 26 -64zM458 661l-158 -170l-25 16q47 75 92 158q10 3 43 6.5t45 2.5z" />
    <glyph glyph-name="acircumflex" unicode="&#xe2;" horiz-adv-x="496" 
d="M460 119l13 -24q-39 -48 -84 -77.5t-68 -29.5q-38 0 -20 91l18 88h-2q-53 -75 -123 -133q-57 -46 -96 -46q-24 0 -42 29.5t-18 84.5q0 75 32.5 149t85.5 120q40 34 92 56.5t100 22.5q24 0 62 -7q34 -7 42 -6l3 -4q-35 -137 -69 -323q-8 -43 2 -43q7 0 29.5 16t42.5 36z
M156 57q27 0 90 68.5t87 118.5q14 49 33 147q-25 14 -64 14q-40 0 -67 -19q-48 -36 -76.5 -112.5t-28.5 -152.5q0 -64 26 -64zM425 507l-25 -18q-27 29 -72 94q-60 -58 -109 -94l-20 19q88 101 130 162h25q22 -70 71 -163z" />
    <glyph glyph-name="atilde" unicode="&#xe3;" horiz-adv-x="496" 
d="M460 119l13 -24q-39 -48 -84 -77.5t-68 -29.5q-38 0 -20 91l18 88h-2q-53 -75 -123 -133q-57 -46 -96 -46q-24 0 -42 29.5t-18 84.5q0 75 32.5 149t85.5 120q40 34 92 56.5t100 22.5q24 0 62 -7q34 -7 42 -6l3 -4q-35 -137 -69 -323q-8 -43 2 -43q7 0 29.5 16t42.5 36z
M156 57q27 0 90 68.5t87 118.5q14 49 33 147q-25 14 -64 14q-40 0 -67 -19q-48 -36 -76.5 -112.5t-28.5 -152.5q0 -64 26 -64zM430 622l25 -13q-33 -88 -82 -88q-15 0 -67 23q-24 12 -44 12q-25 0 -47 -43l-25 16q17 44 39 65t43 21q19 0 59 -18q36 -17 53 -17q21 0 46 42z
" />
    <glyph glyph-name="adieresis" unicode="&#xe4;" horiz-adv-x="496" 
d="M460 119l13 -24q-39 -48 -84 -77.5t-68 -29.5q-38 0 -20 91l18 88h-2q-53 -75 -123 -133q-57 -46 -96 -46q-24 0 -42 29.5t-18 84.5q0 75 32.5 149t85.5 120q40 34 92 56.5t100 22.5q24 0 62 -7q34 -7 42 -6l3 -4q-35 -137 -69 -323q-8 -43 2 -43q7 0 29.5 16t42.5 36z
M156 57q27 0 90 68.5t87 118.5q14 49 33 147q-25 14 -64 14q-40 0 -67 -19q-48 -36 -76.5 -112.5t-28.5 -152.5q0 -64 26 -64zM246 633q20 0 31 -13t11 -31q0 -25 -15 -42t-39 -17q-18 0 -30 12.5t-12 31.5q0 22 15 40.5t39 18.5zM425 633q20 0 31 -13t11 -31q0 -25 -15 -42
t-39 -17q-18 0 -30 12.5t-12 31.5q0 22 15 40.5t39 18.5z" />
    <glyph glyph-name="aring" unicode="&#xe5;" horiz-adv-x="496" 
d="M460 119l13 -24q-39 -48 -84 -77.5t-68 -29.5q-38 0 -20 91l18 88h-2q-53 -75 -123 -133q-57 -46 -96 -46q-24 0 -42 29.5t-18 84.5q0 75 32.5 149t85.5 120q40 34 92 56.5t100 22.5q24 0 62 -7q34 -7 42 -6l3 -4q-35 -137 -69 -323q-8 -43 2 -43q7 0 29.5 16t42.5 36z
M156 57q27 0 90 68.5t87 118.5q14 49 33 147q-25 14 -64 14q-40 0 -67 -19q-48 -36 -76.5 -112.5t-28.5 -152.5q0 -64 26 -64zM334 666q35 0 59.5 -23.5t23.5 -62.5t-30.5 -63.5t-68.5 -24.5q-37 0 -60 23t-22 59q1 41 30 66.5t68 25.5zM331 632q-20 0 -33.5 -16t-14.5 -40
q-1 -22 9.5 -36t29.5 -14q20 0 33.5 16t14.5 40q1 22 -9.5 36t-29.5 14z" />
    <glyph glyph-name="ae" unicode="&#xe6;" horiz-adv-x="668" 
d="M619 130l17 -24q-111 -117 -222 -117q-42 0 -73.5 31.5t-31.5 107.5q0 14 1 23l-2 1q-42 -59 -113 -116q-58 -47 -100 -47q-22 0 -40.5 27t-18.5 84q0 76 31 150.5t82 119.5q38 34 93 57t100 23q22 0 46 -7q22 -2 40 0l4 -5l-14 -56l2 -1q32 31 75 50t77 19q41 0 65 -23
t24 -57q0 -45 -45 -83.5t-101 -60.5t-122 -38q-1 -11 -1 -33q0 -44 17.5 -73.5t55.5 -29.5q75 0 154 78zM298 406q-38 0 -63 -15q-40 -27 -70 -96q-37 -87 -37 -174q0 -61 25 -61q15 0 39 16t48 43q60 66 81 113q10 26 23 81t15 78q-23 15 -61 15zM532 406q-27 0 -49 -15
q-65 -43 -86 -169q98 26 139.5 59t42.5 74q0 25 -13 38t-34 13z" />
    <glyph glyph-name="ccedilla" unicode="&#xe7;" horiz-adv-x="383" 
d="M339 123l14 -24q-68 -76 -145 -100l-20 -25q-10 -14 -9.5 -21.5t12.5 -22.5q32 -37 31 -68t-36.5 -58.5t-90.5 -43.5l-11 26q71 30 72 61q1 17 -19 39q-16 19 -17 31.5t13 31.5l32 39v1q-57 -6 -90 32.5t-33 109.5q0 66 28.5 134.5t77.5 111.5q34 30 81 51.5t86 21.5
q31 0 54 -15.5t23 -34.5q0 -25 -30 -46q-19 -14 -31 4q-30 43 -73 43q-47 0 -80 -59q-45 -84 -45 -185q0 -51 18 -78.5t51 -27.5q57 0 137 72z" />
    <glyph glyph-name="egrave" unicode="&#xe8;" horiz-adv-x="403" 
d="M353 127l17 -23q-107 -116 -215 -116q-46 0 -79.5 33.5t-33.5 113.5q0 73 31.5 143.5t88.5 113.5q74 58 143 58q41 0 65.5 -23.5t24.5 -57.5q0 -110 -262 -178q-2 -12 -2 -31q0 -46 17.5 -77.5t58.5 -31.5q67 0 146 76zM266 408q-22 0 -39 -11q-71 -44 -90 -174
q177 49 177 131q0 25 -13.5 39.5t-34.5 14.5zM318 500l-31 -9q-68 126 -91 164l3 10q8 4 37.5 9t41.5 4q6 -33 40 -178z" />
    <glyph glyph-name="eacute" unicode="&#xe9;" horiz-adv-x="403" 
d="M353 127l17 -23q-107 -116 -215 -116q-46 0 -79.5 33.5t-33.5 113.5q0 73 31.5 143.5t88.5 113.5q74 58 143 58q41 0 65.5 -23.5t24.5 -57.5q0 -110 -262 -178q-2 -12 -2 -31q0 -46 17.5 -77.5t58.5 -31.5q67 0 146 76zM266 408q-22 0 -39 -11q-71 -44 -90 -174
q177 49 177 131q0 25 -13.5 39.5t-34.5 14.5zM418 661l-158 -170l-25 16q47 75 92 158q10 3 43 6.5t45 2.5z" />
    <glyph glyph-name="ecircumflex" unicode="&#xea;" horiz-adv-x="403" 
d="M353 127l17 -23q-107 -116 -215 -116q-46 0 -79.5 33.5t-33.5 113.5q0 73 31.5 143.5t88.5 113.5q74 58 143 58q41 0 65.5 -23.5t24.5 -57.5q0 -110 -262 -178q-2 -12 -2 -31q0 -46 17.5 -77.5t58.5 -31.5q67 0 146 76zM266 408q-22 0 -39 -11q-71 -44 -90 -174
q177 49 177 131q0 25 -13.5 39.5t-34.5 14.5zM381 507l-24 -18q-27 29 -72 94q-60 -58 -109 -94l-21 19q81 91 131 162h24q26 -77 71 -163z" />
    <glyph glyph-name="edieresis" unicode="&#xeb;" horiz-adv-x="403" 
d="M353 127l17 -23q-107 -116 -215 -116q-46 0 -79.5 33.5t-33.5 113.5q0 73 31.5 143.5t88.5 113.5q74 58 143 58q41 0 65.5 -23.5t24.5 -57.5q0 -110 -262 -178q-2 -12 -2 -31q0 -46 17.5 -77.5t58.5 -31.5q67 0 146 76zM266 408q-22 0 -39 -11q-71 -44 -90 -174
q177 49 177 131q0 25 -13.5 39.5t-34.5 14.5zM201 633q20 0 31 -13t11 -31q0 -25 -15 -42t-39 -17q-18 0 -30 12.5t-12 31.5q0 22 15 40.5t39 18.5zM380 633q20 0 31 -13t11 -31q0 -25 -15 -42t-39 -17q-18 0 -30 12.5t-12 31.5q0 22 15 40.5t39 18.5z" />
    <glyph glyph-name="igrave" unicode="&#xec;" horiz-adv-x="278" 
d="M230 112l14 -22q-31 -37 -78.5 -69.5t-72.5 -32.5q-41 0 -17 100l61 250q7 33 -1 33q-16 0 -67 -42l-12 24q42 41 88 69t68 28q33 0 12 -82l-66 -268q-8 -34 2 -34q17 0 69 46zM232 500l-30 -9q-11 20 -30.5 55.5t-34.5 62t-27 46.5l4 10q7 4 36.5 9t41.5 4
q6 -29 20.5 -93t19.5 -85z" />
    <glyph glyph-name="iacute" unicode="&#xed;" horiz-adv-x="278" 
d="M230 112l14 -22q-31 -37 -78.5 -69.5t-72.5 -32.5q-41 0 -17 100l61 250q7 33 -1 33q-16 0 -67 -42l-12 24q42 41 88 69t68 28q33 0 12 -82l-66 -268q-8 -34 2 -34q17 0 69 46zM340 661l-158 -170l-25 16q47 75 92 158q10 3 43 6.5t45 2.5z" />
    <glyph glyph-name="icircumflex" unicode="&#xee;" horiz-adv-x="278" 
d="M230 112l14 -22q-31 -37 -78.5 -69.5t-72.5 -32.5q-41 0 -17 100l61 250q7 33 -1 33q-16 0 -67 -42l-12 24q42 41 88 69t68 28q33 0 12 -82l-66 -268q-8 -34 2 -34q17 0 69 46zM303 507l-25 -18q-35 38 -71 94q-65 -61 -109 -94l-21 19q88 101 131 162h24q26 -77 71 -163
z" />
    <glyph glyph-name="idieresis" unicode="&#xef;" horiz-adv-x="278" 
d="M230 112l14 -22q-31 -37 -78.5 -69.5t-72.5 -32.5q-41 0 -17 100l61 250q7 33 -1 33q-16 0 -67 -42l-12 24q42 41 88 69t68 28q33 0 12 -82l-66 -268q-8 -34 2 -34q17 0 69 46zM129 633q20 0 31 -13t11 -31q0 -25 -15 -42t-39 -17q-18 0 -30 12.5t-12 31.5q0 22 15 40.5
t39 18.5zM308 633q20 0 31 -13t11 -31q0 -25 -15 -42t-39 -17q-18 0 -30 12.5t-12 31.5q0 22 15 40.5t39 18.5z" />
    <glyph glyph-name="eth" unicode="&#xf0;" horiz-adv-x="470" 
d="M478 651l-115 -62q84 -110 84 -251q0 -86 -29.5 -162.5t-81.5 -121.5q-33 -30 -76 -48t-82 -18q-66 0 -98 46t-32 109q0 95 42.5 165t101.5 104q70 39 124 37q14 0 38 -7q-1 22 -16 57.5t-30 59.5l-143 -75l-15 32l136 72q-17 24 -55.5 54t-72.5 41q0 17 13 27
q37 -6 84.5 -32.5t81.5 -61.5l124 66zM215 29q15 0 27 6q40 15 79 96.5t38 201.5q0 42 -18 57q-24 20 -59 20q-24 0 -47 -13q-31 -15 -63.5 -78t-32.5 -163q0 -56 19.5 -91.5t56.5 -35.5z" />
    <glyph glyph-name="ntilde" unicode="&#xf1;" horiz-adv-x="535" 
d="M485 112l15 -25q-43 -47 -83.5 -73t-63.5 -26q-42 0 -17 105q18 73 52 219q16 70 -7 70q-30 0 -96.5 -68.5t-104.5 -132.5q-28 -116 -40 -173q-43 -6 -79 -20l-7 8q39 150 81 337q9 40 -2 40q-7 0 -26.5 -13.5t-37.5 -31.5l-13 26q42 44 82.5 70t63.5 26q37 0 10 -114
l-19 -80h2q80 110 177 170q40 24 69 24q60 0 25 -145q-15 -67 -47 -203q-9 -36 2 -36q7 0 26 13t38 33zM440 622l25 -13q-33 -88 -82 -88q-8 0 -17 2.5t-15 5l-18 7.5t-18 8q-23 12 -43 12q-24 0 -48 -43l-24 16q33 86 82 86q19 0 59 -18q36 -17 53 -17q21 0 46 42z" />
    <glyph glyph-name="ograve" unicode="&#xf2;" horiz-adv-x="474" 
d="M180 -12q-69 0 -102 45t-33 112q0 93 43 165.5t108 106.5q61 33 113 33q64 0 99.5 -41.5t35.5 -115.5q0 -67 -28 -133t-79 -109q-75 -63 -157 -63zM217 29q16 0 31 6q41 17 73 90.5t31 167.5q0 58 -21 88t-56 30q-18 0 -36 -8q-35 -17 -68.5 -84t-33.5 -171
q0 -55 21.5 -87t58.5 -32zM339 500l-30 -9q-49 90 -91 164l3 10q8 4 37 9t41 4q6 -27 20 -89t20 -89z" />
    <glyph glyph-name="oacute" unicode="&#xf3;" horiz-adv-x="474" 
d="M180 -12q-69 0 -102 45t-33 112q0 93 43 165.5t108 106.5q61 33 113 33q64 0 99.5 -41.5t35.5 -115.5q0 -67 -28 -133t-79 -109q-75 -63 -157 -63zM217 29q16 0 31 6q41 17 73 90.5t31 167.5q0 58 -21 88t-56 30q-18 0 -36 -8q-35 -17 -68.5 -84t-33.5 -171
q0 -55 21.5 -87t58.5 -32zM428 661l-158 -170l-25 16q47 75 92 158q10 3 43 6.5t45 2.5z" />
    <glyph glyph-name="ocircumflex" unicode="&#xf4;" horiz-adv-x="474" 
d="M180 -12q-69 0 -102 45t-33 112q0 93 43 165.5t108 106.5q61 33 113 33q64 0 99.5 -41.5t35.5 -115.5q0 -67 -28 -133t-79 -109q-75 -63 -157 -63zM217 29q16 0 31 6q41 17 73 90.5t31 167.5q0 58 -21 88t-56 30q-18 0 -36 -8q-35 -17 -68.5 -84t-33.5 -171
q0 -55 21.5 -87t58.5 -32zM410 507l-25 -18q-27 29 -72 94q-60 -58 -109 -94l-21 19q87 97 131 162h25q22 -70 71 -163z" />
    <glyph glyph-name="otilde" unicode="&#xf5;" horiz-adv-x="474" 
d="M180 -12q-69 0 -102 45t-33 112q0 93 43 165.5t108 106.5q61 33 113 33q64 0 99.5 -41.5t35.5 -115.5q0 -67 -28 -133t-79 -109q-75 -63 -157 -63zM217 29q16 0 31 6q41 17 73 90.5t31 167.5q0 58 -21 88t-56 30q-18 0 -36 -8q-35 -17 -68.5 -84t-33.5 -171
q0 -55 21.5 -87t58.5 -32zM414 622l25 -13q-33 -88 -82 -88q-8 0 -17 2.5t-15 5l-18 7.5t-18 8q-23 12 -43 12q-24 0 -48 -43l-24 16q33 86 82 86q19 0 59 -18q36 -17 53 -17q21 0 46 42z" />
    <glyph glyph-name="odieresis" unicode="&#xf6;" horiz-adv-x="474" 
d="M180 -12q-69 0 -102 45t-33 112q0 93 43 165.5t108 106.5q61 33 113 33q64 0 99.5 -41.5t35.5 -115.5q0 -67 -28 -133t-79 -109q-75 -63 -157 -63zM217 29q16 0 31 6q41 17 73 90.5t31 167.5q0 58 -21 88t-56 30q-18 0 -36 -8q-35 -17 -68.5 -84t-33.5 -171
q0 -55 21.5 -87t58.5 -32zM228 633q20 0 31 -13t11 -31q0 -25 -15 -42t-39 -17q-18 0 -30 12.5t-12 31.5q0 22 15 40.5t39 18.5zM407 633q20 0 31 -13t11 -31q0 -25 -15 -42t-39 -17q-18 0 -30 12.5t-12 31.5q0 22 15 40.5t39 18.5z" />
    <glyph glyph-name="divide" unicode="&#xf7;" horiz-adv-x="598" 
d="M311 353q-20 0 -35.5 15t-15.5 36q0 20 15.5 35.5t35.5 15.5q21 0 36.5 -15.5t15.5 -35.5q0 -21 -15 -36t-37 -15zM553 228h-486v52h486v-52zM310 155q19 0 35 -15t16 -35t-16 -35.5t-35 -15.5q-21 0 -36 15t-15 36t14.5 35.5t36.5 14.5z" />
    <glyph glyph-name="oslash" unicode="&#xf8;" horiz-adv-x="476" 
d="M420 483l25 -19l-38 -51q39 -42 39 -123q0 -64 -28.5 -129.5t-77.5 -107.5q-32 -28 -76.5 -46.5t-85.5 -18.5q-42 0 -69 18l-39 -52l-24 22l37 50q-38 42 -38 119q0 93 41.5 163.5t104.5 105.5q66 36 120 36q43 0 71 -18zM139 100l201 273q-18 37 -62 37q-20 0 -37 -7
q-37 -15 -73 -80t-37 -168q0 -21 8 -55zM354 338l-201 -271q20 -39 58 -39q17 0 35 7q42 17 78.5 89.5t35.5 166.5q0 29 -6 47z" />
    <glyph glyph-name="ugrave" unicode="&#xf9;" horiz-adv-x="535" 
d="M495 116l14 -24q-38 -45 -82 -74.5t-68 -29.5q-42 0 -18 105q8 31 18 84h-2q-74 -102 -159 -160q-41 -29 -79 -29q-64 0 -34 131q7 30 25 105t27 116q8 35 -2 35q-13 0 -68 -46l-12 26q43 42 86 68.5t66 26.5q18 0 21.5 -19t-8.5 -71l-54 -234q-15 -66 11 -66
q37 0 101 69t96 128q2 8 15.5 69t21.5 98l77 26h11q-51 -208 -77 -344q-8 -40 3 -40q7 0 29.5 15.5t40.5 34.5zM363 500l-31 -9q-68 126 -91 164l3 10q8 4 37.5 9t41.5 4q6 -33 40 -178z" />
    <glyph glyph-name="uacute" unicode="&#xfa;" horiz-adv-x="535" 
d="M495 116l14 -24q-38 -45 -82 -74.5t-68 -29.5q-42 0 -18 105q8 31 18 84h-2q-74 -102 -159 -160q-41 -29 -79 -29q-64 0 -34 131q7 30 25 105t27 116q8 35 -2 35q-13 0 -68 -46l-12 26q43 42 86 68.5t66 26.5q18 0 21.5 -19t-8.5 -71l-54 -234q-15 -66 11 -66
q37 0 101 69t96 128q2 8 15.5 69t21.5 98l77 26h11q-51 -208 -77 -344q-8 -40 3 -40q7 0 29.5 15.5t40.5 34.5zM470 661l-158 -170l-25 16q47 75 92 158q10 3 43 6.5t45 2.5z" />
    <glyph glyph-name="ucircumflex" unicode="&#xfb;" horiz-adv-x="535" 
d="M495 116l14 -24q-38 -45 -82 -74.5t-68 -29.5q-42 0 -18 105q8 31 18 84h-2q-74 -102 -159 -160q-41 -29 -79 -29q-64 0 -34 131q7 30 25 105t27 116q8 35 -2 35q-13 0 -68 -46l-12 26q43 42 86 68.5t66 26.5q18 0 21.5 -19t-8.5 -71l-54 -234q-15 -66 11 -66
q37 0 101 69t96 128q2 8 15.5 69t21.5 98l77 26h11q-51 -208 -77 -344q-8 -40 3 -40q7 0 29.5 15.5t40.5 34.5zM439 507l-24 -18q-27 29 -72 94q-56 -54 -109 -94l-21 19q88 101 131 162h24q26 -77 71 -163z" />
    <glyph glyph-name="udieresis" unicode="&#xfc;" horiz-adv-x="535" 
d="M495 116l14 -24q-38 -45 -82 -74.5t-68 -29.5q-42 0 -18 105q8 31 18 84h-2q-74 -102 -159 -160q-41 -29 -79 -29q-64 0 -34 131q7 30 25 105t27 116q8 35 -2 35q-13 0 -68 -46l-12 26q43 42 86 68.5t66 26.5q18 0 21.5 -19t-8.5 -71l-54 -234q-15 -66 11 -66
q37 0 101 69t96 128q2 8 15.5 69t21.5 98l77 26h11q-51 -208 -77 -344q-8 -40 3 -40q7 0 29.5 15.5t40.5 34.5zM258 633q20 0 31 -13t11 -31q0 -25 -15 -42t-39 -17q-18 0 -30 12.5t-12 31.5q0 22 15 40.5t39 18.5zM437 633q20 0 31 -13t11 -31q0 -25 -15 -42t-39 -17
q-18 0 -30 12.5t-12 31.5q0 22 15 40.5t39 18.5z" />
    <glyph glyph-name="yacute" unicode="&#xfd;" horiz-adv-x="447" 
d="M245 79h2q130 196 130 268q0 19 -12 48q-5 12 2 27q14 28 44 28q18 0 30 -15.5t12 -41.5q2 -43 -36 -107q-70 -126 -177 -276q-108 -155 -182 -237l-109 -28l-8 23q136 89 233 218q-2 131 -32 328q-9 59 -21 59q-7 0 -23 -16t-34 -41l-18 24q29 45 63 77.5t60 32.5
q41 0 54 -121q14 -106 22 -250zM437 661l-158 -170l-25 16q47 75 92 158q10 3 43 6.5t45 2.5z" />
    <glyph glyph-name="thorn" unicode="&#xfe;" horiz-adv-x="496" 
d="M184 303h2q61 75 118.5 111t96.5 36q31 0 52 -30t21 -85q0 -86 -41.5 -166.5t-107.5 -126.5q-37 -27 -79 -40.5t-58 -13.5q-37 0 -64 16q-4 -22 -13 -67t-13 -69q-9 -46 0 -60t50 -18l24 -2l-3 -27l-244 -12l3 28q47 9 61.5 23.5t26.5 68.5q87 420 145 709q8 48 0.5 58
t-47.5 11h-22l3 27q35 4 71.5 13t60 16t28.5 7q16 2 9 -28zM349 388q-29 0 -78.5 -40t-95.5 -110q-9 -35 -37 -172q11 -12 31.5 -22.5t43.5 -10.5q37 0 64 18q36 24 70.5 102t34.5 164q0 71 -33 71z" />
    <glyph glyph-name="ydieresis" unicode="&#xff;" horiz-adv-x="447" 
d="M245 79h2q130 196 130 268q0 19 -12 48q-5 12 2 27q14 28 44 28q18 0 30 -15.5t12 -41.5q2 -43 -36 -107q-70 -126 -177 -276q-108 -155 -182 -237l-109 -28l-8 23q136 89 233 218q-2 131 -32 328q-9 59 -21 59q-7 0 -23 -16t-34 -41l-18 24q29 45 63 77.5t60 32.5
q41 0 54 -121q14 -106 22 -250zM218 633q20 0 31 -13t11 -31q0 -25 -15 -42t-39 -17q-18 0 -30 12.5t-12 31.5q0 22 15 40.5t39 18.5zM397 633q20 0 31 -13t11 -31q0 -25 -15 -42t-39 -17q-18 0 -30 12.5t-12 31.5q0 22 15 40.5t39 18.5z" />
    <glyph glyph-name="Amacron" unicode="&#x100;" horiz-adv-x="665" 
d="M622 28l-7 -28h-243l8 28q49 5 60 16.5t6 45.5q-2 14 -23 142h-206q-37 -69 -67 -132q-21 -43 -12 -55t67 -17l-7 -28h-217l8 28q47 7 66 22t54 78l298 527l35 9l26 -166q29 -178 65 -379q10 -57 23.5 -71t65.5 -20zM416 276l-39 252h-2q-17 -31 -64.5 -118t-71.5 -134
h177zM555 765l-14 -54h-229l15 54h228z" />
    <glyph glyph-name="amacron" unicode="&#x101;" horiz-adv-x="496" 
d="M460 119l13 -24q-39 -48 -84 -77.5t-68 -29.5q-38 0 -20 91l18 88h-2q-53 -75 -123 -133q-57 -46 -96 -46q-24 0 -42 29.5t-18 84.5q0 75 32.5 149t85.5 120q40 34 92 56.5t100 22.5q24 0 62 -7q34 -7 42 -6l3 -4q-35 -137 -69 -323q-8 -43 2 -43q7 0 29.5 16t42.5 36z
M156 57q27 0 90 68.5t87 118.5q14 49 33 147q-25 14 -64 14q-40 0 -67 -19q-48 -36 -76.5 -112.5t-28.5 -152.5q0 -64 26 -64zM445 599l-13 -55h-226l14 55h225z" />
    <glyph glyph-name="Abreve" unicode="&#x102;" horiz-adv-x="665" 
d="M622 28l-7 -28h-243l8 28q49 5 60 16.5t6 45.5q-2 14 -23 142h-206q-37 -69 -67 -132q-21 -43 -12 -55t67 -17l-7 -28h-217l8 28q47 7 66 22t54 78l298 527l35 9l26 -166q29 -178 65 -379q10 -57 23.5 -71t65.5 -20zM416 276l-39 252h-2q-17 -31 -64.5 -118t-71.5 -134
h177zM530 810h31q-10 -57 -45.5 -88t-89.5 -31q-52 0 -79.5 31t-22.5 88h31q11 -59 78 -59t97 59z" />
    <glyph glyph-name="abreve" unicode="&#x103;" horiz-adv-x="496" 
d="M460 119l13 -24q-39 -48 -84 -77.5t-68 -29.5q-38 0 -20 91l18 88h-2q-53 -75 -123 -133q-57 -46 -96 -46q-24 0 -42 29.5t-18 84.5q0 75 32.5 149t85.5 120q40 34 92 56.5t100 22.5q24 0 62 -7q34 -7 42 -6l3 -4q-35 -137 -69 -323q-8 -43 2 -43q7 0 29.5 16t42.5 36z
M156 57q27 0 90 68.5t87 118.5q14 49 33 147q-25 14 -64 14q-40 0 -67 -19q-48 -36 -76.5 -112.5t-28.5 -152.5q0 -64 26 -64zM421 642h28q-11 -71 -47.5 -102t-85.5 -31q-50 0 -77 31t-14 102h28q1 -35 19.5 -54t51.5 -19t58.5 19.5t38.5 53.5z" />
    <glyph glyph-name="Aogonek" unicode="&#x104;" horiz-adv-x="665" 
d="M622 28l-7 -28h-155q-43 -35 -66.5 -75t-23.5 -72q0 -16 11 -26t28 -10q19 0 51 13l7 -28l-57 -32q-20 -11 -43 -11q-31 0 -50.5 18.5t-19.5 50.5q0 50 38.5 97.5t102.5 102.5q14 12 11 32q-3 30 -26 172h-206q-6 -11 -30 -58.5t-37 -73.5q-20 -43 -11 -55t67 -17l-7 -28
h-218l8 28q47 7 66 22t54 78l298 527l35 9l26 -166q29 -178 65 -379q10 -57 23.5 -71t65.5 -20zM239 276h177l-38 252h-2q-14 -27 -63 -115.5t-74 -136.5z" />
    <glyph glyph-name="aogonek" unicode="&#x105;" horiz-adv-x="495" 
d="M318 167h-2q-56 -79 -123 -133q-56 -46 -95 -46q-24 0 -42 29t-18 85q0 75 32.5 149t85.5 120q40 34 91.5 56.5t99.5 22.5q23 0 62 -7q26 -7 41 -7l4 -4q-34 -133 -69 -322q-7 -42 2 -42q7 0 29.5 15.5t42.5 35.5l13 -25q-71 -85 -137 -102q-37 -29 -65 -70.5t-28 -69.5
q0 -16 10 -25.5t27 -9.5q15 0 46 11l7 -27l-54 -30q-17 -10 -39 -10q-29 0 -49 17.5t-20 47.5q0 72 131 175q-13 16 -1 78zM302 405q-41 0 -67 -20q-48 -35 -76.5 -111t-28.5 -152q0 -62 25 -62q28 0 90 67.5t86 117.5q19 67 34 146q-28 14 -63 14z" />
    <glyph glyph-name="Cacute" unicode="&#x106;" horiz-adv-x="638" 
d="M584 177l27 -14q-38 -91 -79 -153q-97 -25 -173 -25q-130 0 -212 75.5t-82 211.5q0 175 120.5 284t297.5 109q82 0 172 -32q-4 -110 -8 -156l-31 -3q-6 86 -43 120t-112 34q-125 0 -207 -104.5t-82 -248.5q0 -112 52 -183t145 -71q67 0 116 39.5t99 116.5zM591 769l-2 -8
l-192 -63l-13 26q25 16 81.5 52t82.5 53q10 -3 25.5 -24.5t17.5 -35.5z" />
    <glyph glyph-name="cacute" unicode="&#x107;" horiz-adv-x="385" 
d="M339 123l15 -23q-45 -53 -100 -82.5t-101 -29.5q-51 0 -80.5 38.5t-29.5 108.5q0 65 28 131t76 110q33 30 79.5 52t82.5 22q32 0 55 -15.5t23 -35.5q2 -30 -34 -49q-14 -9 -23 5q-34 47 -76 47q-45 0 -78 -63q-42 -77 -42 -181q0 -53 18.5 -80t50.5 -27q34 0 72.5 23
t63.5 49zM421 661l-158 -170l-25 16q47 75 92 158q10 3 43 6.5t45 2.5z" />
    <glyph glyph-name="Ccircumflex" unicode="&#x108;" horiz-adv-x="638" 
d="M584 177l27 -14q-38 -91 -79 -153q-97 -25 -173 -25q-130 0 -212 75.5t-82 211.5q0 175 120.5 284t297.5 109q82 0 172 -32q-4 -110 -8 -156l-31 -3q-6 86 -43 120t-112 34q-125 0 -207 -104.5t-82 -248.5q0 -112 52 -183t145 -71q67 0 116 39.5t99 116.5zM590 720
l-19 -23q-54 22 -109 57q-80 -41 -128 -57l-13 24q71 45 137 105h27q41 -49 105 -106z" />
    <glyph glyph-name="ccircumflex" unicode="&#x109;" horiz-adv-x="385" 
d="M339 123l15 -23q-45 -53 -100 -82.5t-101 -29.5q-51 0 -80.5 38.5t-29.5 108.5q0 65 28 131t76 110q33 30 79.5 52t82.5 22q32 0 55 -15.5t23 -35.5q2 -30 -34 -49q-14 -9 -23 5q-34 47 -76 47q-45 0 -78 -63q-42 -77 -42 -181q0 -53 18.5 -80t50.5 -27q34 0 72.5 23
t63.5 49zM394 507l-25 -18q-27 29 -72 94q-60 -58 -109 -94l-21 19q87 97 131 162h25q22 -70 71 -163z" />
    <glyph glyph-name="Cdotaccent" unicode="&#x10a;" horiz-adv-x="638" 
d="M584 177l27 -14q-38 -91 -79 -153q-97 -25 -173 -25q-130 0 -212 75.5t-82 211.5q0 175 120.5 284t297.5 109q82 0 172 -32q-4 -110 -8 -156l-31 -3q-6 86 -43 120t-112 34q-125 0 -207 -104.5t-82 -248.5q0 -112 52 -183t145 -71q67 0 116 39.5t99 116.5zM466 818
q21 0 32.5 -14t11.5 -34q0 -25 -16 -43t-40 -18q-20 0 -32.5 13t-12.5 34q0 22 16 42t41 20z" />
    <glyph glyph-name="cdotaccent" unicode="&#x10b;" horiz-adv-x="385" 
d="M339 123l15 -23q-45 -53 -100 -82.5t-101 -29.5q-51 0 -80.5 38.5t-29.5 108.5q0 65 28 131t76 110q33 30 79.5 52t82.5 22q32 0 55 -15.5t23 -35.5q2 -30 -34 -49q-14 -9 -23 5q-34 47 -76 47q-45 0 -78 -63q-42 -77 -42 -181q0 -53 18.5 -80t50.5 -27q34 0 72.5 23
t63.5 49zM298 638q21 0 32.5 -13.5t11.5 -34.5q0 -25 -16 -43t-40 -18q-20 0 -32.5 13t-12.5 34q0 22 16 42t41 20z" />
    <glyph glyph-name="Ccaron" unicode="&#x10c;" horiz-adv-x="638" 
d="M584 177l27 -14q-38 -91 -79 -153q-97 -25 -173 -25q-130 0 -212 75.5t-82 211.5q0 175 120.5 284t297.5 109q82 0 172 -32q-4 -110 -8 -156l-31 -3q-6 86 -43 120t-112 34q-125 0 -207 -104.5t-82 -248.5q0 -112 52 -183t145 -71q67 0 116 39.5t99 116.5zM589 831
l15 -22q-84 -57 -138 -107h-27q-46 56 -104 107l19 22q54 -23 108 -57q77 40 127 57z" />
    <glyph glyph-name="ccaron" unicode="&#x10d;" horiz-adv-x="385" 
d="M339 123l15 -23q-45 -53 -100 -82.5t-101 -29.5q-51 0 -80.5 38.5t-29.5 108.5q0 65 28 131t76 110q33 30 79.5 52t82.5 22q32 0 55 -15.5t23 -35.5q2 -30 -34 -49q-14 -9 -23 5q-34 47 -76 47q-45 0 -78 -63q-42 -77 -42 -181q0 -53 18.5 -80t50.5 -27q34 0 72.5 23
t63.5 49zM396 674l23 -19q-87 -97 -131 -162h-24q-28 78 -72 163l26 18q34 -39 70 -94q63 59 108 94z" />
    <glyph glyph-name="Dcaron" unicode="&#x10e;" horiz-adv-x="712" 
d="M129 649h250q153 0 238 -66.5t85 -205.5q0 -94 -43 -174t-122 -129q-118 -74 -309 -74h-220l7 28q57 6 72 20.5t26 72.5l78 405q11 60 1 74t-70 21zM287 554l-80 -423q-7 -37 -4.5 -54.5t15.5 -25.5q22 -14 68 -14q142 1 226.5 100.5t84.5 245.5q0 110 -59.5 170.5
t-166.5 61.5q-47 0 -63 -11q-13 -8 -21 -50zM549 817l14 -23q-85 -58 -138 -107l-26 1q-41 49 -105 106l20 23q57 -25 108 -58q71 38 127 58z" />
    <glyph glyph-name="dcaron" unicode="&#x10f;" horiz-adv-x="513" 
d="M476 115l14 -24q-38 -46 -83 -74.5t-69 -28.5q-39 0 -20 94l17 81h-2q-48 -66 -128 -130q-59 -45 -97 -45q-29 0 -49 31.5t-20 89.5q0 72 31.5 145t85.5 119q35 31 88.5 54t88.5 23q31 0 59 -10l32 159q7 33 0.5 41.5t-39.5 8.5h-30l3 26q38 4 74.5 13t57.5 15.5t27 6.5
q14 0 7 -29q-74 -320 -122 -580q-7 -35 4 -35q19 0 70 49zM161 57q34 0 96 64t91 116l31 143q-28 26 -79 26q-38 0 -65 -19q-46 -34 -75 -112.5t-29 -145.5q0 -35 8.5 -53.5t21.5 -18.5zM613 709q23 0 37 -18.5t14 -47.5q0 -44 -30 -73.5t-74 -42.5l-11 27q58 28 58 61
q0 23 -25 35q-10 5 -10 21q0 15 12.5 26.5t28.5 11.5z" />
    <glyph glyph-name="Dcroat" unicode="&#x110;" horiz-adv-x="723" 
d="M137 649h251q150 0 236 -65.5t86 -202.5q0 -95 -44 -175.5t-123 -130.5q-117 -75 -310 -75h-218l8 28q57 6 72 19.5t27 71.5l38 201h-107l9 39h106l32 167q11 64 0.5 76.5t-71.5 18.5zM250 320l-34 -185q-8 -40 -5.5 -58t17.5 -27q22 -13 66 -13q77 0 138.5 30.5t98.5 81
t56 111.5t19 127q0 103 -53 165.5t-166 62.5q-52 0 -67 -9q-17 -8 -23 -42l-39 -205h153l-9 -39h-152z" />
    <glyph glyph-name="dcroat" unicode="&#x111;" horiz-adv-x="513" 
d="M577 569l-9 -37h-76q-44 -194 -88 -431q-7 -35 4 -35q9 0 30 14.5t40 34.5l13 -23q-38 -47 -81.5 -75.5t-68.5 -28.5q-40 0 -22 89l18 87h-2q-53 -71 -128 -130q-59 -46 -101 -46q-28 0 -48 32t-20 89q0 72 31 145t85 119q36 30 91 53.5t90 23.5q31 0 59 -10l19 92h-133
l9 37h131l6 31q6 32 -1 40.5t-41 9.5h-26l2 25q38 4 74.5 13t57.5 15.5t27 6.5q13 0 7 -29q-20 -86 -26 -112h77zM302 406q-40 0 -68 -19q-47 -33 -75.5 -111.5t-28.5 -146.5q0 -72 30 -72q36 0 99 65t92 118l30 140q-28 26 -79 26z" />
    <glyph glyph-name="Emacron" unicode="&#x112;" horiz-adv-x="561" 
d="M127 649h439q-2 -14 -19 -154l-30 -2q-2 68 -14 89q-9 18 -27 25t-69 7h-72q-26 0 -33 -6.5t-12 -34.5l-41 -214h91q62 0 79 11.5t35 61.5h30l-38 -192h-30q2 56 -9.5 67.5t-74.5 11.5h-91l-33 -175q-14 -76 4 -93q17 -15 98 -15q54 0 81.5 7t47.5 27q29 27 68 95l29 -10
q-38 -100 -62 -155h-472l7 28q60 5 76 19t28 74l78 407q12 60 1.5 74t-72.5 19zM503 769l-14 -54h-229l14 54h229z" />
    <glyph glyph-name="emacron" unicode="&#x113;" horiz-adv-x="403" 
d="M353 127l17 -23q-107 -116 -215 -116q-46 0 -79.5 33.5t-33.5 113.5q0 73 31.5 143.5t88.5 113.5q74 58 143 58q41 0 65.5 -23.5t24.5 -57.5q0 -110 -262 -178q-2 -12 -2 -31q0 -46 17.5 -77.5t58.5 -31.5q67 0 146 76zM266 408q-22 0 -39 -11q-71 -44 -90 -174
q177 49 177 131q0 25 -13.5 39.5t-34.5 14.5zM400 599l-13 -55h-226l13 55h226z" />
    <glyph glyph-name="Ebreve" unicode="&#x114;" horiz-adv-x="561" 
d="M127 649h439q-2 -14 -19 -154l-30 -2q-2 68 -14 89q-9 18 -27 25t-69 7h-72q-26 0 -33 -6.5t-12 -34.5l-41 -214h91q62 0 79 11.5t35 61.5h30l-38 -192h-30q2 56 -9.5 67.5t-74.5 11.5h-91l-33 -175q-14 -76 4 -93q17 -15 98 -15q54 0 81.5 7t47.5 27q29 27 68 95l29 -10
q-38 -100 -62 -155h-472l7 28q60 5 76 19t28 74l78 407q12 60 1.5 74t-72.5 19zM483 812h32q-10 -57 -45.5 -88t-90.5 -31q-53 0 -80 31t-21 88h31q10 -59 78 -59q67 0 96 59z" />
    <glyph glyph-name="ebreve" unicode="&#x115;" horiz-adv-x="403" 
d="M353 127l17 -23q-107 -116 -215 -116q-46 0 -79.5 33.5t-33.5 113.5q0 73 31.5 143.5t88.5 113.5q74 58 143 58q41 0 65.5 -23.5t24.5 -57.5q0 -110 -262 -178q-2 -12 -2 -31q0 -46 17.5 -77.5t58.5 -31.5q67 0 146 76zM266 408q-22 0 -39 -11q-71 -44 -90 -174
q177 49 177 131q0 25 -13.5 39.5t-34.5 14.5zM379 642h28q-11 -71 -47.5 -102t-85.5 -31q-50 0 -77 31t-14 102h28q1 -35 19.5 -54t51.5 -19t58.5 19.5t38.5 53.5z" />
    <glyph glyph-name="Edotaccent" unicode="&#x116;" horiz-adv-x="561" 
d="M127 649h439q-2 -14 -19 -154l-30 -2q-2 68 -14 89q-9 18 -27 25t-69 7h-72q-26 0 -33 -6.5t-12 -34.5l-41 -214h91q62 0 79 11.5t35 61.5h30l-38 -192h-30q2 56 -9.5 67.5t-74.5 11.5h-91l-33 -175q-14 -76 4 -93q17 -15 98 -15q54 0 81.5 7t47.5 27q29 27 68 95l29 -10
q-38 -100 -62 -155h-472l7 28q60 5 76 19t28 74l78 407q12 60 1.5 74t-72.5 19zM391 808q21 0 32.5 -14t11.5 -34q0 -25 -16 -43t-40 -18q-20 0 -32.5 13t-12.5 34q0 23 15.5 42.5t41.5 19.5z" />
    <glyph glyph-name="edotaccent" unicode="&#x117;" horiz-adv-x="403" 
d="M353 127l17 -23q-107 -116 -215 -116q-46 0 -79.5 33.5t-33.5 113.5q0 73 31.5 143.5t88.5 113.5q74 58 143 58q41 0 65.5 -23.5t24.5 -57.5q0 -110 -262 -178q-2 -12 -2 -31q0 -46 17.5 -77.5t58.5 -31.5q67 0 146 76zM266 408q-22 0 -39 -11q-71 -44 -90 -174
q177 49 177 131q0 25 -13.5 39.5t-34.5 14.5zM304 638q21 0 32.5 -13.5t11.5 -34.5q0 -25 -16 -43t-40 -18q-19 0 -32 13t-13 34q0 22 16 42t41 20z" />
    <glyph glyph-name="Eogonek" unicode="&#x118;" horiz-adv-x="561" 
d="M127 649h439q-2 -14 -19 -154l-30 -2q-2 66 -15 90q-9 18 -27.5 24.5t-68.5 6.5h-71q-26 0 -33 -6.5t-12 -34.5l-41 -214h91q62 0 79 11.5t35 61.5h30l-38 -192h-30q2 56 -9.5 67.5t-74.5 11.5h-91l-33 -175q-14 -76 4 -93q17 -15 98 -15q54 0 81.5 7t47.5 27
q33 33 68 95l29 -10q-38 -100 -62 -155h-48q-49 -34 -81.5 -77.5t-32.5 -72.5q0 -34 39 -34q20 0 46 11l8 -28l-56 -30q-17 -10 -39 -10q-32 0 -52.5 17t-20.5 49q0 42 41.5 89.5t99.5 85.5h-376l7 28q60 5 76 19t28 74l78 407q12 60 1.5 74t-72.5 19z" />
    <glyph glyph-name="eogonek" unicode="&#x119;" horiz-adv-x="403" 
d="M352 128l17 -24q-56 -60 -108 -86q-112 -92 -112 -164q0 -16 10.5 -25.5t26.5 -10.5q18 0 46 12l8 -28l-54 -29q-21 -12 -41 -12q-30 0 -49.5 17t-19.5 47q0 79 114 166v1q-73 -10 -110.5 27.5t-37.5 115.5q0 73 31.5 143.5t88.5 113.5q74 58 144 58q41 0 65 -24t24 -58
q0 -111 -263 -179q-1 -12 -1 -29q0 -109 76 -109q65 0 145 77zM269 408q-23 0 -42 -12q-26 -16 -53 -57.5t-38 -114.5q178 48 178 130q0 25 -12.5 39.5t-32.5 14.5z" />
    <glyph glyph-name="Ecaron" unicode="&#x11a;" horiz-adv-x="561" 
d="M127 649h439q-2 -14 -19 -154l-30 -2q-2 68 -14 89q-9 18 -27 25t-69 7h-72q-26 0 -33 -6.5t-12 -34.5l-41 -214h91q62 0 79 11.5t35 61.5h30l-38 -192h-30q2 56 -9.5 67.5t-74.5 11.5h-91l-33 -175q-14 -76 4 -93q17 -15 98 -15q54 0 81.5 7t47.5 27q29 27 68 95l29 -10
q-38 -100 -62 -155h-472l7 28q60 5 76 19t28 74l78 407q12 60 1.5 74t-72.5 19zM514 815l14 -23q-81 -54 -138 -106h-26q-41 49 -105 106l19 23q45 -18 109 -58q74 39 127 58z" />
    <glyph glyph-name="ecaron" unicode="&#x11b;" horiz-adv-x="403" 
d="M353 127l17 -23q-107 -116 -215 -116q-46 0 -79.5 33.5t-33.5 113.5q0 73 31.5 143.5t88.5 113.5q74 58 143 58q41 0 65.5 -23.5t24.5 -57.5q0 -110 -262 -178q-2 -12 -2 -31q0 -46 17.5 -77.5t58.5 -31.5q67 0 146 76zM266 408q-22 0 -39 -11q-71 -44 -90 -174
q177 49 177 131q0 25 -13.5 39.5t-34.5 14.5zM397 674l23 -19q-81 -91 -131 -162h-24q-27 78 -72 163l26 18q30 -34 71 -94q57 56 107 94z" />
    <glyph glyph-name="Gcircumflex" unicode="&#x11c;" horiz-adv-x="684" 
d="M657 476l-31 -3q-1 83 -41.5 119.5t-117.5 36.5q-129 0 -211.5 -103.5t-82.5 -248.5q0 -115 55.5 -185.5t154.5 -70.5q93 0 107 70l19 92q10 55 -2.5 67t-87.5 20l7 27h254l-7 -27q-42 -6 -53 -18.5t-21 -68.5l-16 -82q-9 -49 -5 -78q-7 -2 -45.5 -12t-56.5 -13.5t-50 -8
t-60 -4.5q-135 0 -217.5 75.5t-82.5 210.5q0 173 119 283.5t306 110.5q85 0 178 -31q-7 -73 -12 -158zM598 718l-19 -23q-54 22 -109 57q-86 -43 -128 -57l-14 24q70 43 138 105h27q41 -49 105 -106z" />
    <glyph glyph-name="gcircumflex" unicode="&#x11d;" horiz-adv-x="425" 
d="M476 446l8 -20q-38 -41 -74 -49q-14 -2 -24 -3q7 -23 7 -53q0 -91 -74 -151q-52 -42 -133 -59q-17 -13 -19 -29q0 -20 72 -57q73 -38 105 -69.5t32 -64.5q0 -59 -80 -102.5t-161 -43.5q-75 0 -128.5 33t-52.5 79q1 32 42 66t125 76q-39 24 -37 50q0 26 64 63
q-90 20 -90 121q0 48 23 92.5t62 74.5q64 50 131 50q55 0 87 -28q79 1 115 24zM203 151q41 0 75 47t34 123q0 42 -16 67.5t-47 25.5q-40 0 -71 -48q-35 -54 -35 -128q0 -41 16.5 -64t43.5 -23zM177 -212q53 0 86 21t33 51q0 36 -70 78q-60 34 -78 43q-103 -51 -103 -106
q0 -37 40 -62t92 -25zM372 507l-24 -18q-27 29 -72 94q-60 -58 -109 -94l-21 19q81 91 131 162h25q24 -75 70 -163z" />
    <glyph glyph-name="Gbreve" unicode="&#x11e;" horiz-adv-x="684" 
d="M657 476l-31 -3q-1 83 -41.5 119.5t-117.5 36.5q-129 0 -211.5 -103.5t-82.5 -248.5q0 -115 55.5 -185.5t154.5 -70.5q93 0 107 70l19 92q10 55 -2.5 67t-87.5 20l7 27h254l-7 -27q-42 -6 -53 -18.5t-21 -68.5l-16 -82q-9 -49 -5 -78q-7 -2 -45.5 -12t-56.5 -13.5t-50 -8
t-60 -4.5q-135 0 -217.5 75.5t-82.5 210.5q0 173 119 283.5t306 110.5q85 0 178 -31q-7 -73 -12 -158zM573 822h32q-10 -57 -45.5 -88t-90.5 -31q-53 0 -80 31t-21 88h31q9 -58 78 -58q68 0 96 58z" />
    <glyph glyph-name="gbreve" unicode="&#x11f;" horiz-adv-x="425" 
d="M476 446l8 -20q-38 -41 -74 -49q-14 -2 -24 -3q7 -23 7 -53q0 -91 -74 -151q-52 -42 -133 -59q-17 -13 -19 -29q0 -20 72 -57q73 -38 105 -69.5t32 -64.5q0 -59 -80 -102.5t-161 -43.5q-75 0 -128.5 33t-52.5 79q1 32 42 66t125 76q-39 24 -37 50q0 26 64 63
q-90 20 -90 121q0 48 23 92.5t62 74.5q64 50 131 50q55 0 87 -28q79 1 115 24zM203 151q41 0 75 47t34 123q0 42 -16 67.5t-47 25.5q-40 0 -71 -48q-35 -54 -35 -128q0 -41 16.5 -64t43.5 -23zM177 -212q53 0 86 21t33 51q0 36 -70 78q-60 34 -78 43q-103 -51 -103 -106
q0 -37 40 -62t92 -25zM370 642h28q-11 -71 -47.5 -102t-85.5 -31q-50 0 -77 31t-14 102h28q1 -35 19.5 -54t51.5 -19t58.5 19.5t38.5 53.5z" />
    <glyph glyph-name="Gdotaccent" unicode="&#x120;" horiz-adv-x="684" 
d="M657 476l-31 -3q-1 83 -41.5 119.5t-117.5 36.5q-129 0 -211.5 -103.5t-82.5 -248.5q0 -115 55.5 -185.5t154.5 -70.5q93 0 107 70l19 92q10 55 -2.5 67t-87.5 20l7 27h254l-7 -27q-42 -6 -53 -18.5t-21 -68.5l-16 -82q-9 -49 -5 -78q-7 -2 -45.5 -12t-56.5 -13.5t-50 -8
t-60 -4.5q-135 0 -217.5 75.5t-82.5 210.5q0 173 119 283.5t306 110.5q85 0 178 -31q-7 -73 -12 -158zM476 816q21 0 32.5 -14t11.5 -34q0 -25 -16 -43t-40 -18q-20 0 -32.5 13t-12.5 34q0 23 15.5 42.5t41.5 19.5z" />
    <glyph glyph-name="gdotaccent" unicode="&#x121;" horiz-adv-x="425" 
d="M476 446l8 -20q-38 -41 -74 -49q-14 -2 -24 -3q7 -23 7 -53q0 -91 -74 -151q-52 -42 -133 -59q-17 -13 -19 -29q0 -20 72 -57q73 -38 105 -69.5t32 -64.5q0 -59 -80 -102.5t-161 -43.5q-75 0 -128.5 33t-52.5 79q1 32 42 66t125 76q-39 24 -37 50q0 26 64 63
q-90 20 -90 121q0 48 23 92.5t62 74.5q64 50 131 50q55 0 87 -28q79 1 115 24zM203 151q41 0 75 47t34 123q0 42 -16 67.5t-47 25.5q-40 0 -71 -48q-35 -54 -35 -128q0 -41 16.5 -64t43.5 -23zM177 -212q53 0 86 21t33 51q0 36 -70 78q-60 34 -78 43q-103 -51 -103 -106
q0 -37 40 -62t92 -25zM282 638q22 0 33.5 -13.5t11.5 -34.5q0 -25 -16.5 -43t-40.5 -18q-19 0 -32 13t-13 34q0 22 16 42t41 20z" />
    <glyph glyph-name="Gcommaaccent" unicode="&#x122;" horiz-adv-x="684" 
d="M657 476l-31 -3q-1 83 -41.5 119.5t-117.5 36.5q-129 0 -211.5 -103.5t-82.5 -248.5q0 -115 55.5 -185.5t154.5 -70.5q93 0 107 70l19 92q10 55 -2.5 67t-87.5 20l7 27h254l-7 -27q-42 -6 -53 -18.5t-21 -68.5l-16 -82q-9 -49 -5 -78q-7 -2 -45.5 -12t-56.5 -13.5t-50 -8
t-60 -4.5q-135 0 -217.5 75.5t-82.5 210.5q0 173 119 283.5t306 110.5q85 0 178 -31q-7 -73 -12 -158zM358 -43q25 0 43 -18.5t19 -48.5q0 -48 -36.5 -77t-86.5 -40l-8 28q34 13 51.5 26.5t17.5 33.5q0 25 -37 36q-11 3 -11 20t13.5 28.5t34.5 11.5z" />
    <glyph glyph-name="gcommaaccent" unicode="&#x123;" horiz-adv-x="425" 
d="M476 446l8 -20q-38 -41 -74 -49q-14 -2 -24 -3q7 -23 7 -53q0 -91 -74 -151q-52 -42 -133 -59q-17 -13 -19 -29q0 -20 72 -57q73 -38 105 -69.5t32 -64.5q0 -59 -80 -102.5t-161 -43.5q-75 0 -128.5 33t-52.5 79q1 32 42 66t125 76q-39 24 -37 50q0 26 64 63
q-90 20 -90 121q0 48 23 92.5t62 74.5q64 50 131 50q55 0 87 -28q79 1 115 24zM203 151q41 0 75 47t34 123q0 42 -16 67.5t-47 25.5q-40 0 -71 -48q-35 -54 -35 -128q0 -41 16.5 -64t43.5 -23zM177 -212q53 0 86 21t33 51q0 36 -70 78q-60 34 -78 43q-103 -51 -103 -106
q0 -37 40 -62t92 -25zM283 526q-26 0 -43.5 18t-17.5 49q0 46 35.5 76t85.5 42l9 -28q-68 -28 -68 -61q0 -25 36 -36q11 -2 11 -18q0 -18 -14 -30t-34 -12z" />
    <glyph glyph-name="Hcircumflex" unicode="&#x124;" horiz-adv-x="746" 
d="M792 649l-7 -28q-57 -5 -71.5 -19.5t-26.5 -75.5l-77 -403q-11 -61 -0.5 -75.5t70.5 -19.5l-6 -28h-262l6 28q59 5 74.5 19.5t26.5 75.5l38 199h-316l-37 -199q-12 -62 -1 -76t72 -19l-7 -28h-257l7 28q55 5 69 19.5t26 75.5l78 403q12 62 1 76t-73 19l7 28h256l-7 -28
q-54 -5 -68.5 -20t-25.5 -75l-31 -161h316l30 161q12 61 2 75.5t-69 19.5l6 28h257zM599 707l-19 -23q-54 23 -109 57q-79 -40 -128 -57l-14 24q76 49 138 105h27q41 -49 105 -106z" />
    <glyph glyph-name="hcircumflex" unicode="&#x125;" horiz-adv-x="515" 
d="M470 110l14 -24q-41 -45 -83 -71.5t-67 -26.5q-41 0 -19 100l53 228q15 68 -9 68q-32 0 -98 -63t-103 -127q-18 -73 -38 -187q-41 -6 -79 -19l-7 8q80 366 124 597q7 39 1.5 47t-36.5 9h-27l4 26q36 3 71.5 12t56 16t25.5 7q13 0 5 -34l-88 -410h2q83 110 179 162
q39 22 70 22q59 0 29 -131l-50 -216q-8 -37 3 -37q7 0 28 13t39 31zM352 745l-19 -23q-58 26 -109 57q-73 -37 -128 -57l-13 24q77 50 137 105h27q41 -49 105 -106z" />
    <glyph glyph-name="Hbar" unicode="&#x126;" horiz-adv-x="746" 
d="M779 509l-10 -38h-92l-67 -350q-12 -59 -1.5 -73.5t71.5 -19.5l-6 -28h-262l6 28q59 5 74.5 19.5t26.5 73.5l37 198h-315l-38 -198q-11 -59 0.5 -73.5t71.5 -19.5l-7 -28h-257l7 28q55 5 69 19t25 74l68 350h-96l10 38h94l5 26q10 54 -1.5 67.5t-72.5 18.5l7 28h256
l-7 -28q-53 -5 -68 -18.5t-25 -67.5l-5 -26h316l5 26q10 54 -0.5 67.5t-68.5 18.5l6 28h257l-7 -28q-57 -5 -71 -18t-25 -68l-5 -26h95zM586 471h-315l-21 -109h315z" />
    <glyph glyph-name="hbar" unicode="&#x127;" horiz-adv-x="515" 
d="M467 110l13 -24q-39 -44 -81.5 -71t-68.5 -27q-40 0 -18 99q33 138 53 230q15 66 -7 66q-30 0 -97 -65t-104 -129q-21 -81 -38 -182q-40 -6 -80 -19l-7 8q54 240 114 530h-81l12 36h78q14 66 13 79.5t-18 15.5l-29 4l6 25q26 3 55.5 9.5t47.5 11t23 4.5q14 0 6 -33
q-5 -23 -13.5 -60.5t-12.5 -55.5h147l-12 -36h-143q-9 -42 -27.5 -128.5t-29.5 -135.5h2q86 111 184 166q40 22 67 22q56 0 30 -114q-17 -77 -53 -231q-9 -40 1 -40q19 0 68 45z" />
    <glyph glyph-name="Itilde" unicode="&#x128;" horiz-adv-x="341" 
d="M386 649l-6 -28q-57 -5 -71.5 -18t-25.5 -69l-80 -415q-11 -58 0.5 -72t72.5 -19l-6 -28h-263l7 28q57 4 72 18.5t26 72.5l81 415q10 55 -1.5 68.5t-73.5 18.5l7 28h261zM373 794l26 -16q-30 -83 -82 -83q-19 0 -69 23q-28 13 -43 13q-25 0 -48 -45l-26 19q33 82 82 82
q21 0 61 -18q39 -16 52 -16q23 0 47 41z" />
    <glyph glyph-name="itilde" unicode="&#x129;" horiz-adv-x="278" 
d="M230 112l14 -22q-31 -37 -78.5 -69.5t-72.5 -32.5q-41 0 -17 100l61 250q7 33 -1 33q-16 0 -67 -42l-12 24q42 41 88 69t68 28q33 0 12 -82l-66 -268q-8 -34 2 -34q17 0 69 46zM315 622l25 -13q-33 -88 -82 -88q-8 0 -17 2.5t-15 5l-18 7.5t-18 8q-22 12 -43 12
q-24 0 -48 -43l-24 16q33 86 82 86q19 0 59 -18q36 -17 53 -17q21 0 46 42z" />
    <glyph glyph-name="Imacron" unicode="&#x12a;" horiz-adv-x="341" 
d="M386 649l-6 -28q-57 -5 -71.5 -18t-25.5 -69l-80 -415q-11 -58 0.5 -72t72.5 -19l-6 -28h-263l7 28q57 4 72 18.5t26 72.5l81 415q10 55 -1.5 68.5t-73.5 18.5l7 28h261zM395 767l-14 -54h-229l15 54h228z" />
    <glyph glyph-name="imacron" unicode="&#x12b;" horiz-adv-x="278" 
d="M230 112l14 -22q-31 -37 -78.5 -69.5t-72.5 -32.5q-41 0 -17 100l61 250q7 33 -1 33q-16 0 -67 -42l-12 24q42 41 88 69t68 28q33 0 12 -82l-66 -268q-8 -34 2 -34q17 0 69 46zM323 599l-13 -55h-227l14 55h226z" />
    <glyph glyph-name="Ibreve" unicode="&#x12c;" horiz-adv-x="341" 
d="M386 649l-6 -28q-57 -5 -71.5 -18t-25.5 -69l-80 -415q-11 -58 0.5 -72t72.5 -19l-6 -28h-263l7 28q57 4 72 18.5t26 72.5l81 415q10 55 -1.5 68.5t-73.5 18.5l7 28h261zM367 811h31q-10 -57 -45.5 -88t-89.5 -31q-52 0 -79.5 31t-22.5 88h31q11 -59 79 -59q66 0 96 59z
" />
    <glyph glyph-name="ibreve" unicode="&#x12d;" horiz-adv-x="278" 
d="M230 112l14 -22q-31 -37 -78.5 -69.5t-72.5 -32.5q-41 0 -17 100l61 250q7 33 -1 33q-16 0 -67 -42l-12 24q42 41 88 69t68 28q33 0 12 -82l-66 -268q-8 -34 2 -34q17 0 69 46zM301 642h28q-11 -71 -47.5 -102t-85.5 -31q-50 0 -77 31t-14 102h28q1 -35 19.5 -54
t51.5 -19t58.5 19.5t38.5 53.5z" />
    <glyph glyph-name="Iogonek" unicode="&#x12e;" horiz-adv-x="340" 
d="M386 649l-6 -28q-57 -5 -71.5 -18t-25.5 -68l-81 -418q-11 -58 0.5 -71t73.5 -18l-7 -28h-111q-59 -85 -59 -141q0 -20 12 -31t33 -11q22 0 46 10l7 -27l-57 -32q-22 -10 -39 -10q-34 0 -53.5 18.5t-19.5 52.5q0 62 92 171h-114l7 28q57 5 72.5 18.5t26.5 70.5l81 418
q10 55 -1.5 68t-74.5 18l7 28h262z" />
    <glyph glyph-name="iogonek" unicode="&#x12f;" horiz-adv-x="276" 
d="M224 655q21 0 32.5 -13.5t12.5 -33.5q0 -25 -16.5 -43t-40.5 -18q-19 0 -31.5 12.5t-13.5 33.5q0 22 16 42t41 20zM230 112l13 -22q-31 -37 -73 -67q-40 -42 -64.5 -87t-24.5 -78q0 -38 37 -40q19 0 47 13l8 -28l-56 -31q-17 -10 -39 -10q-30 0 -49 18.5t-19 48.5
q0 36 29 82t68 83l-1 1q-29 -9 -36.5 18t5.5 75l61 250q7 33 -1 33q-16 0 -67 -42l-12 24q42 41 87.5 69t68.5 28q34 0 13 -82l-67 -268q-8 -34 2 -34q18 0 70 46z" />
    <glyph glyph-name="Idotaccent" unicode="&#x130;" horiz-adv-x="341" 
d="M386 649l-6 -28q-57 -5 -71.5 -18t-25.5 -69l-80 -415q-11 -58 0.5 -72t72.5 -19l-6 -28h-263l7 28q57 4 72 18.5t26 72.5l81 415q10 55 -1.5 68.5t-73.5 18.5l7 28h261zM277 808q21 0 33 -14t12 -34q0 -25 -16.5 -43t-40.5 -18q-19 0 -31.5 13t-13.5 34q0 22 16 42
t41 20z" />
    <glyph glyph-name="dotlessi" unicode="&#x131;" horiz-adv-x="278" 
d="M230 112l14 -22q-31 -37 -78.5 -69.5t-72.5 -32.5q-41 0 -17 100l61 250q7 33 -1 33q-16 0 -67 -42l-12 24q42 41 88 69t68 28q33 0 12 -82l-66 -268q-8 -34 2 -34q17 0 69 46z" />
    <glyph glyph-name="IJ" unicode="&#x132;" horiz-adv-x="667" 
d="M386 649l-6 -28q-57 -5 -71.5 -18t-25.5 -69l-80 -415q-11 -58 0.5 -72t72.5 -19l-6 -28h-263l7 28q57 4 72 18.5t26 72.5l81 415q10 55 -1.5 68.5t-73.5 18.5l7 28h261zM723 649l-6 -28q-55 -7 -68.5 -20t-23.5 -72l-74 -398q-18 -97 -50.5 -154t-90.5 -90
q-43 -27 -86 -32l-9 32q80 22 110 108q18 49 39 155l71 379q10 60 -1 73t-72 19l7 28h254z" />
    <glyph glyph-name="ij" unicode="&#x133;" horiz-adv-x="541" 
d="M223 643q21 0 32 -13.5t11 -34.5q1 -24 -16 -42.5t-41 -18.5q-19 0 -31 13t-13 34q0 23 16 42.5t42 19.5zM229 112l14 -22q-31 -37 -78.5 -69.5t-72.5 -32.5q-41 0 -17 100l61 250q7 33 -1 33q-16 0 -67 -42l-12 24q42 41 88.5 69t68.5 28q32 0 12 -82l-67 -268
q-8 -34 2 -34q19 0 69 46zM486 649q20 0 31.5 -13.5t11.5 -33.5q0 -25 -16 -43t-40 -18q-20 0 -32.5 13t-13.5 34q0 23 16 42t43 19zM334 321l-13 24q44 45 91.5 75t71.5 30q17 0 19 -25.5t-9 -80.5q-2 -8 -57 -281q-36 -179 -122 -257q-68 -61 -108 -61q-15 0 -29.5 10
t-14.5 24q0 26 26 46q12 10 22 4q32 -19 51 -19q20 0 34.5 23t27.5 77q16 65 81 403q3 17 5 27.5t2 17t-1.5 8.5t-4.5 2q-7 0 -30 -15t-42 -32z" />
    <glyph glyph-name="Jcircumflex" unicode="&#x134;" horiz-adv-x="327" 
d="M382 649l-6 -28q-55 -7 -68.5 -20t-23.5 -72l-74 -398q-18 -97 -50.5 -154t-90.5 -90q-43 -27 -86 -32l-9 32q80 22 110 108q18 49 39 155l71 379q10 60 -1 73t-72 19l7 28h254zM395 707l-19 -23q-58 26 -109 57q-73 -37 -128 -57l-13 24q75 49 138 105h26
q41 -49 105 -106z" />
    <glyph glyph-name="jcircumflex" unicode="&#x135;" horiz-adv-x="271" 
d="M308 520l-24 -18q-35 37 -72 94q-70 -66 -108 -94l-21 19q82 92 130 161h24q26 -77 71 -162zM67 323l-13 22q44 45 92 75t71 30q17 0 18.5 -25.5t-9.5 -80.5q-10 -52 -56 -280q-36 -179 -122 -257q-65 -60 -107 -60q-16 0 -30 9t-14 23q0 24 25 47q11 9 22 4
q27 -18 51 -18q21 0 35.5 22.5t26.5 78.5q22 94 81 402q10 47 2 55q-17 0 -73 -47z" />
    <glyph glyph-name="Kcommaaccent" unicode="&#x136;" horiz-adv-x="658" 
d="M721 649l-7 -27q-54 -8 -80.5 -19.5t-72.5 -48.5q-57 -46 -214 -182q80 -139 176 -275q29 -40 48.5 -52t60.5 -17l-7 -28h-152q-111 171 -181 290q-24 42 -54 29l-35 -191q-12 -65 -2 -80t69 -20l-6 -28h-253l8 28q54 5 68.5 20t26.5 80l76 397q12 62 2 76t-69 20l7 28
h250l-6 -28q-56 -6 -70 -20t-26 -76l-34 -176q36 12 75 44q98 81 198 181q22 22 20 30.5t-28 12.5l-28 4l7 28h233zM338 -20q26 0 44 -18.5t18 -48.5q0 -48 -36.5 -77t-86.5 -40l-8 28q69 26 69 59q0 26 -36 37q-12 2 -12 20q0 17 13.5 28.5t34.5 11.5z" />
    <glyph glyph-name="kcommaaccent" unicode="&#x137;" horiz-adv-x="473" 
d="M442 102l18 -22q-61 -92 -116 -92q-18 0 -33.5 14.5t-33.5 52.5q-38 83 -73 183q-42 -43 -51 -60q-22 -97 -35 -170q-43 -8 -80 -20l-6 6q88 385 134 608q6 30 0 37.5t-36 8.5l-30 1l5 26q37 4 72.5 13t56 15.5t25.5 6.5q12 0 5 -29q-69 -308 -99 -440h2q25 30 84 89
q118 120 174 120q19 0 31 -9.5t12 -22.5q0 -22 -21 -43q-9 -9 -16 -6q-16 9 -40 9q-57 0 -125 -78q25 -82 76 -183q29 -60 44 -60q17 0 56 45zM203 -29q26 0 44 -18.5t18 -48.5q1 -48 -35.5 -77t-86.5 -41l-9 28q34 14 51.5 27.5t17.5 32.5q0 27 -36 37q-12 2 -12 20
q0 17 14 28.5t34 11.5z" />
    <glyph glyph-name="kgreenlandic" unicode="&#x138;" horiz-adv-x="507" 
d="M471 101l18 -21q-61 -92 -117 -92q-34 0 -68 63q-29 50 -81 162q-38 -38 -51 -54q-20 -81 -34 -151q-45 -6 -79 -20l-7 8q37 145 80 336q9 41 -2 41q-7 0 -27 -13.5t-37 -30.5l-14 24q39 43 81.5 70t65.5 27q36 0 12 -108l-28 -124l1 -2q47 51 111 115q117 119 164 119
q21 0 33.5 -9.5t12.5 -23.5q0 -20 -21 -43q-10 -10 -17 -6q-20 9 -41 9q-42 0 -143 -105q41 -93 90 -174q23 -41 40 -41q19 0 58 44z" />
    <glyph glyph-name="Lacute" unicode="&#x139;" horiz-adv-x="535" 
d="M487 169l29 -11q-53 -135 -64 -158h-447l7 28q57 4 72.5 18.5t26.5 71.5l81 415q11 57 0.5 70t-71.5 18l6 28h259l-6 -28q-59 -5 -73 -18t-25 -70l-79 -411q-9 -55 10 -72q16 -14 88 -14q83 0 115 31q36 36 71 102zM429 754l-3 -8l-191 -63l-14 26q25 16 81.5 52t82.5 53
q10 -3 25.5 -24.5t18.5 -35.5z" />
    <glyph glyph-name="lacute" unicode="&#x13a;" horiz-adv-x="254" 
d="M219 118l15 -24q-39 -45 -85.5 -75.5t-71.5 -30.5q-43 0 -17 123q42 196 103 485q7 34 0 43t-41 10l-27 1l4 25q35 4 71 13t57.5 15.5t25.5 6.5q13 0 7 -31q-119 -567 -121 -578q-7 -36 3 -36q9 0 33.5 16.5t43.5 36.5zM354 804l-2 -8l-192 -63l-13 26q25 16 81.5 52
t82.5 53q10 -3 25.5 -24.5t17.5 -35.5z" />
    <glyph glyph-name="Lcommaaccent" unicode="&#x13b;" horiz-adv-x="535" 
d="M487 169l29 -11q-53 -135 -64 -158h-447l7 28q57 4 72.5 18.5t26.5 71.5l81 415q11 57 0.5 70t-71.5 18l6 28h259l-6 -28q-59 -5 -73 -18t-25 -70l-79 -411q-9 -55 10 -72q16 -14 88 -14q83 0 115 31q36 36 71 102zM270 -34q26 0 44 -18.5t18 -48.5q1 -48 -35.5 -77
t-86.5 -41l-9 28q34 14 51.5 27.5t17.5 32.5q0 24 -36 37q-12 2 -12 19t13.5 29t34.5 12z" />
    <glyph glyph-name="lcommaaccent" unicode="&#x13c;" horiz-adv-x="254" 
d="M219 118l15 -24q-39 -45 -85.5 -75.5t-71.5 -30.5q-43 0 -17 123q42 196 103 485q7 34 0 43t-41 10l-27 1l4 25q35 4 71 13t57.5 15.5t25.5 6.5q13 0 7 -31q-119 -567 -121 -578q-7 -36 3 -36q9 0 33.5 16.5t43.5 36.5zM92 -37q25 0 43 -18.5t19 -48.5q0 -48 -36 -76.5
t-87 -40.5l-9 28q35 13 52.5 26.5t17.5 33.5q0 25 -37 36q-12 3 -12 20t14 28.5t35 11.5z" />
    <glyph glyph-name="Lcaron" unicode="&#x13d;" horiz-adv-x="535" 
d="M487 169l29 -11q-53 -135 -64 -158h-447l7 28q57 4 72.5 18.5t26.5 71.5l81 415q11 57 0.5 70t-71.5 18l6 28h259l-6 -28q-59 -5 -73 -18t-25 -70l-79 -411q-9 -55 10 -72q16 -14 88 -14q83 0 115 31q36 36 71 102zM473 657q22 0 36.5 -18.5t14.5 -47.5q0 -44 -30 -73.5
t-74 -42.5l-11 27q58 28 58 61q0 23 -25 35q-10 5 -10 21q0 15 12.5 26.5t28.5 11.5z" />
    <glyph glyph-name="lcaron" unicode="&#x13e;" horiz-adv-x="254" 
d="M219 118l15 -24q-39 -45 -85.5 -75.5t-71.5 -30.5q-43 0 -17 123q42 196 103 485q7 34 0 43t-41 10l-27 1l4 25q35 4 71 13t57.5 15.5t25.5 6.5q13 0 7 -31q-119 -567 -121 -578q-7 -36 3 -36q9 0 33.5 16.5t43.5 36.5zM351 709q22 0 36.5 -18.5t14.5 -47.5
q0 -44 -30 -73.5t-74 -42.5l-11 27q57 28 57 61q0 23 -24 35q-10 3 -10 21q0 15 12.5 26.5t28.5 11.5z" />
    <glyph glyph-name="Ldot" unicode="&#x13f;" horiz-adv-x="535" 
d="M487 169l29 -11q-53 -135 -64 -158h-447l7 28q57 4 72.5 18.5t26.5 71.5l81 415q11 57 0.5 70t-71.5 18l6 28h259l-6 -28q-59 -5 -73 -18t-25 -70l-79 -411q-9 -55 10 -72q16 -14 88 -14q83 0 115 31q36 36 71 102zM404 403q21 0 32.5 -13.5t11.5 -33.5q0 -25 -16 -43.5
t-40 -18.5q-20 0 -32.5 13t-12.5 34q0 23 15.5 42.5t41.5 19.5z" />
    <glyph glyph-name="ldot" unicode="&#x140;" horiz-adv-x="284" 
d="M219 118l15 -24q-38 -45 -84.5 -75.5t-71.5 -30.5q-44 0 -18 123q5 24 43.5 206.5t58.5 278.5q8 34 1 43t-41 10l-27 1l4 25q35 4 71 13t57.5 15.5t25.5 6.5q13 0 7 -31q-22 -104 -63 -299t-59 -279q-7 -36 4 -36q9 0 33.5 16.5t43.5 36.5zM296 417q21 0 33 -13.5
t12 -33.5q0 -25 -16.5 -43.5t-40.5 -18.5q-19 0 -31.5 13t-12.5 34q0 23 15.5 42.5t40.5 19.5z" />
    <glyph glyph-name="Lslash" unicode="&#x141;" horiz-adv-x="551" 
d="M505 168l29 -11q-38 -107 -63 -157h-448l7 28q58 4 73 18t27 74l30 158l-106 -70l10 50l106 70l40 206q10 56 -1.5 69t-70.5 18l7 28h258l-6 -28q-58 -5 -72 -17.5t-25 -69.5l-29 -144l137 90l-14 -54l-133 -88l-39 -215q-11 -56 10 -73q17 -15 85 -15q50 0 75 6.5
t43 24.5q29 28 70 102z" />
    <glyph glyph-name="lslash" unicode="&#x142;" horiz-adv-x="279" 
d="M319 493l-10 -50l-97 -73l-54 -263q-8 -43 4 -43q8 0 32.5 17t43.5 36l15 -24q-39 -45 -83.5 -75t-70.5 -30q-44 0 -19 113l42 204l-85 -66l10 51l86 66l51 241q7 33 -0.5 42t-42.5 10l-27 1l5 26q35 3 70.5 12t57 15.5t27.5 6.5q13 0 7 -29l-58 -261z" />
    <glyph glyph-name="Nacute" unicode="&#x143;" horiz-adv-x="705" 
d="M767 649l-6 -28q-44 -2 -60.5 -15t-26.5 -48q-17 -55 -39 -170l-75 -396h-34l-294 526h-3l-51 -260q-21 -108 -25 -168q-2 -34 15 -46t70 -16l-6 -28h-232l7 28q40 2 59 15t29 45q15 46 42 172l50 238q7 43 6 59t-11 34q-9 16 -26.5 22t-57.5 8l7 28h151l289 -500h3
l45 239q22 115 26 171q3 35 -14.5 47t-72.5 15l8 28h227zM583 754l-3 -8l-192 -63l-13 26q25 16 81.5 52t82.5 53q10 -3 25.5 -24.5t18.5 -35.5z" />
    <glyph glyph-name="nacute" unicode="&#x144;" horiz-adv-x="535" 
d="M485 112l15 -25q-43 -47 -83.5 -73t-63.5 -26q-42 0 -17 105q18 73 52 219q16 70 -7 70q-30 0 -96.5 -68.5t-104.5 -132.5q-28 -116 -40 -173q-43 -6 -79 -20l-7 8q39 150 81 337q9 40 -2 40q-7 0 -26.5 -13.5t-37.5 -31.5l-13 26q42 44 82.5 70t63.5 26q37 0 10 -114
l-19 -80h2q80 110 177 170q40 24 69 24q60 0 25 -145q-15 -67 -47 -203q-9 -36 2 -36q7 0 26 13t38 33zM467 661l-158 -170l-25 16q47 75 92 158q10 3 43 6.5t45 2.5z" />
    <glyph glyph-name="Ncommaaccent" unicode="&#x145;" horiz-adv-x="705" 
d="M767 649l-6 -28q-44 -2 -60.5 -15t-26.5 -48q-17 -55 -39 -170l-75 -396h-34l-294 526h-3l-51 -260q-21 -108 -25 -168q-2 -34 15 -46t70 -16l-6 -28h-232l7 28q40 2 59 15t29 45q15 46 42 172l50 238q7 43 6 59t-11 34q-9 16 -26.5 22t-57.5 8l7 28h151l289 -500h3
l45 239q22 115 26 171q3 35 -14.5 47t-72.5 15l8 28h227zM343 -12q26 0 44 -18.5t18 -48.5q1 -48 -35.5 -77t-86.5 -40l-9 28q70 26 70 60q0 25 -37 36q-12 3 -12 20t14 28.5t34 11.5z" />
    <glyph glyph-name="ncommaaccent" unicode="&#x146;" horiz-adv-x="535" 
d="M485 112l15 -25q-43 -47 -83.5 -73t-63.5 -26q-42 0 -17 105q18 73 52 219q16 70 -7 70q-30 0 -96.5 -68.5t-104.5 -132.5q-28 -116 -40 -173q-43 -6 -79 -20l-7 8q39 150 81 337q9 40 -2 40q-7 0 -26.5 -13.5t-37.5 -31.5l-13 26q42 44 82.5 70t63.5 26q37 0 10 -114
l-19 -80h2q80 110 177 170q40 24 69 24q60 0 25 -145q-15 -67 -47 -203q-9 -36 2 -36q7 0 26 13t38 33zM233 -42q26 0 44 -18.5t18 -49.5q0 -48 -36 -76.5t-87 -40.5l-8 28q69 26 69 60q0 25 -36 36q-12 3 -12 20t13.5 29t34.5 12z" />
    <glyph glyph-name="Ncaron" unicode="&#x147;" horiz-adv-x="705" 
d="M767 649l-6 -28q-44 -2 -60.5 -15t-26.5 -48q-17 -55 -39 -170l-75 -396h-34l-294 526h-3l-51 -260q-21 -108 -25 -168q-2 -34 15 -46t70 -16l-6 -28h-232l7 28q40 2 59 15t29 45q15 46 42 172l50 238q7 43 6 59t-11 34q-9 16 -26.5 22t-57.5 8l7 28h151l289 -500h3
l45 239q22 115 26 171q3 35 -14.5 47t-72.5 15l8 28h227zM577 800l15 -23q-81 -54 -138 -106h-26q-45 53 -105 106l19 23q45 -18 109 -58q73 39 126 58z" />
    <glyph glyph-name="ncaron" unicode="&#x148;" horiz-adv-x="535" 
d="M485 112l15 -25q-43 -47 -83.5 -73t-63.5 -26q-42 0 -17 105q18 73 52 219q16 70 -7 70q-30 0 -96.5 -68.5t-104.5 -132.5q-28 -116 -40 -173q-43 -6 -79 -20l-7 8q39 150 81 337q9 40 -2 40q-7 0 -26.5 -13.5t-37.5 -31.5l-13 26q42 44 82.5 70t63.5 26q37 0 10 -114
l-19 -80h2q80 110 177 170q40 24 69 24q60 0 25 -145q-15 -67 -47 -203q-9 -36 2 -36q7 0 26 13t38 33zM435 674l23 -19q-81 -91 -131 -162h-24q-24 70 -72 163l26 18q30 -34 71 -94q57 56 107 94z" />
    <glyph glyph-name="napostrophe" unicode="&#x149;" horiz-adv-x="537" 
d="M79 498l-10 28q82 32 83 79q3 37 -49 51q-13 2 -11 16q1 18 15.5 29.5t31.5 11.5q33 0 57 -24.5t23 -65.5q-2 -49 -43.5 -80t-96.5 -45zM483 111l15 -25q-43 -46 -84 -72t-63 -26q-42 0 -18 100q9 39 27.5 118t28.5 118q14 58 -7 58q-30 0 -98.5 -72t-104.5 -137
q-21 -74 -39 -165q-42 -6 -79 -20l-7 8q50 198 81 337q9 40 -2 40q-7 0 -26.5 -13.5t-37.5 -31.5l-13 26q41 44 81.5 70t63.5 26q38 0 11 -114l-19 -83h2q81 113 181 173q37 24 69 24q53 0 24 -122q-17 -75 -53 -227q-8 -35 3 -35q19 0 64 45z" />
    <glyph glyph-name="Eng" unicode="&#x14a;" horiz-adv-x="705" 
d="M767 649l-6 -27q-42 -2 -60 -14.5t-27 -46.5q-22 -87 -39 -173l-61 -324q-30 -153 -68 -213q-44 -66 -101 -66q-19 0 -31.5 9.5t-12.5 23.5q0 15 12 33t21 18q5 0 17 -6t24 -6q25 0 47.5 37t36.5 110l-287 514h-2l-51 -259q-20 -104 -24 -169q-3 -34 14 -46t71 -17
l-7 -27h-232l7 27q40 3 59 15.5t29 44.5q20 69 41 172l50 239q7 43 6 59t-11 33q-8 15 -26 22t-58 10l7 27h151l289 -500h3l44 239q22 113 26 174q3 34 -15 45.5t-71 14.5l6 27h229z" />
    <glyph glyph-name="eng" unicode="&#x14b;" horiz-adv-x="519" 
d="M68 330l-14 24q39 41 81 68.5t66 27.5q37 0 10 -115l-20 -87h2q86 116 187 179q36 23 67 23q47 0 24 -107q-8 -40 -24.5 -120t-24.5 -119q-20 -97 -47.5 -150.5t-72.5 -93.5q-68 -60 -114 -60q-15 0 -27.5 9t-12.5 23q0 10 8 25.5t18 23.5q12 9 21 3q27 -16 50 -16
q24 0 42 28.5t32 98.5l70 335q11 52 -6 52q-29 0 -99 -73t-106 -136q-19 -67 -38 -165q-44 -6 -80 -20l-6 8q42 174 79 337q9 41 -1 41q-18 0 -64 -44z" />
    <glyph glyph-name="Omacron" unicode="&#x14c;" horiz-adv-x="711" 
d="M431 665q120 0 194 -80t74 -207q0 -163 -104 -278t-262 -115q-119 0 -193 78.5t-74 205.5q0 104 47 194.5t131.5 146t186.5 55.5zM424 629q-72 0 -131.5 -56t-91 -141t-31.5 -175q0 -105 43 -170.5t128 -65.5q76 0 135.5 58.5t88.5 142t29 169.5q0 107 -41 172.5
t-129 65.5zM566 770l-14 -55h-228l14 55h228z" />
    <glyph glyph-name="omacron" unicode="&#x14d;" horiz-adv-x="474" 
d="M180 -12q-69 0 -102 45t-33 112q0 93 43 165.5t108 106.5q61 33 113 33q64 0 99.5 -41.5t35.5 -115.5q0 -67 -28 -133t-79 -109q-75 -63 -157 -63zM217 29q16 0 31 6q41 17 73 90.5t31 167.5q0 58 -21 88t-56 30q-18 0 -36 -8q-35 -17 -68.5 -84t-33.5 -171
q0 -55 21.5 -87t58.5 -32zM420 599l-13 -55h-226l14 55h225z" />
    <glyph glyph-name="Obreve" unicode="&#x14e;" horiz-adv-x="711" 
d="M431 665q120 0 194 -80t74 -207q0 -163 -104 -278t-262 -115q-119 0 -193 78.5t-74 205.5q0 104 47 194.5t131.5 146t186.5 55.5zM424 629q-72 0 -131.5 -56t-91 -141t-31.5 -175q0 -105 43 -170.5t128 -65.5q76 0 135.5 58.5t88.5 142t29 169.5q0 107 -41 172.5
t-129 65.5zM543 815h32q-10 -58 -45.5 -88.5t-90.5 -30.5q-52 0 -79.5 31t-22.5 88h32q10 -59 78 -59q66 0 96 59z" />
    <glyph glyph-name="obreve" unicode="&#x14f;" horiz-adv-x="474" 
d="M180 -12q-69 0 -102 45t-33 112q0 93 43 165.5t108 106.5q61 33 113 33q64 0 99.5 -41.5t35.5 -115.5q0 -67 -28 -133t-79 -109q-75 -63 -157 -63zM217 29q16 0 31 6q41 17 73 90.5t31 167.5q0 58 -21 88t-56 30q-18 0 -36 -8q-35 -17 -68.5 -84t-33.5 -171
q0 -55 21.5 -87t58.5 -32zM395 642h28q-11 -71 -47.5 -102t-85.5 -31q-50 0 -77 31t-14 102h28q1 -35 19.5 -54t51.5 -19t58.5 19.5t38.5 53.5z" />
    <glyph glyph-name="Ohungarumlaut" unicode="&#x150;" horiz-adv-x="711" 
d="M431 665q120 0 194 -80t74 -207q0 -163 -104 -278t-262 -115q-119 0 -193 78.5t-74 205.5q0 104 47 194.5t131.5 146t186.5 55.5zM424 629q-72 0 -131.5 -56t-91 -141t-31.5 -175q0 -105 43 -170.5t128 -65.5q76 0 135.5 58.5t88.5 142t29 169.5q0 107 -41 172.5
t-129 65.5zM472 815v-14l-106 -107l-25 15q28 56 60 124q11 4 37 -3t34 -15zM611 815l-1 -14l-106 -107l-24 15q33 69 59 124q12 4 38 -3.5t34 -14.5z" />
    <glyph glyph-name="ohungarumlaut" unicode="&#x151;" horiz-adv-x="474" 
d="M180 -12q-69 0 -102 45t-33 112q0 93 43 165.5t108 106.5q61 33 113 33q64 0 99.5 -41.5t35.5 -115.5q0 -67 -28 -133t-79 -109q-75 -63 -157 -63zM217 29q16 0 31 6q41 17 73 90.5t31 167.5q0 58 -21 88t-56 30q-18 0 -36 -8q-35 -17 -68.5 -84t-33.5 -171
q0 -55 21.5 -87t58.5 -32zM334 651l-118 -161l-27 16q49 112 63 152q11 3 40 4.5t39 -0.5zM472 651l-118 -161l-25 16q40 94 62 152q10 3 39 4.5t40 -0.5z" />
    <glyph glyph-name="OE" unicode="&#x152;" horiz-adv-x="951" 
d="M861 0h-303q-35 0 -93 -6q-45 -5 -83 -5q-72 0 -128 18.5t-90.5 47t-56.5 67.5t-30.5 76t-8.5 76q0 181 122 284t305 102q42 0 101 -5.5t83 -5.5h274q-1 -8 -7.5 -63t-10.5 -88l-30 -2q0 59 -14 87q-9 18 -29 24.5t-73 6.5h-68q-25 0 -31.5 -6t-11.5 -33l-42 -217h89
q62 0 80 12t37 62h30l-38 -191h-30q1 54 -12 66t-76 12h-87l-34 -176q-14 -77 5 -93q15 -14 96 -14q55 0 82.5 7t47.5 27q33 31 69 95l28 -10q-45 -119 -62 -155zM497 104l86 446q10 47 -16 59q-29 15 -88 15q-61 0 -115 -22t-97 -64t-68.5 -110t-25.5 -153
q0 -43 10.5 -83.5t33.5 -80.5t69.5 -63.5t109.5 -22.5q40 2 63 13q28 12 38 66z" />
    <glyph glyph-name="oe" unicode="&#x153;" horiz-adv-x="690" 
d="M641 130l16 -24q-107 -118 -212 -118q-82 0 -102 87h-1q-30 -38 -77.5 -62.5t-90.5 -24.5q-66 0 -97.5 47t-31.5 112q0 91 41 162t103 106t113 35q41 0 70.5 -22.5t42.5 -65.5h2q35 37 85.5 62.5t90.5 25.5t64.5 -23t24.5 -58t-26 -65.5t-69.5 -52.5t-84.5 -37t-86 -26
q-2 -13 -2 -27q0 -110 78 -110q67 0 149 79zM598 355q1 25 -12 38t-33 13q-23 0 -45 -13q-26 -15 -52 -57t-37 -114q96 27 137 60t42 73zM348 297q0 114 -76 114q-17 0 -33 -7q-36 -14 -68.5 -78.5t-33.5 -171.5q0 -55 19 -89.5t55 -34.5q17 0 32 8q37 16 71 89.5t34 169.5z
" />
    <glyph glyph-name="Racute" unicode="&#x154;" horiz-adv-x="605" 
d="M591 18l-8 -26h-12q-73 3 -107.5 24.5t-62.5 73.5q-27 50 -67 148q-11 28 -24 37t-39 9h-39l-28 -156q-12 -65 -1.5 -80t70.5 -20l-6 -28h-259l7 28q57 6 71.5 20.5t27.5 78.5l78 402q11 61 1.5 74t-69.5 18l6 28h224q99 0 144 -31q62 -40 62 -123q0 -71 -44 -119
t-112 -71q27 -69 59 -134q37 -72 62 -106q26 -34 66 -47zM239 317h43q67 0 105 25q34 23 54 61.5t20 83.5q0 63 -30 96t-83 33q-31 0 -44 -10q-11 -8 -18 -44zM517 754l-2 -8l-192 -63l-13 26q25 16 81.5 52t82.5 53q10 -3 25.5 -24.5t17.5 -35.5z" />
    <glyph glyph-name="racute" unicode="&#x155;" horiz-adv-x="370" 
d="M61 327l-14 24q38 42 80 70.5t64 28.5q38 0 14 -116l-10 -49h3q38 74 78.5 119.5t69.5 45.5q30 0 44 -26q14 -21 -1 -46q-12 -20 -28 -31q-13 -11 -23 -1q-16 18 -35 18t-48 -41q-46 -64 -69 -122q-18 -77 -40 -194q-42 -7 -78 -19l-8 8q47 190 72 333q8 44 -2 44
q-7 0 -28.5 -14t-40.5 -32zM401 661l-158 -170l-25 16q47 75 92 158q10 3 43 6.5t45 2.5z" />
    <glyph glyph-name="Rcommaaccent" unicode="&#x156;" horiz-adv-x="605" 
d="M591 18l-8 -26h-12q-73 3 -107.5 24.5t-62.5 73.5q-27 50 -67 148q-11 28 -24 37t-39 9h-39l-28 -156q-12 -65 -1.5 -80t70.5 -20l-6 -28h-259l7 28q57 6 71.5 20.5t27.5 78.5l78 402q11 61 1.5 74t-69.5 18l6 28h224q99 0 144 -31q62 -40 62 -123q0 -71 -44 -119
t-112 -71q27 -69 59 -134q37 -72 62 -106q26 -34 66 -47zM239 317h43q67 0 105 25q34 23 54 61.5t20 83.5q0 63 -30 96t-83 33q-31 0 -44 -10q-11 -8 -18 -44zM336 -20q25 0 43 -18.5t19 -48.5q0 -48 -36.5 -77t-86.5 -40l-8 28q34 13 51.5 26.5t17.5 33.5q0 25 -36 36
q-12 3 -12 20t13.5 28.5t34.5 11.5z" />
    <glyph glyph-name="rcommaaccent" unicode="&#x157;" horiz-adv-x="370" 
d="M61 327l-14 24q38 42 80 70.5t64 28.5q38 0 14 -116l-10 -49h3q38 74 78.5 119.5t69.5 45.5q30 0 44 -26q14 -21 -1 -46q-12 -20 -28 -31q-13 -11 -23 -1q-16 18 -35 18t-48 -41q-46 -64 -69 -122q-18 -77 -40 -194q-42 -7 -78 -19l-8 8q47 190 72 333q8 44 -2 44
q-7 0 -28.5 -14t-40.5 -32zM94 -38q26 0 44 -18.5t18 -48.5q1 -48 -35.5 -77t-86.5 -40l-9 28q69 26 69 59q0 26 -36 37q-12 3 -12 20t14 28.5t34 11.5z" />
    <glyph glyph-name="Rcaron" unicode="&#x158;" horiz-adv-x="605" 
d="M591 18l-8 -26h-12q-73 3 -107.5 24.5t-62.5 73.5q-27 50 -67 148q-11 28 -24 37t-39 9h-39l-28 -156q-12 -65 -1.5 -80t70.5 -20l-6 -28h-259l7 28q57 6 71.5 20.5t27.5 78.5l78 402q11 61 1.5 74t-69.5 18l6 28h224q99 0 144 -31q62 -40 62 -123q0 -71 -44 -119
t-112 -71q27 -69 59 -134q37 -72 62 -106q26 -34 66 -47zM239 317h43q67 0 105 25q34 23 54 61.5t20 83.5q0 63 -30 96t-83 33q-31 0 -44 -10q-11 -8 -18 -44zM488 815l15 -23q-76 -50 -138 -106h-27q-43 52 -104 106l19 23q50 -21 108 -58q76 40 127 58z" />
    <glyph glyph-name="rcaron" unicode="&#x159;" horiz-adv-x="370" 
d="M61 327l-14 24q38 42 80 70.5t64 28.5q38 0 14 -116l-10 -49h3q38 74 78.5 119.5t69.5 45.5q30 0 44 -26q14 -21 -1 -46q-12 -20 -28 -31q-13 -11 -23 -1q-16 18 -35 18t-48 -41q-46 -64 -69 -122q-18 -77 -40 -194q-42 -7 -78 -19l-8 8q47 190 72 333q8 44 -2 44
q-7 0 -28.5 -14t-40.5 -32zM367 674l23 -19q-81 -91 -131 -162h-24q-27 78 -72 163l26 18q30 -34 71 -94q57 56 107 94z" />
    <glyph glyph-name="Sacute" unicode="&#x15a;" horiz-adv-x="472" 
d="M37 197l29 3q6 -43 21.5 -80.5t52 -68.5t87.5 -31q54 0 86 34.5t32 91.5q0 39 -22 71t-68 68l-29 22q-23 18 -39 33t-35 37.5t-29 50t-10 56.5q0 79 57.5 130t147.5 51q48 0 99 -17q11 -4 26 -10t17 -7q0 -1 -3 -142l-30 -3q-16 145 -120 145q-49 0 -79 -34t-30 -80
q0 -39 22.5 -68.5t67.5 -63.5l30 -22q58 -43 88 -85.5t30 -99.5q0 -86 -65 -139.5t-157 -53.5q-56 0 -105 19.5t-69 42.5q0 10 -1 60.5t-2 89.5zM473 770l-3 -8l-192 -63l-13 26q25 16 81.5 52t82.5 53q10 -3 25.5 -24.5t18.5 -35.5z" />
    <glyph glyph-name="sacute" unicode="&#x15b;" horiz-adv-x="340" 
d="M114 -12q-36 0 -69.5 23.5t-34.5 50.5q0 26 31 44q17 9 26 -3q44 -63 100 -63q27 0 44.5 16.5t17.5 39.5q0 36 -60 82q-29 22 -44.5 36t-30 38.5t-14.5 49.5q0 54 54 99q24 21 56.5 35t57.5 14q33 0 56.5 -18t23.5 -40q0 -27 -27 -44q-14 -8 -23 4q-37 48 -80 48
q-22 0 -36.5 -15t-14.5 -38t16.5 -42.5t49.5 -44.5q46 -34 66 -60t20 -59q0 -57 -60.5 -105t-124.5 -48zM385 661l-158 -170l-25 16q47 75 92 158q10 3 43 6.5t45 2.5z" />
    <glyph glyph-name="Scircumflex" unicode="&#x15c;" horiz-adv-x="472" 
d="M37 197l29 3q6 -43 21.5 -80.5t52 -68.5t87.5 -31q54 0 86 34.5t32 91.5q0 39 -22 71t-68 68l-29 22q-23 18 -39 33t-35 37.5t-29 50t-10 56.5q0 79 57.5 130t147.5 51q48 0 99 -17q11 -4 26 -10t17 -7q0 -1 -3 -142l-30 -3q-16 145 -120 145q-49 0 -79 -34t-30 -80
q0 -39 22.5 -68.5t67.5 -63.5l30 -22q58 -43 88 -85.5t30 -99.5q0 -86 -65 -139.5t-157 -53.5q-56 0 -105 19.5t-69 42.5q0 10 -1 60.5t-2 89.5zM453 717l-18 -23q-52 22 -110 57q-75 -39 -127 -57l-14 24q76 49 138 105h26q40 -46 105 -106z" />
    <glyph glyph-name="scircumflex" unicode="&#x15d;" horiz-adv-x="340" 
d="M114 -12q-36 0 -69.5 23.5t-34.5 50.5q0 26 31 44q17 9 26 -3q44 -63 100 -63q27 0 44.5 16.5t17.5 39.5q0 36 -60 82q-29 22 -44.5 36t-30 38.5t-14.5 49.5q0 54 54 99q24 21 56.5 35t57.5 14q33 0 56.5 -18t23.5 -40q0 -27 -27 -44q-14 -8 -23 4q-37 48 -80 48
q-22 0 -36.5 -15t-14.5 -38t16.5 -42.5t49.5 -44.5q46 -34 66 -60t20 -59q0 -57 -60.5 -105t-124.5 -48zM344 507l-25 -18q-27 29 -72 94q-60 -58 -109 -94l-21 19q87 97 131 162h25q22 -70 71 -163z" />
    <glyph glyph-name="Scedilla" unicode="&#x15e;" horiz-adv-x="472" 
d="M37 197l29 3q4 -31 14.5 -60t29 -57t49 -45t69.5 -17q53 0 85.5 34.5t32.5 90.5q0 40 -22 71.5t-68 67.5l-31 23q-31 24 -51.5 44t-40.5 56t-20 74q0 80 58.5 131.5t149.5 51.5q47 0 96 -17q10 -4 24.5 -10t18.5 -7q0 -1 -3 -142l-30 -3q-16 144 -123 144q-50 0 -78 -33
t-28 -80q0 -39 22.5 -68.5t67.5 -62.5l31 -23q57 -41 87 -83.5t30 -99.5q0 -81 -57 -134t-141 -59l-11 -13q-10 -13 -10 -21t11 -20q29 -35 29 -65q-1 -29 -35 -56t-86 -42l-12 27q67 31 68 59q1 13 -17 36q-16 18 -17 29.5t13 29.5l28 35q-50 3 -94.5 21t-64.5 40
q0 10 -1 60.5t-2 89.5z" />
    <glyph glyph-name="scedilla" unicode="&#x15f;" horiz-adv-x="338" 
d="M247 450q32 0 56.5 -18.5t24.5 -39.5q0 -27 -27 -44q-15 -10 -23 4q-37 47 -80 47q-22 0 -36.5 -14.5t-14.5 -37.5t16.5 -43t49.5 -45q46 -34 65 -59.5t19 -58.5q0 -47 -42 -89t-97 -57l-15 -18q-11 -13 -11 -20.5t11 -20.5q29 -38 28 -65q-1 -29 -35.5 -56t-84.5 -42
l-13 28q66 28 69 57q1 12 -17 37q-16 18 -17.5 29t12.5 29l29 35v1q-36 -2 -70.5 21t-34.5 51q-2 27 30 44q18 9 27 -3q45 -62 99 -62q28 1 44.5 17t16.5 39q0 36 -58 83q-28 22 -43.5 36t-30 38t-14.5 48q0 55 54 100q58 49 113 49z" />
    <glyph glyph-name="Scaron" unicode="&#x160;" horiz-adv-x="472" 
d="M37 197l29 3q6 -43 21.5 -80.5t52 -68.5t87.5 -31q54 0 86 34.5t32 91.5q0 39 -22 71t-68 68l-29 22q-23 18 -39 33t-35 37.5t-29 50t-10 56.5q0 79 57.5 130t147.5 51q48 0 99 -17q11 -4 26 -10t17 -7q0 -1 -3 -142l-30 -3q-16 145 -120 145q-49 0 -79 -34t-30 -80
q0 -39 22.5 -68.5t67.5 -63.5l30 -22q58 -43 88 -85.5t30 -99.5q0 -86 -65 -139.5t-157 -53.5q-56 0 -105 19.5t-69 42.5q0 10 -1 60.5t-2 89.5zM448 831l14 -22q-85 -58 -138 -107h-26q-44 53 -105 107l20 22q54 -23 108 -57q73 39 127 57z" />
    <glyph glyph-name="scaron" unicode="&#x161;" horiz-adv-x="340" 
d="M114 -12q-36 0 -69.5 23.5t-34.5 50.5q0 26 31 44q17 9 26 -3q44 -63 100 -63q27 0 44.5 16.5t17.5 39.5q0 36 -60 82q-29 22 -44.5 36t-30 38.5t-14.5 49.5q0 54 54 99q24 21 56.5 35t57.5 14q33 0 56.5 -18t23.5 -40q0 -27 -27 -44q-14 -8 -23 4q-37 48 -80 48
q-22 0 -36.5 -15t-14.5 -38t16.5 -42.5t49.5 -44.5q46 -34 66 -60t20 -59q0 -57 -60.5 -105t-124.5 -48zM351 674l23 -19q-87 -97 -131 -162h-24q-24 70 -72 163l26 18q34 -39 70 -94q63 59 108 94z" />
    <glyph glyph-name="uni0162" unicode="&#x162;" horiz-adv-x="606" 
d="M638 674h23q-10 -51 -24 -178l-32 -2q0 66 -12 91q-7 17 -28.5 23t-75.5 6h-59l-93 -493q-11 -59 2.5 -74t80.5 -19l-6 -28h-111l-23 -28q-11 -13 -11 -21t12 -22q32 -39 32 -69q-2 -32 -38 -60.5t-92 -45.5l-13 29q72 33 73 62q1 15 -19 40q-17 19 -18 32t14 32l42 51
h-129l7 28q62 4 78.5 19t27.5 74l94 493h-50q-59 0 -82 -6.5t-38 -23.5q-22 -26 -50 -90h-31q32 107 47 180h23q7 -16 16.5 -20.5t30.5 -4.5h380q18 0 27.5 5t24.5 20z" />
    <glyph glyph-name="uni0163" unicode="&#x163;" horiz-adv-x="310" 
d="M218 393l-57 -271q-12 -60 6 -60q12 0 40.5 19t47.5 38l14 -23q-31 -38 -80 -73l-38 -48q-10 -13 -10 -21t11 -21q30 -37 30 -66q-2 -29 -37 -56.5t-87 -43.5l-13 28q67 30 70 59q1 11 -18 38q-16 18 -17.5 29.5t13.5 30.5l30 39q-9 -3 -19 -3q-14 0 -22.5 12t-11 41.5
t9.5 80.5l58 271h-73l-3 9l25 32h60l23 94l83 65l10 -7l-35 -152h115l-27 -36z" />
    <glyph glyph-name="Tcaron" unicode="&#x164;" horiz-adv-x="606" 
d="M638 674h23q-10 -51 -24 -178l-32 -2q0 66 -12 91q-7 17 -28.5 23t-75.5 6h-59l-93 -493q-11 -59 2.5 -74t80.5 -19l-6 -28h-281l7 28q62 4 78.5 19t27.5 74l94 493h-50q-59 0 -82 -6.5t-38 -23.5q-22 -26 -50 -90h-31q32 107 47 180h23q7 -16 16.5 -20.5t30.5 -4.5h380
q18 0 27.5 5t24.5 20zM532 815l14 -23q-81 -54 -138 -106h-26q-41 49 -105 106l19 23q45 -18 109 -58q74 39 127 58z" />
    <glyph glyph-name="tcaron" unicode="&#x165;" horiz-adv-x="310" 
d="M343 434l-27 -36l-98 -5l-57 -271q-12 -60 6 -60q12 0 40.5 19t47.5 38l14 -23q-31 -37 -80 -72.5t-85 -35.5q-14 0 -22.5 12t-11 41.5t9.5 80.5l58 271h-73l-3 9l25 32h60l23 94l83 65l10 -7l-35 -152h115zM368 678q23 0 37 -18.5t14 -47.5q0 -45 -30 -74.5t-74 -41.5
l-11 26q58 30 58 62q0 22 -25 35q-10 3 -10 20q0 16 12 27.5t29 11.5z" />
    <glyph glyph-name="Tbar" unicode="&#x166;" horiz-adv-x="601" 
d="M638 674h21q-10 -49 -24 -177l-32 -3q0 63 -14 92q-8 18 -29 23t-76 5h-55l-50 -264h145l-11 -39h-141l-36 -190q-11 -60 2 -74t81 -19l-6 -28h-281l7 28q63 4 78.5 18.5t27.5 74.5l36 190h-132l10 39h129l51 264h-40q-61 0 -87.5 -6t-40.5 -23q-23 -26 -51 -91h-32
q32 100 48 180h21q7 -16 16 -20.5t31 -4.5h381q19 0 28.5 5t24.5 20z" />
    <glyph glyph-name="tbar" unicode="&#x167;" horiz-adv-x="314" 
d="M348 434l-27 -36l-99 -5l-28 -131h97l-13 -38h-92l-21 -102q-13 -60 5 -60q12 0 40.5 19t47.5 38l15 -23q-30 -38 -79.5 -73t-85.5 -35q-52 0 -24 134l22 102h-73l14 38h67l28 131h-73l-4 9l26 32h61l23 94l83 65l10 -8l-36 -151h116z" />
    <glyph glyph-name="Utilde" unicode="&#x168;" horiz-adv-x="707" 
d="M776 649l-7 -28q-46 -2 -62.5 -13.5t-26.5 -42.5q-16 -54 -40 -176l-16 -81q-35 -181 -116 -257q-72 -66 -173 -66q-98 0 -156 54q-77 72 -45 242l47 249q11 59 0.5 72.5t-69.5 18.5l7 28h255l-6 -28q-56 -5 -70.5 -18.5t-25.5 -72.5l-46 -244q-24 -126 15.5 -186
t119.5 -60q88 0 141 66.5t81 209.5l15 73q23 122 26 177q1 30 -16.5 41t-72.5 14l7 28h234zM578 794l26 -16q-29 -83 -82 -83q-19 0 -69 23q-30 12 -43 12q-26 0 -48 -44l-25 19q31 82 81 82q21 0 61 -18q37 -17 52 -17q23 0 47 42z" />
    <glyph glyph-name="utilde" unicode="&#x169;" horiz-adv-x="535" 
d="M495 116l14 -24q-38 -45 -82 -74.5t-68 -29.5q-42 0 -18 105q8 31 18 84h-2q-74 -102 -159 -160q-41 -29 -79 -29q-64 0 -34 131q7 30 25 105t27 116q8 35 -2 35q-13 0 -68 -46l-12 26q43 42 86 68.5t66 26.5q18 0 21.5 -19t-8.5 -71l-54 -234q-15 -66 11 -66
q37 0 101 69t96 128q2 8 15.5 69t21.5 98l77 26h11q-51 -208 -77 -344q-8 -40 3 -40q7 0 29.5 15.5t40.5 34.5zM450 622l25 -13q-33 -88 -82 -88q-8 0 -17 2.5t-15 5l-18 7.5t-18 8q-22 12 -43 12q-24 0 -48 -43l-24 16q33 86 82 86q19 0 59 -18q36 -17 53 -17q21 0 46 42z
" />
    <glyph glyph-name="Umacron" unicode="&#x16a;" horiz-adv-x="707" 
d="M776 649l-7 -28q-46 -2 -62.5 -13.5t-26.5 -42.5q-16 -54 -40 -176l-16 -81q-35 -181 -116 -257q-72 -66 -173 -66q-98 0 -156 54q-77 72 -45 242l47 249q11 59 0.5 72.5t-69.5 18.5l7 28h255l-6 -28q-56 -5 -70.5 -18.5t-25.5 -72.5l-46 -244q-24 -126 15.5 -186
t119.5 -60q88 0 141 66.5t81 209.5l15 73q23 122 26 177q1 30 -16.5 41t-72.5 14l7 28h234zM591 767l-14 -54h-229l15 54h228z" />
    <glyph glyph-name="umacron" unicode="&#x16b;" horiz-adv-x="535" 
d="M495 116l14 -24q-38 -45 -82 -74.5t-68 -29.5q-42 0 -18 105q8 31 18 84h-2q-74 -102 -159 -160q-41 -29 -79 -29q-64 0 -34 131q7 30 25 105t27 116q8 35 -2 35q-13 0 -68 -46l-12 26q43 42 86 68.5t66 26.5q18 0 21.5 -19t-8.5 -71l-54 -234q-15 -66 11 -66
q37 0 101 69t96 128q2 8 15.5 69t21.5 98l77 26h11q-51 -208 -77 -344q-8 -40 3 -40q7 0 29.5 15.5t40.5 34.5zM448 599l-13 -55h-226l14 55h225z" />
    <glyph glyph-name="Ubreve" unicode="&#x16c;" horiz-adv-x="707" 
d="M776 649l-7 -28q-46 -2 -62.5 -13.5t-26.5 -42.5q-16 -54 -40 -176l-16 -81q-35 -181 -116 -257q-72 -66 -173 -66q-98 0 -156 54q-77 72 -45 242l47 249q11 59 0.5 72.5t-69.5 18.5l7 28h255l-6 -28q-56 -5 -70.5 -18.5t-25.5 -72.5l-46 -244q-24 -126 15.5 -186
t119.5 -60q88 0 141 66.5t81 209.5l15 73q23 122 26 177q1 30 -16.5 41t-72.5 14l7 28h234zM560 801h31q-10 -57 -45.5 -88t-89.5 -31q-52 0 -79.5 31t-22.5 88h31q11 -59 78 -59t97 59z" />
    <glyph glyph-name="ubreve" unicode="&#x16d;" horiz-adv-x="535" 
d="M495 116l14 -24q-38 -45 -82 -74.5t-68 -29.5q-42 0 -18 105q8 31 18 84h-2q-74 -102 -159 -160q-41 -29 -79 -29q-64 0 -34 131q7 30 25 105t27 116q8 35 -2 35q-13 0 -68 -46l-12 26q43 42 86 68.5t66 26.5q18 0 21.5 -19t-8.5 -71l-54 -234q-15 -66 11 -66
q37 0 101 69t96 128q2 8 15.5 69t21.5 98l77 26h11q-51 -208 -77 -344q-8 -40 3 -40q7 0 29.5 15.5t40.5 34.5zM436 642h28q-11 -71 -47.5 -102t-85.5 -31q-50 0 -77 31t-14 102h28q1 -35 19.5 -54t51.5 -19t58.5 19.5t38.5 53.5z" />
    <glyph glyph-name="Uring" unicode="&#x16e;" horiz-adv-x="707" 
d="M776 649l-7 -28q-46 -2 -62.5 -13.5t-26.5 -42.5q-16 -54 -40 -176l-16 -81q-35 -181 -116 -257q-72 -66 -173 -66q-98 0 -156 54q-77 72 -45 242l47 249q11 59 0.5 72.5t-69.5 18.5l7 28h255l-6 -28q-56 -5 -70.5 -18.5t-25.5 -72.5l-46 -244q-24 -126 15.5 -186
t119.5 -60q88 0 141 66.5t81 209.5l15 73q23 122 26 177q1 30 -16.5 41t-72.5 14l7 28h234zM559 760q-1 -38 -30 -62.5t-67 -24.5q-36 0 -58.5 22.5t-21.5 57.5q1 41 29.5 66t66.5 25q34 0 58 -23t23 -61zM513 761q0 22 -10 35.5t-28 13.5q-20 0 -33 -15.5t-14 -39.5
q0 -21 10 -34t28 -13q20 0 33 15t14 38z" />
    <glyph glyph-name="uring" unicode="&#x16f;" horiz-adv-x="535" 
d="M495 116l14 -24q-38 -45 -82 -74.5t-68 -29.5q-42 0 -18 105q8 31 18 84h-2q-74 -102 -159 -160q-41 -29 -79 -29q-64 0 -34 131q7 30 25 105t27 116q8 35 -2 35q-13 0 -68 -46l-12 26q43 42 86 68.5t66 26.5q18 0 21.5 -19t-8.5 -71l-54 -234q-15 -66 11 -66
q37 0 101 69t96 128q2 8 15.5 69t21.5 98l77 26h11q-51 -208 -77 -344q-8 -40 3 -40q7 0 29.5 15.5t40.5 34.5zM347 666q35 0 60 -23.5t24 -62.5q-1 -40 -31 -64t-69 -24q-37 0 -60 23t-22 59q1 41 30.5 66.5t67.5 25.5zM344 632q-19 0 -33 -16t-15 -40q0 -22 10.5 -36
t28.5 -14q20 0 33.5 16t14.5 40q1 22 -9.5 36t-29.5 14z" />
    <glyph glyph-name="Uhungarumlaut" unicode="&#x170;" horiz-adv-x="707" 
d="M776 649l-7 -28q-46 -2 -62.5 -13.5t-26.5 -42.5q-16 -54 -40 -176l-16 -81q-35 -181 -116 -257q-72 -66 -173 -66q-98 0 -156 54q-77 72 -45 242l47 249q11 59 0.5 72.5t-69.5 18.5l7 28h255l-6 -28q-56 -5 -70.5 -18.5t-25.5 -72.5l-46 -244q-24 -126 15.5 -186
t119.5 -60q88 0 141 66.5t81 209.5l15 73q23 122 26 177q1 30 -16.5 41t-72.5 14l7 28h234zM490 805v-14l-106 -107l-25 15q17 33 60 124q11 4 37 -3t34 -15zM629 805l-1 -14l-105 -107l-25 15q33 69 59 124q12 4 38 -3.5t34 -14.5z" />
    <glyph glyph-name="uhungarumlaut" unicode="&#x171;" horiz-adv-x="535" 
d="M495 116l14 -24q-38 -45 -82 -74.5t-68 -29.5q-42 0 -18 105q8 31 18 84h-2q-74 -102 -159 -160q-41 -29 -79 -29q-64 0 -34 131q7 30 25 105t27 116q8 35 -2 35q-13 0 -68 -46l-12 26q43 42 86 68.5t66 26.5q18 0 21.5 -19t-8.5 -71l-54 -234q-15 -66 11 -66
q37 0 101 69t96 128q2 8 15.5 69t21.5 98l77 26h11q-51 -208 -77 -344q-8 -40 3 -40q7 0 29.5 15.5t40.5 34.5zM370 651l-118 -161l-27 16q57 138 63 152q10 3 39.5 4.5t39.5 -0.5zM508 651l-118 -161l-25 16q7 17 22 54t26 64.5t13 33.5q11 3 40 4.5t39 -0.5z" />
    <glyph glyph-name="Uogonek" unicode="&#x172;" horiz-adv-x="707" 
d="M776 649l-7 -28q-47 -2 -63.5 -13.5t-25.5 -42.5q-16 -54 -40 -176l-15 -81q-37 -182 -117 -256q-51 -46 -114 -60q-94 -76 -94 -141q0 -16 11.5 -26.5t29.5 -10.5q21 0 47 11l8 -28l-56 -29q-20 -11 -43 -11q-31 0 -51.5 18.5t-20.5 50.5q0 75 113 159v1
q-101 -2 -160 53q-76 72 -44 242l47 249q11 59 0.5 72.5t-69.5 18.5l7 28h255l-6 -28q-56 -5 -70.5 -18.5t-25.5 -72.5l-46 -244q-24 -126 15.5 -185.5t119.5 -59.5q88 0 141 66t81 209l14 73q22 112 26 177q1 30 -16.5 41t-71.5 14l7 28h234z" />
    <glyph glyph-name="uogonek" unicode="&#x173;" horiz-adv-x="535" 
d="M495 116l13 -24q-65 -77 -124 -97q-92 -72 -92 -143q0 -15 10 -24t27 -10q17 0 45 12l7 -28l-54 -30q-17 -10 -41 -10q-29 0 -48 17.5t-19 47.5q0 40 35 86.5t89 87.5q-19 23 -2 92q3 14 9 41t9 42h-2q-74 -99 -158 -159q-41 -29 -80 -29q-64 0 -34 131q7 30 25 105
t27 116q8 35 -3 35q-12 0 -67 -46l-12 26q43 42 86 68.5t66 26.5q18 0 21 -19t-8 -71l-54 -234q-15 -65 11 -65q37 0 101 69t96 128q33 148 37 166l76 26h12q-45 -175 -78 -344q-8 -40 3 -40q7 0 29.5 15.5t41.5 34.5z" />
    <glyph glyph-name="Wcircumflex" unicode="&#x174;" horiz-adv-x="950" 
d="M1010 649l-6 -28q-49 -7 -66 -20.5t-47 -73.5q-56 -106 -255 -537h-33l-81 487h-3l-235 -487h-34l-61 536q-7 62 -19 76t-62 19l6 28h234l-7 -28l-25 -3q-30 -5 -37 -16t-3 -51l43 -406h2l232 493h32l82 -495h2q149 324 180 405q16 41 9.5 53t-44.5 17l-25 3l6 28h215z
M705 705l-19 -24q-60 27 -109 58q-69 -37 -128 -58l-13 24q77 50 138 106l26 -1q47 -55 105 -105z" />
    <glyph glyph-name="wcircumflex" unicode="&#x175;" horiz-adv-x="672" 
d="M463 97h2q134 184 135 249q0 25 -11 47q-7 13 0 26q13 31 43 31q20 0 33 -16.5t12 -42.5q0 -37 -40 -104q-44 -70 -212 -299h-31q-14 166 -30 304h-2q-86 -143 -186 -304h-29q-1 131 -12 322q-3 63 -15 63q-11 0 -59 -49l-16 21q34 45 70.5 75t60.5 30q36 0 39 -103
q4 -160 3 -226h2q135 230 182 314h26q7 -64 19 -181t16 -157zM526 507l-24 -18q-35 37 -72 94q-56 -54 -109 -94l-21 19q88 101 131 162h24q26 -77 71 -163z" />
    <glyph glyph-name="Ycircumflex" unicode="&#x176;" horiz-adv-x="615" 
d="M690 649l-8 -28q-48 -5 -68 -17.5t-58 -59.5q-46 -58 -161 -222q-17 -25 -25 -58l-28 -138q-13 -63 -0.5 -77.5t80.5 -20.5l-7 -28h-276l7 28q62 5 77.5 19.5t28.5 78.5l26 132q7 29 -5 60q-42 116 -85 230q-17 46 -31.5 57t-61.5 16l8 28h237l-7 -28l-34 -5
q-24 -4 -28.5 -12.5t2.5 -30.5q57 -159 88 -237q111 156 156 232q15 26 10.5 35t-33.5 14l-29 4l8 28h217zM544 707l-19 -23q-54 23 -109 57q-79 -40 -128 -57l-14 24q76 49 138 105h27q41 -49 105 -106z" />
    <glyph glyph-name="ycircumflex" unicode="&#x177;" horiz-adv-x="447" 
d="M245 79h2q130 196 130 268q0 19 -12 48q-5 12 2 27q14 28 44 28q18 0 30 -15.5t12 -41.5q2 -43 -36 -107q-70 -126 -177 -276q-108 -155 -182 -237l-109 -28l-8 23q136 89 233 218q-2 131 -32 328q-9 59 -21 59q-7 0 -23 -16t-34 -41l-18 24q29 45 63 77.5t60 32.5
q41 0 54 -121q14 -106 22 -250zM400 507l-25 -18q-27 29 -72 94q-60 -58 -109 -94l-21 19q87 97 131 162h25q22 -70 71 -163z" />
    <glyph glyph-name="Ydieresis" unicode="&#x178;" horiz-adv-x="615" 
d="M690 649l-8 -28q-48 -5 -68 -17.5t-58 -59.5q-46 -58 -161 -222q-17 -25 -25 -58l-28 -138q-13 -63 -0.5 -77.5t80.5 -20.5l-7 -28h-276l7 28q62 5 77.5 19.5t28.5 78.5l26 132q7 29 -5 60q-42 116 -85 230q-17 46 -31.5 57t-61.5 16l8 28h237l-7 -28l-34 -5
q-24 -4 -28.5 -12.5t2.5 -30.5q57 -159 88 -237q111 156 156 232q15 26 10.5 35t-33.5 14l-29 4l8 28h217zM321 797q20 0 31 -13t11 -32q0 -25 -15 -42t-39 -17q-18 0 -30 12.5t-12 31.5q0 22 14.5 41t39.5 19zM512 797q19 0 30 -13.5t11 -31.5q0 -24 -15 -41.5t-38 -17.5
q-19 0 -30.5 12t-12.5 32q0 23 15 41.5t40 18.5z" />
    <glyph glyph-name="Zacute" unicode="&#x179;" horiz-adv-x="591" 
d="M614 649l6 -14q-267 -324 -483 -594q46 -5 150 -5q78 0 118 6t63 25q33 28 75 111l29 -13q-41 -124 -60 -165h-504l-7 16q289 349 489 598h-151q-70 0 -95.5 -7.5t-41.5 -27.5q-27 -30 -52 -95l-30 3q26 95 42 187h21q9 -16 18.5 -20.5t31.5 -4.5h381zM540 754l-3 -8
l-192 -63l-13 26q25 16 81.5 52t82.5 53q10 -3 25.5 -24.5t18.5 -35.5z" />
    <glyph glyph-name="zacute" unicode="&#x17a;" horiz-adv-x="417" 
d="M424 464l20 -22q-20 -26 -61 -70q-50 -56 -265 -274q29 1 77 -16q68 -24 88 -24q44 0 101 85l24 -18q-40 -81 -73 -113.5t-68 -32.5q-33 0 -133 49q-43 20 -65 5q-17 -11 -31 -34q-7 -10 -13 -8q-10 4 -12.5 15t8.5 34.5t40 53.5q26 27 125.5 126t150.5 153
q-26 -6 -63 -3q-58 5 -91 6q-33 0 -53.5 -20t-46.5 -64l-26 14q19 44 42 83q38 59 75 59q31 0 103 -12q53 -10 84 -10q28 0 63 38zM412 661l-158 -170l-25 16q47 75 92 158q10 3 43 6.5t45 2.5z" />
    <glyph glyph-name="Zdotaccent" unicode="&#x17b;" horiz-adv-x="591" 
d="M614 649l6 -14q-267 -324 -483 -594q46 -5 150 -5q78 0 118 6t63 25q33 28 75 111l29 -13q-41 -124 -60 -165h-504l-7 16q289 349 489 598h-151q-70 0 -95.5 -7.5t-41.5 -27.5q-27 -30 -52 -95l-30 3q26 95 42 187h21q9 -16 18.5 -20.5t31.5 -4.5h381zM387 807
q21 0 32.5 -14t11.5 -34q0 -25 -16 -43t-40 -18q-20 0 -32.5 13t-12.5 34q0 22 16 42t41 20z" />
    <glyph glyph-name="zdotaccent" unicode="&#x17c;" horiz-adv-x="417" 
d="M424 464l20 -22q-20 -26 -61 -70q-50 -56 -265 -274q29 1 77 -16q68 -24 88 -24q44 0 101 85l24 -18q-40 -81 -73 -113.5t-68 -32.5q-33 0 -133 49q-43 20 -65 5q-17 -11 -31 -34q-7 -10 -13 -8q-10 4 -12.5 15t8.5 34.5t40 53.5q26 27 125.5 126t150.5 153
q-26 -6 -63 -3q-58 5 -91 6q-33 0 -53.5 -20t-46.5 -64l-26 14q19 44 42 83q38 59 75 59q31 0 103 -12q53 -10 84 -10q28 0 63 38zM292 638q21 0 32.5 -13.5t11.5 -34.5q0 -25 -16 -43t-40 -18q-20 0 -32.5 13t-12.5 34q0 23 15.5 42.5t41.5 19.5z" />
    <glyph glyph-name="Zcaron" unicode="&#x17d;" horiz-adv-x="591" 
d="M614 649l6 -14q-267 -324 -483 -594q46 -5 150 -5q78 0 118 6t63 25q33 28 75 111l29 -13q-41 -124 -60 -165h-504l-7 16q289 349 489 598h-151q-70 0 -95.5 -7.5t-41.5 -27.5q-27 -30 -52 -95l-30 3q26 95 42 187h21q9 -16 18.5 -20.5t31.5 -4.5h381zM515 817l14 -23
q-81 -54 -138 -106h-26q-41 49 -105 106l19 23q45 -18 109 -58q71 38 127 58z" />
    <glyph glyph-name="zcaron" unicode="&#x17e;" horiz-adv-x="417" 
d="M424 464l20 -22q-20 -26 -61 -70q-50 -56 -265 -274q29 1 77 -16q68 -24 88 -24q44 0 101 85l24 -18q-40 -81 -73 -113.5t-68 -32.5q-33 0 -133 49q-43 20 -65 5q-17 -11 -31 -34q-7 -10 -13 -8q-10 4 -12.5 15t8.5 34.5t40 53.5q26 27 125.5 126t150.5 153
q-26 -6 -63 -3q-58 5 -91 6q-33 0 -53.5 -20t-46.5 -64l-26 14q19 44 42 83q38 59 75 59q31 0 103 -12q53 -10 84 -10q28 0 63 38zM385 674l23 -19q-87 -97 -131 -162h-24q-24 70 -72 163l26 18q34 -39 70 -94q63 59 108 94z" />
    <glyph glyph-name="longs" unicode="&#x17f;" horiz-adv-x="233" 
d="M349 710q26 0 44 -15t17 -30q-2 -26 -28 -46q-15 -8 -24 1q-34 36 -64 36q-19 0 -33 -17.5t-30.5 -74.5t-32.5 -157q-41 -253 -56 -323q-25 -114 -53.5 -175t-74.5 -104q-60 -60 -112 -60q-23 0 -43 14t-20 30q0 23 29 45q12 10 21 1q29 -27 63 -27q25 0 40 20
q32 32 66 243q7 42 16 99t15.5 96t12.5 76q34 197 110 288q28 35 66.5 57.5t70.5 22.5z" />
    <glyph glyph-name="florin" unicode="&#x192;" horiz-adv-x="480" 
d="M205 371l12 50q26 110 104 175q69 56 124 56q22 0 40.5 -13.5t17.5 -30.5q0 -24 -23 -39q-11 -9 -22 0q-37 32 -65 32q-24 0 -42 -26q-23 -36 -54 -204h119l-11 -37h-116l-39 -183q-23 -110 -57.5 -165t-80.5 -87q-52 -37 -91 -37q-21 0 -38.5 13.5t-17.5 28.5
q0 22 26 42q10 8 19 0q34 -30 62 -30q25 0 41 35q22 56 42 166l41 217h-95l11 37h93z" />
    <glyph glyph-name="Ohorn" unicode="&#x1a0;" horiz-adv-x="711" 
d="M333 -15q-119 0 -193 78.5t-74 205.5q0 104 47 194.5t131.5 146t186.5 55.5q37 0 67 -8q57 -13 97 -13q35 0 56 11t21 25q0 17 -29 22q-19 5 -19 23q0 20 17.5 34t38.5 14q47 0 47 -50q0 -48 -35 -78.5t-93 -36.5q100 -79 100 -230q0 -163 -104 -278t-262 -115zM341 21
q76 0 135.5 58.5t88.5 142t29 169.5q0 107 -41 172.5t-129 65.5q-72 0 -131.5 -56t-91 -141t-31.5 -175q0 -105 43 -170.5t128 -65.5z" />
    <glyph glyph-name="ohorn" unicode="&#x1a1;" horiz-adv-x="474" 
d="M217 29q16 0 31 6q41 17 73 90.5t31 167.5q0 58 -21 88t-56 30q-18 0 -36 -8q-35 -17 -68.5 -84t-33.5 -171q0 -55 21.5 -87t58.5 -32zM180 -12q-69 0 -102 45t-33 112q0 93 43 165.5t108 106.5q61 33 113 33q26 0 47 -6q20 -6 40 -6q28 0 45 10t17 22q0 11 -6 15.5
t-24 7.5q-20 6 -20 24q0 20 15.5 33.5t35.5 13.5q48 0 48 -56q0 -79 -97 -102q34 -40 34 -113q0 -67 -28 -133t-79 -109q-75 -63 -157 -63z" />
    <glyph glyph-name="Uhorn" unicode="&#x1af;" horiz-adv-x="707" 
d="M535 621l7 28h106q118 0 118 33q0 9 -5.5 14t-23.5 8q-19 5 -19 23q0 20 17.5 34.5t38.5 14.5q47 0 47 -51q0 -74 -81 -102q-29 -10 -40.5 -21t-19.5 -37q-16 -54 -40 -176l-16 -81q-35 -181 -116 -257q-72 -66 -173 -66q-98 0 -156 54q-77 72 -45 242l47 249
q11 59 0.5 72.5t-69.5 18.5l7 28h255l-6 -28q-56 -5 -70.5 -18.5t-25.5 -72.5l-46 -244q-24 -126 15.5 -186t119.5 -60q88 0 141 66.5t81 209.5l15 73q23 122 26 177q1 30 -16.5 41t-72.5 14z" />
    <glyph glyph-name="uhorn" unicode="&#x1b0;" horiz-adv-x="535" 
d="M495 116l14 -24q-38 -45 -82 -74.5t-68 -29.5q-42 0 -18 105q8 31 18 84h-2q-74 -102 -159 -160q-41 -29 -79 -29q-64 0 -34 131q7 30 25 105t27 116q8 33 -2 35q-13 0 -68 -46l-12 26q43 42 86 68.5t66 26.5q18 0 21.5 -19t-8.5 -71l-54 -234q-15 -66 11 -66
q37 0 101 69t96 128q37 167 38 173l33 6q94 16 94 43q0 10 -6 14.5t-24 8.5q-20 6 -20 24q0 20 15.5 33.5t35.5 13.5q22 0 35 -15t13 -42q0 -71 -99 -105q-42 -171 -67 -305q-8 -40 3 -40q7 0 29.5 15.5t40.5 34.5z" />
    <glyph glyph-name="Aringacute" unicode="&#x1fa;" horiz-adv-x="665" 
d="M622 28l-7 -28h-243l8 28q49 5 60 16.5t6 45.5q-2 14 -23 142h-206q-37 -69 -67 -132q-21 -43 -12 -55t67 -17l-7 -28h-217l8 28q47 7 66 22t54 78l298 527l35 9l26 -166q29 -178 65 -379q10 -57 23.5 -71t65.5 -20zM416 276l-39 252h-2q-17 -31 -64.5 -118t-71.5 -134
h177zM524 770q-1 -39 -30 -63t-67 -24q-36 0 -59 22.5t-22 56.5q1 40 29.5 65.5t66.5 25.5q35 0 59 -22.5t23 -60.5zM477 771q1 21 -9 34.5t-29 13.5q-20 0 -32.5 -15t-13.5 -39q-1 -22 9 -34.5t29 -12.5t32 15t14 38zM594 948l-3 -9l-191 -62l-14 26q28 17 164 104
q11 -2 26.5 -23.5t17.5 -35.5z" />
    <glyph glyph-name="aringacute" unicode="&#x1fb;" horiz-adv-x="496" 
d="M460 119l13 -24q-39 -48 -84 -77.5t-68 -29.5q-38 0 -20 91l18 88h-2q-53 -75 -123 -133q-57 -46 -96 -46q-24 0 -42 29.5t-18 84.5q0 75 32.5 149t85.5 120q40 34 92 56.5t100 22.5q24 0 62 -7q34 -7 42 -6l3 -4q-35 -137 -69 -323q-8 -43 2 -43q7 0 29.5 16t42.5 36z
M156 57q27 0 90 68.5t87 118.5q14 49 33 147q-25 14 -64 14q-40 0 -67 -19q-48 -36 -76.5 -112.5t-28.5 -152.5q0 -64 26 -64zM347 666q35 0 60 -23.5t24 -62.5q-1 -40 -31 -64t-69 -24q-37 0 -60 23t-22 59q1 41 30.5 66.5t67.5 25.5zM344 632q-20 0 -33.5 -16t-14.5 -40
q0 -22 10.5 -36t28.5 -14q20 0 33.5 16t14.5 40q1 22 -9.5 36t-29.5 14zM503 858l-158 -170l-25 17q59 93 91 157q10 4 43.5 7.5t45.5 1.5z" />
    <glyph glyph-name="AEacute" unicode="&#x1fc;" horiz-adv-x="863" 
d="M849 498l-30 -2q-2 63 -15 88q-8 18 -28.5 24t-72.5 6h-69q-25 0 -31.5 -5.5t-11.5 -32.5l-45 -240h91q63 0 81 11.5t37 62.5h30l-38 -194h-30q1 55 -12 67t-77 12h-90l-28 -155q-14 -73 5 -89q19 -15 99 -15q55 0 81.5 6t46.5 26q30 28 67 96l29 -11q-55 -141 -61 -153
h-473l6 28q61 5 77.5 19t28.5 76l34 172h-173q-100 -147 -132 -203q-19 -31 -14.5 -43t36.5 -16l31 -5l-7 -28h-232l6 28q49 6 70.5 19t56.5 61q68 92 194 272t134 191q17 25 12.5 32.5t-38.5 11.5l-53 5l9 29h517q-1 -7 -7 -63t-11 -88zM304 336h154l55 277q-13 0 -30 -16
q-78 -110 -179 -261zM758 754l-2 -8l-192 -63l-13 26q25 16 81.5 52t82.5 53q10 -3 25.5 -24.5t17.5 -35.5z" />
    <glyph glyph-name="aeacute" unicode="&#x1fd;" horiz-adv-x="668" 
d="M619 130l17 -24q-111 -117 -222 -117q-42 0 -73.5 31.5t-31.5 107.5q0 14 1 23l-2 1q-42 -59 -113 -116q-58 -47 -100 -47q-22 0 -40.5 27t-18.5 84q0 76 31 150.5t82 119.5q38 34 93 57t100 23q22 0 46 -7q22 -2 40 0l4 -5l-14 -56l2 -1q32 31 75 50t77 19q41 0 65 -23
t24 -57q0 -45 -45 -83.5t-101 -60.5t-122 -38q-1 -11 -1 -33q0 -44 17.5 -73.5t55.5 -29.5q75 0 154 78zM298 406q-38 0 -63 -15q-40 -27 -70 -96q-37 -87 -37 -174q0 -61 25 -61q15 0 39 16t48 43q60 66 81 113q10 26 23 81t15 78q-23 15 -61 15zM532 406q-27 0 -49 -15
q-65 -43 -86 -169q98 26 139.5 59t42.5 74q0 25 -13 38t-34 13zM554 661l-159 -170l-24 16q61 98 91 158q11 3 44 6.5t45 2.5z" />
    <glyph glyph-name="Oslashacute" unicode="&#x1fe;" horiz-adv-x="710" 
d="M633 693l29 -22l-52 -71q89 -81 89 -222q0 -164 -105 -278.5t-264 -114.5q-83 0 -145 41l-52 -69l-27 25l50 66q-43 38 -67 95.5t-23 125.5q0 104 47 194.5t132 146t187 55.5q87 0 148 -43zM203 111l340 461q-36 56 -118 56q-75 0 -135 -56t-90.5 -139t-30.5 -172
q0 -97 34 -150zM563 538l-338 -460q41 -57 116 -57q76 0 136 58t89.5 140.5t29.5 168.5q0 95 -33 150zM573 763l-3 -8l-191 -63l-13 26q150 97 163 105q11 -3 26.5 -24.5t17.5 -35.5z" />
    <glyph glyph-name="oslashacute" unicode="&#x1ff;" horiz-adv-x="476" 
d="M420 483l25 -19l-38 -51q39 -42 39 -123q0 -64 -28.5 -129.5t-77.5 -107.5q-32 -28 -76.5 -46.5t-85.5 -18.5q-42 0 -69 18l-39 -52l-24 22l37 50q-38 42 -38 119q0 93 41.5 163.5t104.5 105.5q66 36 120 36q43 0 71 -18zM139 100l201 273q-18 37 -62 37q-20 0 -37 -7
q-37 -15 -73 -80t-37 -168q0 -21 8 -55zM354 338l-201 -271q20 -39 58 -39q17 0 35 7q42 17 78.5 89.5t35.5 166.5q0 29 -6 47zM426 661l-158 -170l-25 16q47 75 92 158q10 3 43 6.5t45 2.5z" />
    <glyph glyph-name="Scommaaccent" unicode="&#x218;" horiz-adv-x="472" 
d="M37 197l29 3q6 -43 21.5 -80.5t52 -68.5t87.5 -31q54 0 86 34.5t32 91.5q0 39 -22 71t-68 68l-29 22q-23 18 -39 33t-35 37.5t-29 50t-10 56.5q0 79 57.5 130t147.5 51q48 0 99 -17q11 -4 26 -10t17 -7q0 -1 -3 -142l-30 -3q-16 145 -120 145q-49 0 -79 -34t-30 -80
q0 -39 22.5 -68.5t67.5 -63.5l30 -22q58 -43 88 -85.5t30 -99.5q0 -86 -65 -139.5t-157 -53.5q-56 0 -105 19.5t-69 42.5q0 10 -1 60.5t-2 89.5zM213 -51q26 0 44 -18.5t18 -48.5q1 -48 -35.5 -77t-86.5 -40l-9 28q69 26 69 59q0 26 -36 37q-12 3 -12 20t14 28.5t34 11.5z
" />
    <glyph glyph-name="scommaaccent" unicode="&#x219;" horiz-adv-x="340" 
d="M114 -12q-36 0 -69.5 23.5t-34.5 50.5q0 26 31 44q17 9 26 -3q44 -63 100 -63q27 0 44.5 16.5t17.5 39.5q0 36 -60 82q-29 22 -44.5 36t-30 38.5t-14.5 49.5q0 54 54 99q24 21 56.5 35t57.5 14q33 0 56.5 -18t23.5 -40q0 -27 -27 -44q-14 -8 -23 4q-37 48 -80 48
q-22 0 -36.5 -15t-14.5 -38t16.5 -42.5t49.5 -44.5q46 -34 66 -60t20 -59q0 -57 -60.5 -105t-124.5 -48zM120 -43q26 0 44 -18.5t18 -48.5q1 -48 -35.5 -77t-86.5 -41l-9 28q34 14 51.5 27.5t17.5 32.5q0 24 -36 37q-12 2 -12 19t14 29t34 12z" />
    <glyph glyph-name="uni021A" unicode="&#x21a;" horiz-adv-x="606" 
d="M638 674h23q-10 -51 -24 -178l-32 -2q0 66 -12 91q-7 17 -28.5 23t-75.5 6h-59l-93 -493q-11 -59 2.5 -74t80.5 -19l-6 -28h-281l7 28q62 4 78.5 19t27.5 74l94 493h-50q-59 0 -82 -6.5t-38 -23.5q-22 -26 -50 -90h-31q32 107 47 180h23q7 -16 16.5 -20.5t30.5 -4.5h380
q18 0 27.5 5t24.5 20zM266 -40q26 0 44 -18.5t18 -48.5q1 -48 -35.5 -77t-87.5 -40l-8 28q34 13 51.5 26.5t17.5 33.5q0 25 -36 36q-12 3 -12 20t13.5 28.5t34.5 11.5z" />
    <glyph glyph-name="uni021B" unicode="&#x21b;" horiz-adv-x="310" 
d="M343 434l-27 -36l-98 -5l-57 -271q-12 -60 6 -60q12 0 40.5 19t47.5 38l14 -23q-31 -37 -80 -72.5t-85 -35.5q-14 0 -22.5 12t-11 41.5t9.5 80.5l58 271h-73l-3 9l25 32h60l23 94l83 65l10 -7l-35 -152h115zM119 -39q25 0 43 -18.5t19 -48.5q0 -48 -36 -77t-87 -41l-8 28
q69 26 69 60q0 24 -36 37q-12 1 -12 19q0 17 13.5 29t34.5 12z" />
    <glyph glyph-name="uni021C" unicode="&#x21c;" horiz-adv-x="500" 
d="M148 269l-10 30q240 79 240 222q0 50 -27.5 78t-70.5 28q-49 0 -84.5 -35t-69.5 -109l-29 10q21 58 40 135q19 4 53 14.5t62.5 16t60.5 5.5q75 0 120 -35.5t45 -93.5q0 -55 -40 -98.5t-114 -85.5v-2q68 -14 108 -57t40 -105q0 -80 -61 -147.5t-156 -108.5t-209 -55
l-58 48l10 21q60 -14 103 -14q106 0 186.5 64.5t80.5 165.5q0 61 -36 95.5t-85 34.5q-36 0 -99 -22z" />
    <glyph glyph-name="uni021D" unicode="&#x21d;" horiz-adv-x="370" 
d="M64 107l-6 27q91 39 137.5 81.5t46.5 97.5q0 34 -19.5 54t-50.5 20q-47 0 -117 -58l-15 22q97 99 179 99q50 0 81 -30.5t31 -75.5q0 -80 -117 -156v-2q52 -11 82.5 -45t30.5 -83q0 -69 -50.5 -133t-129 -105.5t-164.5 -54.5l-44 37l8 20q32 -7 59 -7q92 0 160 60t68 148
q0 48 -25.5 76.5t-61.5 28.5q-27 0 -83 -21z" />
    <glyph glyph-name="uni0232" unicode="&#x232;" horiz-adv-x="615" 
d="M690 649l-8 -28q-48 -5 -68 -17.5t-58 -59.5q-46 -58 -161 -222q-17 -25 -25 -58l-28 -138q-13 -63 -0.5 -77.5t80.5 -20.5l-7 -28h-276l7 28q62 5 77.5 19.5t28.5 78.5l26 132q7 29 -5 60q-42 116 -85 230q-17 46 -31.5 57t-61.5 16l8 28h237l-7 -28l-34 -5
q-24 -4 -28.5 -12.5t2.5 -30.5q57 -159 88 -237q111 156 156 232q15 26 10.5 35t-33.5 14l-29 4l8 28h217zM547 767l-14 -54h-229l15 54h228z" />
    <glyph glyph-name="uni0233" unicode="&#x233;" horiz-adv-x="447" 
d="M245 79h2q130 196 130 268q0 19 -12 48q-5 12 2 27q14 28 44 28q18 0 30 -15.5t12 -41.5q2 -43 -36 -107q-70 -126 -177 -276q-108 -155 -182 -237l-109 -28l-8 23q136 89 233 218q-2 131 -32 328q-9 59 -21 59q-7 0 -23 -16t-34 -41l-18 24q29 45 63 77.5t60 32.5
q41 0 54 -121q14 -106 22 -250zM402 599l-13 -55h-226l14 55h225z" />
    <glyph glyph-name="uni0237" unicode="&#x237;" horiz-adv-x="270" 
d="M66 321l-13 24q44 45 91.5 75t71.5 30q17 0 19 -25.5t-9 -80.5q-4 -20 -57 -282q-36 -180 -122 -256q-67 -62 -108 -62q-15 0 -29.5 10t-14.5 24q0 25 26 47q11 10 22 3q30 -18 51 -18t35 22.5t27 76.5q15 64 81 404q3 17 5 27.5t2 17t-1.5 8.5t-4.5 2q-7 0 -30 -15
t-42 -32z" />
    <glyph glyph-name="circumflex" unicode="&#x2c6;" 
d="M375 507l-25 -18q-27 29 -72 94q-60 -58 -109 -94l-21 19q87 97 131 162h25q22 -70 71 -163z" />
    <glyph glyph-name="caron" unicode="&#x2c7;" 
d="M378 674l23 -19q-87 -97 -131 -162h-24q-24 70 -72 163l26 18q34 -39 70 -94q63 59 108 94z" />
    <glyph glyph-name="uni02C9" unicode="&#x2c9;" 
d="M379 599l-13 -55h-226l14 55h225z" />
    <glyph glyph-name="breve" unicode="&#x2d8;" 
d="M360 642h28q-11 -71 -47.5 -102t-85.5 -31q-50 0 -77 31t-14 102h28q1 -35 19.5 -54t51.5 -19t58.5 19.5t38.5 53.5z" />
    <glyph glyph-name="dotaccent" unicode="&#x2d9;" 
d="M278 638q21 0 32.5 -13.5t11.5 -34.5q0 -25 -16 -43t-40 -18q-19 0 -32 13t-13 34q0 22 16 42t41 20z" />
    <glyph glyph-name="ring" unicode="&#x2da;" 
d="M279 666q35 0 59.5 -23.5t23.5 -62.5t-30.5 -63.5t-68.5 -24.5q-37 0 -60 23t-22 59q1 41 30 66.5t68 25.5zM276 632q-20 0 -33.5 -16t-14.5 -40q-1 -22 9.5 -36t29.5 -14q20 0 33.5 16t14.5 40q1 22 -9.5 36t-29.5 14z" />
    <glyph glyph-name="ogonek" unicode="&#x2db;" 
d="M260 -151l7 -28l-52 -28q-20 -10 -38 -10q-30 0 -49.5 17.5t-19.5 47.5q0 37 35 74.5t92 78.5h42q-97 -82 -97 -130q0 -32 36 -32q21 0 44 10z" />
    <glyph glyph-name="tilde" unicode="&#x2dc;" 
d="M371 622l25 -13q-33 -88 -82 -88q-8 0 -17 2.5t-15 5l-18 7.5t-18 8q-22 12 -43 12q-24 0 -48 -43l-24 16q33 86 82 86q19 0 59 -18q36 -17 53 -17q21 0 46 42z" />
    <glyph glyph-name="hungarumlaut" unicode="&#x2dd;" 
d="M257 651l-118 -161l-27 16q57 138 63 152q10 3 39.5 4.5t39.5 -0.5zM395 651l-118 -161l-25 16q7 17 22 54t26 64.5t13 33.5q11 3 40 4.5t39 -0.5z" />
    <glyph glyph-name="uni0374" unicode="&#x374;" horiz-adv-x="240" 
d="M143 408l-24 11q50 137 79 239q11 3 41 -1.5t38 -11.5v-17q-66 -113 -134 -220z" />
    <glyph glyph-name="uni0375" unicode="&#x375;" horiz-adv-x="240" 
d="M17 -120l-26 12q46 128 81 242q11 3 40.5 -1.5t37.5 -10.5v-17q-86 -150 -133 -225z" />
    <glyph glyph-name="uni037E" unicode="&#x37e;" horiz-adv-x="240" 
d="M142 270q-26 0 -42 17.5t-16 44.5q0 32 19 52.5t49 20.5q26 0 42 -17.5t16 -45.5q0 -33 -20 -52.5t-48 -19.5zM14 -119l-22 13q49 140 79 240q11 2 41 -2.5t38 -9.5l-1 -18q-61 -109 -135 -223z" />
    <glyph glyph-name="tonos" unicode="&#x384;" horiz-adv-x="398" 
d="M332 659l-108 -171l-27 14q31 98 49 167q11 3 43 3.5t41 -1.5z" />
    <glyph glyph-name="dieresistonos" unicode="&#x385;" 
d="M365 511q-18 0 -29.5 12.5t-11.5 31.5q0 22 14.5 39.5t37.5 17.5q19 0 30 -13t11 -32q0 -24 -15 -40t-37 -16zM339 661l-101 -173l-29 8q10 33 24.5 91.5t19.5 74.5q10 4 41 7t41 1zM143 511q-19 0 -30.5 12t-11.5 32q0 22 14 39.5t38 17.5q19 0 30 -13t11 -32
q0 -24 -15 -40t-36 -16z" />
    <glyph glyph-name="Alphatonos" unicode="&#x386;" horiz-adv-x="665" 
d="M622 28l-7 -28h-243l8 28q49 5 60 16.5t6 45.5q-2 14 -23 142h-206q-37 -69 -67 -132q-21 -43 -12 -55t67 -17l-7 -28h-217l8 28q47 7 66 22t54 78l298 527l35 9l26 -166q29 -178 65 -379q10 -57 23.5 -71t65.5 -20zM416 276l-39 252h-2q-17 -31 -64.5 -118t-71.5 -134
h177zM283 689l-108 -171l-27 14q27 83 48 167q12 3 43.5 3.5t41.5 -1.5z" />
    <glyph glyph-name="anoteleia" unicode="&#x387;" horiz-adv-x="240" 
d="M131 210q-25 0 -41.5 17.5t-16.5 44.5q0 32 19.5 53t49.5 21q25 0 41.5 -18t16.5 -45q0 -34 -20.5 -53.5t-48.5 -19.5z" />
    <glyph glyph-name="Epsilontonos" unicode="&#x388;" horiz-adv-x="561" 
d="M127 649h439q-2 -14 -19 -154l-30 -2q-2 68 -14 89q-9 18 -27 25t-69 7h-72q-26 0 -33 -6.5t-12 -34.5l-41 -214h91q62 0 79 11.5t35 61.5h30l-38 -192h-30q2 56 -9.5 67.5t-74.5 11.5h-91l-33 -175q-14 -76 4 -93q17 -15 98 -15q54 0 81.5 7t47.5 27q29 27 68 95l29 -10
q-38 -100 -62 -155h-472l7 28q60 5 76 19t28 74l78 407q12 60 1.5 74t-72.5 19zM84 689l-108 -171l-27 14q31 98 49 167q11 3 43 3.5t42 -1.5z" />
    <glyph glyph-name="Etatonos" unicode="&#x389;" horiz-adv-x="746" 
d="M792 649l-7 -28q-57 -5 -71.5 -19.5t-26.5 -75.5l-77 -403q-11 -61 -0.5 -75.5t70.5 -19.5l-6 -28h-262l6 28q59 5 74.5 19.5t26.5 75.5l38 199h-316l-37 -199q-12 -62 -1 -76t72 -19l-7 -28h-257l7 28q55 5 69 19.5t26 75.5l78 403q12 62 1 76t-73 19l7 28h256l-7 -28
q-54 -5 -68.5 -20t-25.5 -75l-31 -161h316l30 161q12 61 2 75.5t-69 19.5l6 28h257zM86 689l-108 -171l-27 14q31 98 49 167q11 3 43 3.5t41 -1.5z" />
    <glyph glyph-name="Iotatonos" unicode="&#x38a;" horiz-adv-x="341" 
d="M386 649l-6 -28q-57 -5 -71.5 -18t-25.5 -69l-80 -415q-11 -58 0.5 -72t72.5 -19l-6 -28h-263l7 28q57 4 72 18.5t26 72.5l81 415q10 55 -1.5 68.5t-73.5 18.5l7 28h261zM89 689l-108 -171l-27 14q31 98 49 167q11 3 43 3.5t42 -1.5z" />
    <glyph glyph-name="Omicrontonos" unicode="&#x38c;" horiz-adv-x="711" 
d="M431 665q120 0 194 -80t74 -207q0 -163 -104 -278t-262 -115q-119 0 -193 78.5t-74 205.5q0 104 47 194.5t131.5 146t186.5 55.5zM424 629q-72 0 -131.5 -56t-91 -141t-31.5 -175q0 -105 43 -170.5t128 -65.5q76 0 135.5 58.5t88.5 142t29 169.5q0 107 -41 172.5
t-129 65.5zM144 679l-108 -171l-27 14q27 83 48 167q12 3 43.5 3.5t41.5 -1.5z" />
    <glyph glyph-name="Upsilontonos" unicode="&#x38e;" horiz-adv-x="653" 
d="M734 632l-9 -25q-16 2 -28 2q-83 0 -169 -107q-53 -67 -93.5 -157t-56.5 -178l-9 -44q-11 -61 1.5 -75.5t79.5 -19.5l-6 -28h-280l6 28q63 4 80.5 19.5t28.5 75.5l10 49q33 166 5 286q-32 146 -143 146q-36 0 -57 -7l-5 25q66 43 128 43q58 0 94 -42.5t52 -109.5
q23 -77 11 -213h3q40 125 103 213q45 70 95.5 111t97.5 41q35 0 61 -33zM67 689l-108 -171l-27 14q31 98 49 167q11 3 43 3.5t42 -1.5z" />
    <glyph glyph-name="Omegatonos" unicode="&#x38f;" horiz-adv-x="737" 
d="M668 140l28 -2l-44 -138h-253l-7 19l12 12q38 38 62.5 65t62 78.5t57.5 110t20 119.5q0 102 -43.5 163t-125.5 61q-73 0 -127 -48.5t-78.5 -120t-24.5 -152.5q0 -137 73 -289l-8 -18h-237l-1 138l27 1q9 -40 22 -53t40 -13h96q-31 40 -49.5 67.5t-40.5 83.5t-22 109
q-1 139 97 235.5t241 96.5q117 0 189 -72.5t72 -195.5q0 -33 -7.5 -65t-24 -60.5t-30.5 -50t-40 -47.5t-38.5 -38t-40.5 -35.5t-33 -27.5h90q31 0 45 11t41 56zM144 679l-108 -171l-27 14q23 72 49 167q11 3 42.5 3.5t41.5 -1.5z" />
    <glyph glyph-name="iotadieresistonos" unicode="&#x390;" horiz-adv-x="254" 
d="M208 113l13 -23q-30 -37 -76 -69.5t-72 -32.5q-44 0 -20 104q13 57 38 171t36 165l83 22l3 -8q-47 -187 -78 -341q-7 -36 3 -36q18 0 70 48zM300 511q-19 0 -30.5 12t-11.5 32q0 22 14.5 39.5t38.5 17.5q18 0 29 -13t11 -32q0 -23 -14.5 -39.5t-36.5 -16.5zM273 661
l-102 -173l-29 9q11 34 27.5 97t17.5 68q10 4 41 7t42 2zM77 511q-19 0 -30.5 12t-11.5 32q0 22 14.5 39.5t38.5 17.5q18 0 29 -13t11 -32q0 -23 -15 -39.5t-36 -16.5z" />
    <glyph glyph-name="Alpha" unicode="&#x391;" horiz-adv-x="665" 
d="M622 28l-7 -28h-243l8 28q49 5 60 16.5t6 45.5q-2 14 -23 142h-206q-37 -69 -67 -132q-21 -43 -12 -55t67 -17l-7 -28h-217l8 28q47 7 66 22t54 78l298 527l35 9l26 -166q29 -178 65 -379q10 -57 23.5 -71t65.5 -20zM416 276l-39 252h-2q-17 -31 -64.5 -118t-71.5 -134
h177z" />
    <glyph glyph-name="Beta" unicode="&#x392;" horiz-adv-x="587" 
d="M129 649h239q193 0 193 -138q0 -64 -45.5 -102.5t-118.5 -53.5v-2q64 -13 105.5 -52t41.5 -104q0 -54 -31 -95.5t-83 -66.5q-73 -35 -206 -35h-218l7 28q57 5 72.5 19t27.5 74l80 413q11 56 0.5 69t-70.5 18zM249 367h46q81 0 124.5 38.5t43.5 104.5q0 56 -33 81t-81 25
q-31 0 -45 -10q-12 -9 -19 -45zM242 333l-40 -209q-10 -53 8 -71t67 -18q70 0 116.5 46t46.5 121q0 69 -42.5 100t-110.5 31h-45z" />
    <glyph glyph-name="Gamma" unicode="&#x393;" horiz-adv-x="508" 
d="M127 649h430q-3 -27 -18 -156l-30 -2q-3 62 -17 93q-8 15 -26.5 22t-62.5 7h-70q-25 0 -31.5 -6t-11.5 -33l-87 -451q-11 -61 2.5 -75t84.5 -20l-7 -28h-276l7 28q56 6 71.5 20.5t27.5 74.5l78 402q12 62 1 76t-72 20z" />
    <glyph glyph-name="uni0394" unicode="&#x394;" horiz-adv-x="620" 
d="M551 25l-6 -25h-540l7 25l381 631l29 9zM452 49l-89 488l-278 -488h367z" />
    <glyph glyph-name="Epsilon" unicode="&#x395;" horiz-adv-x="561" 
d="M127 649h439q-2 -14 -19 -154l-30 -2q-2 68 -14 89q-9 18 -27 25t-69 7h-72q-26 0 -33 -6.5t-12 -34.5l-41 -214h91q62 0 79 11.5t35 61.5h30l-38 -192h-30q2 56 -9.5 67.5t-74.5 11.5h-91l-33 -175q-14 -76 4 -93q17 -15 98 -15q54 0 81.5 7t47.5 27q29 27 68 95l29 -10
q-38 -100 -62 -155h-472l7 28q60 5 76 19t28 74l78 407q12 60 1.5 74t-72.5 19z" />
    <glyph glyph-name="Zeta" unicode="&#x396;" horiz-adv-x="591" 
d="M614 649l6 -14q-267 -324 -483 -594q46 -5 150 -5q78 0 118 6t63 25q33 28 75 111l29 -13q-41 -124 -60 -165h-504l-7 16q289 349 489 598h-151q-70 0 -95.5 -7.5t-41.5 -27.5q-27 -30 -52 -95l-30 3q26 95 42 187h21q9 -16 18.5 -20.5t31.5 -4.5h381z" />
    <glyph glyph-name="Eta" unicode="&#x397;" horiz-adv-x="746" 
d="M792 649l-7 -28q-57 -5 -71.5 -19.5t-26.5 -75.5l-77 -403q-11 -61 -0.5 -75.5t70.5 -19.5l-6 -28h-262l6 28q59 5 74.5 19.5t26.5 75.5l38 199h-316l-37 -199q-12 -62 -1 -76t72 -19l-7 -28h-257l7 28q55 5 69 19.5t26 75.5l78 403q12 62 1 76t-73 19l7 28h256l-7 -28
q-54 -5 -68.5 -20t-25.5 -75l-31 -161h316l30 161q12 61 2 75.5t-69 19.5l6 28h257z" />
    <glyph glyph-name="Theta" unicode="&#x398;" horiz-adv-x="713" 
d="M430 665q121 0 195 -80t74 -207q0 -163 -104 -278t-261 -115q-119 0 -193.5 78t-74.5 204q0 161 105 279.5t259 118.5zM426 629q-73 0 -133 -56.5t-91 -141t-31 -175.5q0 -105 43 -170t128 -65q76 0 135.5 58.5t88.5 142t29 170.5q0 106 -41 171.5t-128 65.5zM527 432
l-36 -194h-28q2 39 -8 50t-44 11h-73q-33 0 -44.5 -10.5t-24.5 -50.5h-28l37 194h28q-3 -42 4 -51.5t40 -9.5h80q34 0 44.5 9.5t24.5 51.5h28z" />
    <glyph glyph-name="Iota" unicode="&#x399;" horiz-adv-x="341" 
d="M386 649l-6 -28q-57 -5 -71.5 -18t-25.5 -69l-80 -415q-11 -58 0.5 -72t72.5 -19l-6 -28h-263l7 28q57 4 72 18.5t26 72.5l81 415q10 55 -1.5 68.5t-73.5 18.5l7 28h261z" />
    <glyph glyph-name="Kappa" unicode="&#x39a;" horiz-adv-x="658" 
d="M721 649l-7 -27q-54 -8 -80.5 -19.5t-72.5 -48.5q-57 -46 -214 -182q80 -139 176 -275q29 -40 48.5 -52t60.5 -17l-7 -28h-152q-111 171 -181 290q-24 42 -54 29l-35 -191q-12 -65 -2 -80t69 -20l-6 -28h-253l8 28q54 5 68.5 20t26.5 80l76 397q12 62 2 76t-69 20l7 28
h250l-6 -28q-56 -6 -70 -20t-26 -76l-34 -176q36 12 75 44q98 81 198 181q22 22 20 30.5t-28 12.5l-28 4l7 28h233z" />
    <glyph glyph-name="Lambda" unicode="&#x39b;" horiz-adv-x="670" 
d="M621 28l-7 -28h-246l8 28q51 6 62 17t6 43q-45 284 -71 437h-2q-163 -304 -218 -422q-20 -41 -10.5 -55t67.5 -20l-7 -28h-221l7 28q45 8 66 24.5t55 77.5l294 525l32 9q11 -62 30 -172.5t35 -202t31 -172.5q10 -54 24 -68.5t65 -20.5z" />
    <glyph glyph-name="Mu" unicode="&#x39c;" horiz-adv-x="878" 
d="M910 649l-7 -28q-63 -5 -77 -18t-23 -74q-21 -137 -54 -393q-9 -72 2 -87t71 -21l-6 -28h-259l7 28q56 6 70 21.5t25 86.5q12 79 34 216t31 199h-3l-325 -547h-24q-29 168 -99 538h-3l-72 -260q-39 -145 -46 -191q-5 -34 8.5 -46t66.5 -17l-6 -28h-226l7 28q42 4 61 17
t32 45q20 50 70 218l58 199q22 73 11 90.5t-81 23.5l8 28h173q50 -245 105 -488l303 488h168z" />
    <glyph glyph-name="Nu" unicode="&#x39d;" horiz-adv-x="705" 
d="M767 649l-6 -28q-44 -2 -60.5 -15t-26.5 -48q-17 -55 -39 -170l-75 -396h-34l-294 526h-3l-51 -260q-21 -108 -25 -168q-2 -34 15 -46t70 -16l-6 -28h-232l7 28q40 2 59 15t29 45q15 46 42 172l50 238q7 43 6 59t-11 34q-9 16 -26.5 22t-57.5 8l7 28h151l289 -500h3
l45 239q22 115 26 171q3 35 -14.5 47t-72.5 15l8 28h227z" />
    <glyph glyph-name="Xi" unicode="&#x39e;" horiz-adv-x="582" 
d="M594 649l-21 -145h-28q-4 50 -13.5 63t-49.5 13h-231q-39 0 -54 -13.5t-38 -62.5h-28l35 145h428zM503 434l-40 -193h-28q1 41 -8.5 51.5t-47.5 10.5h-133q-38 0 -50.5 -10.5t-28.5 -52.5h-29l40 194h28q-1 -40 7 -50.5t42 -10.5h138q39 0 52.5 10.5t28.5 50.5h29z
M535 166l-41 -166h-477l23 166h27q10 -61 22.5 -77t62.5 -16h231q38 0 58.5 9.5t31 24t34.5 59.5h28z" />
    <glyph glyph-name="Omicron" unicode="&#x39f;" horiz-adv-x="711" 
d="M431 665q120 0 194 -80t74 -207q0 -163 -104 -278t-262 -115q-119 0 -193 78.5t-74 205.5q0 104 47 194.5t131.5 146t186.5 55.5zM424 629q-72 0 -131.5 -56t-91 -141t-31.5 -175q0 -105 43 -170.5t128 -65.5q76 0 135.5 58.5t88.5 142t29 169.5q0 107 -41 172.5
t-129 65.5z" />
    <glyph glyph-name="Pi" unicode="&#x3a0;" horiz-adv-x="720" 
d="M765 649l-7 -28q-55 -4 -70.5 -20t-27.5 -78l-76 -397q-12 -62 -0.5 -77.5t73.5 -20.5l-5 -28h-262l6 28q55 5 70.5 21t27.5 77l88 455q4 20 -1 25.5t-25 5.5h-226q-22 0 -28.5 -5.5t-10.5 -28.5l-87 -452q-12 -61 -1 -77t70 -21l-5 -28h-259l6 28q55 5 71 20.5t28 77.5
l77 397q12 61 0 77.5t-75 20.5l7 28h642z" />
    <glyph glyph-name="Rho" unicode="&#x3a1;" horiz-adv-x="561" 
d="M131 649h231q215 0 215 -169q0 -98 -72 -154.5t-167 -63.5q-13 -1 -37 -1l-68 21l-30 -157q-12 -62 0.5 -76.5t81.5 -20.5l-6 -28h-273l7 28q57 6 72 20.5t28 76.5l80 403q11 59 0.5 73t-69.5 20zM286 560l-46 -245q34 -13 71 -13q64 0 116 47.5t52 135.5q0 63 -33 97
t-94 34q-26 0 -42 -8q-16 -7 -24 -48z" />
    <glyph glyph-name="Sigma" unicode="&#x3a3;" horiz-adv-x="581" 
d="M121 649h455q-7 -60 -15 -152l-28 -2q-8 62 -21 87q-8 17 -32 24t-76 7h-175l163 -260l-278 -279h275q48 0 73 19.5t62 83.5l29 -8l-67 -169h-488l4 23l304 299l-189 305z" />
    <glyph glyph-name="Tau" unicode="&#x3a4;" horiz-adv-x="606" 
d="M638 674h23q-10 -51 -24 -178l-32 -2q0 66 -12 91q-7 17 -28.5 23t-75.5 6h-59l-93 -493q-11 -59 2.5 -74t80.5 -19l-6 -28h-281l7 28q62 4 78.5 19t27.5 74l94 493h-50q-59 0 -82 -6.5t-38 -23.5q-22 -26 -50 -90h-31q32 107 47 180h23q7 -16 16.5 -20.5t30.5 -4.5h380
q18 0 27.5 5t24.5 20z" />
    <glyph glyph-name="Upsilon" unicode="&#x3a5;" horiz-adv-x="653" 
d="M734 632l-9 -25q-16 2 -28 2q-83 0 -169 -107q-53 -67 -93.5 -157t-56.5 -178l-9 -44q-11 -61 1.5 -75.5t79.5 -19.5l-6 -28h-280l6 28q63 4 80.5 19.5t28.5 75.5l10 49q33 166 5 286q-32 146 -143 146q-36 0 -57 -7l-5 25q66 43 128 43q58 0 94 -42.5t52 -109.5
q23 -77 11 -213h3q40 125 103 213q45 70 95.5 111t97.5 41q35 0 61 -33z" />
    <glyph glyph-name="Phi" unicode="&#x3a6;" horiz-adv-x="732" 
d="M567 655l-6 -27q-46 -4 -59.5 -13.5t-18.5 -39.5q39 -4 77.5 -18.5t75 -40.5t59 -71t22.5 -102q0 -85 -49.5 -145t-121.5 -85.5t-158 -27.5q-7 -35 3.5 -44t60.5 -13l-5 -28h-232l7 28q47 4 60 13.5t20 46.5q-40 4 -78.5 18t-74.5 39t-58 68.5t-22 98.5q0 83 48 144.5
t121 91t160 31.5q5 27 -6 36t-56 13l6 27h225zM309 121l83 426q-105 -4 -166.5 -71.5t-61.5 -165.5q-1 -79 41 -127.5t104 -61.5zM477 543l-82 -427q102 4 164.5 67t62.5 167q0 90 -42.5 136t-102.5 57z" />
    <glyph glyph-name="Chi" unicode="&#x3a7;" horiz-adv-x="642" 
d="M681 649l-7 -28q-51 -5 -71 -15t-58 -51q-39 -43 -162 -192l110 -246q25 -57 43 -70t75 -19l-7 -28h-259l6 28l30 4q28 5 33 13.5t-5 34.5q-21 52 -89 209q-106 -134 -155 -208q-16 -24 -12.5 -34t33.5 -15l23 -4l-6 -28h-228l7 28q47 4 69 15.5t57 47.5q66 72 194 234
l-95 219q-22 48 -38 60t-67 17l7 28h237l-6 -28l-25 -4q-25 -5 -29.5 -11.5t2.5 -26.5q12 -35 79 -180q77 93 134 174q15 23 11.5 31t-28.5 13l-28 4l6 28h219z" />
    <glyph glyph-name="Psi" unicode="&#x3a8;" horiz-adv-x="706" 
d="M773 658l5 -26q-30 -14 -43 -36t-33 -76l-22 -62q-19 -55 -41 -84t-58 -55q-60 -42 -162 -46l-28 -149q-12 -58 -1 -75t66 -21l-5 -28h-256l6 28q55 4 71.5 20.5t27.5 75.5l29 149q-98 5 -141 47q-47 45 -44 138l1 63q1 22 0.5 39.5t-3.5 31t-12 24t-25 17.5l12 25
q79 -9 105 -51q15 -25 13 -85l-2 -57q-3 -87 17.5 -120t85.5 -38l43 220q12 58 2 74t-61 20l6 28h238l-6 -28q-50 -4 -64.5 -20t-25.5 -74l-42 -220q72 4 105 37t65 128l21 59q18 52 43 77q41 41 113 50z" />
    <glyph glyph-name="uni03A9" unicode="&#x3a9;" horiz-adv-x="737" 
d="M668 140l28 -2l-44 -138h-253l-7 19l12 12q38 38 62.5 65t62 78.5t57.5 110t20 119.5q0 102 -43.5 163t-125.5 61q-73 0 -127 -48.5t-78.5 -120t-24.5 -152.5q0 -137 73 -289l-8 -18h-237l-1 138l27 1q9 -40 22 -53t40 -13h96q-31 40 -49.5 67.5t-40.5 83.5t-22 109
q-1 139 97 235.5t241 96.5q117 0 189 -72.5t72 -195.5q0 -33 -7.5 -65t-24 -60.5t-30.5 -50t-40 -47.5t-38.5 -38t-40.5 -35.5t-33 -27.5h90q31 0 45 11t41 56z" />
    <glyph glyph-name="Iotadieresis" unicode="&#x3aa;" horiz-adv-x="341" 
d="M386 649l-6 -28q-57 -5 -71.5 -18t-25.5 -69l-80 -415q-11 -58 0.5 -72t72.5 -19l-6 -28h-263l7 28q57 4 72 18.5t26 72.5l81 415q10 55 -1.5 68.5t-73.5 18.5l7 28h261zM181 795q20 0 31 -13t11 -32q0 -24 -15.5 -41t-38.5 -17q-18 0 -30 12.5t-12 31.5q0 22 15 40.5
t39 18.5zM371 795q20 0 31 -13t11 -32q0 -24 -15.5 -41t-38.5 -17q-18 0 -30 12.5t-12 31.5q0 22 15 40.5t39 18.5z" />
    <glyph glyph-name="Upsilondieresis" unicode="&#x3ab;" horiz-adv-x="653" 
d="M734 632l-9 -25q-16 2 -28 2q-83 0 -169 -107q-53 -67 -93.5 -157t-56.5 -178l-9 -44q-11 -61 1.5 -75.5t79.5 -19.5l-6 -28h-280l6 28q63 4 80.5 19.5t28.5 75.5l10 49q33 166 5 286q-32 146 -143 146q-36 0 -57 -7l-5 25q66 43 128 43q58 0 94 -42.5t52 -109.5
q23 -77 11 -213h3q40 125 103 213q45 70 95.5 111t97.5 41q35 0 61 -33zM353 794q20 0 31 -13t11 -32q0 -24 -15.5 -41t-38.5 -17q-18 0 -30 12t-12 32q0 22 15 40.5t39 18.5zM543 794q20 0 31 -13t11 -32q0 -24 -15.5 -41t-38.5 -17q-18 0 -30 12t-12 32q0 22 15 40.5
t39 18.5z" />
    <glyph glyph-name="alphatonos" unicode="&#x3ac;" horiz-adv-x="536" 
d="M499 123l23 -19q-64 -116 -130 -116q-25 0 -39.5 34.5t-22.5 120.5h-3q-47 -75 -96 -115t-92 -40q-44 0 -71 44t-26 115q1 116 80 209.5t163 93.5q46 0 68.5 -35t35.5 -116h3q25 42 72 138l56 13l9 -9q-47 -82 -131 -200q12 -101 20 -137t20 -36q21 0 61 55zM256 408
q-45 0 -83.5 -75t-39.5 -166q0 -53 14 -82t35 -29q27 0 64 35t77 105q-8 100 -23 156t-44 56zM385 659l-108 -171l-27 14q23 72 49 167q11 3 42.5 3.5t41.5 -1.5z" />
    <glyph glyph-name="epsilontonos" unicode="&#x3ad;" horiz-adv-x="392" 
d="M154 237v2q-31 10 -48.5 32t-17.5 50q0 58 52.5 93.5t119.5 35.5q61 0 90.5 -23t29.5 -50q1 -16 -15 -30t-28 -14q-9 0 -13 14q-17 69 -76 69q-34 0 -56 -23.5t-22 -56.5t23 -51.5t62 -18.5q11 0 25.5 0.5t18.5 0.5l3 -7l-30 -43q-13 2 -47 2q-43 0 -71.5 -23t-29.5 -62
q0 -37 25.5 -61t65.5 -24q71 0 137 63l17 -23q-75 -101 -190 -101q-67 0 -108.5 34.5t-41.5 90.5q0 47 35.5 78t89.5 46zM354 659l-108 -171l-27 14q31 98 49 167q11 3 43 3.5t41 -1.5z" />
    <glyph glyph-name="etatonos" unicode="&#x3ae;" horiz-adv-x="512" 
d="M191 252h2q84 112 184 174q37 24 70 24q50 0 17 -138q-37 -157 -86 -402q-25 -123 -17 -150l-7 -15q-22 1 -46 21.5t-29 40.5q-4 20 48 253q23 93 58 249q7 29 8.5 45t-1.5 21.5t-10 5.5q-27 0 -92 -64.5t-111 -136.5q-22 -88 -39 -172q-44 -6 -80 -20l-7 8
q38 151 80 337q9 40 -1 40q-7 1 -27 -12.5t-37 -31.5l-15 24q40 43 82 70t65 27q38 0 11 -115zM422 659l-107 -171l-27 14q27 83 48 167q11 3 43 3.5t42 -1.5z" />
    <glyph glyph-name="iotatonos" unicode="&#x3af;" horiz-adv-x="254" 
d="M208 113l13 -23q-30 -37 -76 -69.5t-72 -32.5q-44 0 -20 104q13 57 38 171t36 165l83 22l3 -8q-47 -187 -78 -341q-7 -36 3 -36q18 0 70 48zM281 659l-108 -171l-26 14q35 116 48 167q11 3 43 3.5t42 -1.5z" />
    <glyph glyph-name="upsilondieresistonos" unicode="&#x3b0;" horiz-adv-x="485" 
d="M67 324l-18 25q33 45 72.5 73t72.5 28q56 0 26 -119q-35 -132 -41 -160q-15 -64 0.5 -94t50.5 -30q65 0 111 77.5t47 198.5q0 70 -20 110l1 6q11 11 30 11q25 0 41.5 -32t15.5 -81q0 -83 -39.5 -164.5t-101.5 -133t-125 -51.5q-54 0 -85.5 43t-11.5 125q15 63 47 181
q12 46 0 46q-22 0 -73 -59zM408 511q-19 0 -30.5 12t-11.5 32q0 22 14.5 39.5t38.5 17.5q19 0 29.5 -12.5t10.5 -32.5q0 -23 -14.5 -39.5t-36.5 -16.5zM381 661l-102 -173l-28 9q10 33 25 91t19 74q10 4 41 7t42 2zM185 511q-19 0 -30.5 12t-11.5 32q0 22 14.5 39.5
t38.5 17.5q18 0 29 -13t11 -32q0 -23 -15 -39.5t-36 -16.5z" />
    <glyph glyph-name="alpha" unicode="&#x3b1;" horiz-adv-x="536" 
d="M499 123l23 -19q-64 -116 -130 -116q-25 0 -39.5 34.5t-22.5 120.5h-3q-47 -75 -96 -115t-92 -40q-44 0 -71 44t-26 115q1 116 80 209.5t163 93.5q46 0 68.5 -35t35.5 -116h3q25 42 72 138l56 13l9 -9q-47 -82 -131 -200q12 -101 20 -137t20 -36q21 0 61 55zM256 408
q-45 0 -83.5 -75t-39.5 -166q0 -53 14 -82t35 -29q27 0 64 35t77 105q-8 100 -23 156t-44 56z" />
    <glyph glyph-name="beta" unicode="&#x3b2;" horiz-adv-x="515" 
d="M-13 -256l-4 20q17 15 49 183q11 59 35.5 193t38.5 207q22 119 50.5 184.5t75.5 111.5q67 67 144 67q53 0 85.5 -34t32.5 -89q0 -33 -12 -61.5t-36.5 -53.5t-44 -40t-51.5 -37q131 -51 130 -169q-1 -58 -40 -110t-98 -87q-74 -44 -126 -44q-27 0 -46.5 19t-25.5 43l11 19
q42 -24 95 -24q72 0 107.5 42t34.5 111q0 64 -39.5 104t-106.5 50l23 49q38 3 60 18q83 60 85 155q0 44 -20 69.5t-55 25.5q-32 0 -56 -21t-42 -68t-30.5 -100t-27.5 -139q-36 -197 -66 -384q-26 -159 -34 -175q-31 -32 -96 -35z" />
    <glyph glyph-name="gamma" unicode="&#x3b3;" horiz-adv-x="476" 
d="M259 60h2q54 68 98.5 149t44.5 136q0 31 -14 52q-4 5 -4 16q0 15 13 26t29 11q19 0 32.5 -21t12.5 -55q0 -39 -26 -92.5t-53.5 -93t-68.5 -93.5q-10 -12 -14 -18q-44 -59 -70 -98q-28 -135 -49 -193q-14 -12 -46.5 -25t-56.5 -16l-13 16q23 61 112 223q12 62 4 167.5
t-33 181.5q-14 39 -26 39q-18 0 -64 -62l-24 22q36 58 71 88t62 30q49 0 70 -121q11 -59 14 -141t-3 -128z" />
    <glyph glyph-name="delta" unicode="&#x3b4;" horiz-adv-x="471" 
d="M488 519l-12 -17q-47 74 -93.5 114t-102.5 40q-38 0 -38 -30q-1 -15 21.5 -49t73.5 -102q53 -70 76.5 -120t23.5 -105q0 -63 -28 -119.5t-79 -95.5q-63 -47 -130 -47q-73 0 -114.5 50t-41.5 129q0 74 37.5 135t94.5 97q37 24 80 44q-66 99 -66 150t39 84t87 33
q72 0 118 -61.5t54 -129.5zM224 28q60 0 93.5 63.5t32.5 138.5q0 84 -75 188q-33 -14 -62 -46q-76 -94 -76 -205q0 -65 26.5 -102t60.5 -37z" />
    <glyph glyph-name="epsilon" unicode="&#x3b5;" horiz-adv-x="392" 
d="M154 237v2q-31 10 -48.5 32t-17.5 50q0 58 52.5 93.5t119.5 35.5q61 0 90.5 -23t29.5 -50q1 -16 -15 -30t-28 -14q-9 0 -13 14q-17 69 -76 69q-34 0 -56 -23.5t-22 -56.5t23 -51.5t62 -18.5q11 0 25.5 0.5t18.5 0.5l3 -7l-30 -43q-13 2 -47 2q-43 0 -71.5 -23t-29.5 -62
q0 -37 25.5 -61t65.5 -24q71 0 137 63l17 -23q-75 -101 -190 -101q-67 0 -108.5 34.5t-41.5 90.5q0 47 35.5 78t89.5 46z" />
    <glyph glyph-name="zeta" unicode="&#x3b6;" horiz-adv-x="384" 
d="M245 744l19 -13q-14 -17 -15 -35q-3 -21 13.5 -39.5t49.5 -22.5q80 66 124 66q17 0 17 -15q-1 -39 -40 -62.5t-87 -27.5q-77 -65 -134.5 -176t-57.5 -211q1 -50 19.5 -77t57.5 -42q7 -2 23.5 -7.5l25.5 -8.5q73 -23 74 -87q0 -77 -104 -160l-25 21q53 56 52 101
q0 40 -56 56q-21 5 -55 17q-49 19 -74 54.5t-25 100.5q0 115 67.5 227.5t163.5 193.5q-47 4 -77 26t-28 50q1 21 21.5 40t50.5 31z" />
    <glyph glyph-name="eta" unicode="&#x3b7;" horiz-adv-x="512" 
d="M191 252h2q84 112 184 174q37 24 70 24q50 0 17 -138q-37 -157 -86 -402q-25 -123 -17 -150l-7 -15q-22 1 -46 21.5t-29 40.5q-4 20 48 253q23 93 58 249q7 29 8.5 45t-1.5 21.5t-10 5.5q-27 0 -92 -64.5t-111 -136.5q-22 -88 -39 -172q-44 -6 -80 -20l-7 8
q38 151 80 337q9 40 -1 40q-7 1 -27 -12.5t-37 -31.5l-15 24q40 43 82 70t65 27q38 0 11 -115z" />
    <glyph glyph-name="theta" unicode="&#x3b8;" horiz-adv-x="481" 
d="M351 710q137 0 137 -211q0 -82 -19.5 -170t-54.5 -165t-91.5 -126.5t-121.5 -49.5q-41 0 -70.5 19t-44.5 52t-21.5 69t-6.5 79q0 80 21 167t57.5 162.5t93 124.5t121.5 49zM167 388h223q13 89 13 140q0 147 -68 147q-54 0 -99.5 -83.5t-68.5 -203.5zM383 340h-224
q-13 -76 -15 -158q0 -67 16.5 -112.5t53.5 -45.5q56 0 101.5 92.5t67.5 223.5z" />
    <glyph glyph-name="iota" unicode="&#x3b9;" horiz-adv-x="254" 
d="M208 113l13 -23q-30 -37 -76 -69.5t-72 -32.5q-44 0 -20 104q13 57 38 171t36 165l83 22l3 -8q-47 -187 -78 -341q-7 -36 3 -36q18 0 70 48z" />
    <glyph glyph-name="kappa" unicode="&#x3ba;" horiz-adv-x="490" 
d="M67 329l-13 24q43 42 86.5 69.5t66.5 27.5q33 0 12 -84l-35 -156q91 101 131 143q48 51 77 74t55 23q19 0 31.5 -12.5t12.5 -29.5q0 -22 -22 -40q-9 -7 -18 -1q-14 11 -31 11q-27 0 -66.5 -34.5t-64.5 -65.5q20 -67 70 -176q21 -44 37 -44q7 0 25 16t37 40l19 -23
q-68 -103 -126 -103q-19 0 -34.5 15.5t-31.5 56.5q-14 35 -58 152q-33 -33 -52 -55q-4 -12 -34 -154q-52 -8 -81 -15l-5 7q22 86 80 343q5 30 -1 33q-16 0 -67 -42z" />
    <glyph glyph-name="lambda" unicode="&#x3bb;" horiz-adv-x="487" 
d="M442 116l20 -21q-70 -107 -133 -107q-46 0 -57 114q-22 214 -24 252q-37 -86 -92 -192t-86 -155q-71 -19 -73 -19l-8 19q159 198 252 418q-4 68 -13 124q-8 60 -24 82.5t-42 23.5q-21 0 -41 -10l-8 25q50 40 98 40q46 0 70 -48t35 -183q23 -253 39 -366q7 -53 22 -53
q22 0 65 56z" />
    <glyph glyph-name="uni03BC" unicode="&#x3bc;" horiz-adv-x="515" 
d="M471 116l14 -24q-38 -46 -81.5 -75t-68.5 -29q-42 0 -18 105q7 29 18 81h-2q-74 -105 -134 -155q-38 -31 -70 -31q-31 0 -42 45h-2q-22 -78 -18 -147q5 -78 33 -104l1 -7q-7 -11 -24.5 -21.5t-36.5 -10.5q-18 0 -29 18.5t-10 54.5q3 54 37 198q39 173 92 414l81 22l6 -5
q-59 -254 -70 -303q-9 -42 -3 -63t23 -21q33 0 92 69t91 129q4 16 11 49t13.5 62t12.5 57l77 26h11q-41 -159 -77 -344q-8 -41 3 -41q7 0 28.5 15.5t41.5 35.5z" />
    <glyph glyph-name="nu" unicode="&#x3bd;" horiz-adv-x="453" 
d="M244 96h3q138 166 138 242q0 36 -17 55q-5 8 -3 19q2 14 14.5 26t28.5 12q21 0 34.5 -20t13.5 -49q0 -34 -25 -82t-51.5 -84.5t-74.5 -96.5q-89 -111 -105 -130h-28q-8 211 -29 335q-8 50 -19 50q-15 0 -57 -55l-20 20q73 112 123 112q39 0 52 -99q15 -97 22 -255z" />
    <glyph glyph-name="xi" unicode="&#x3be;" horiz-adv-x="410" 
d="M259 -176l-25 18q50 63 50 102q0 21 -15.5 34t-53.5 22q-30 10 -56 16q-60 19 -89.5 52.5t-29.5 90.5q-1 119 151 204q-25 10 -42.5 35t-17.5 57q0 91 112 158q-36 4 -63 22.5t-26 42.5q1 20 20 37.5t45 26.5l18 -10q-10 -18 -11 -36t15 -32.5t43 -17.5q81 52 143 52
q12 0 16.5 -4.5t2.5 -13.5q-1 -17 -15.5 -32t-31.5 -24q-47 -16 -109 -15q-33 -19 -57.5 -52.5t-23.5 -71.5q0 -31 14 -53t40 -29q55 15 90 15q12 0 16.5 -3.5t2.5 -12.5q-5 -20 -24.5 -41.5t-32.5 -21.5q-50 0 -86 11q-42 -22 -73.5 -67t-30.5 -92q0 -74 82 -100
q8 -3 59 -17q95 -27 95 -93q1 -75 -102 -157z" />
    <glyph glyph-name="omicron" unicode="&#x3bf;" horiz-adv-x="474" 
d="M180 -12q-69 0 -102 45t-33 112q0 93 43 165.5t108 106.5q61 33 113 33q64 0 99.5 -41.5t35.5 -115.5q0 -67 -28 -133t-79 -109q-75 -63 -157 -63zM217 29q16 0 31 6q41 17 73 90.5t31 167.5q0 58 -21 88t-56 30q-18 0 -36 -8q-35 -17 -68.5 -84t-33.5 -171
q0 -55 21.5 -87t58.5 -32z" />
    <glyph glyph-name="pi" unicode="&#x3c0;" horiz-adv-x="540" 
d="M541 463l28 -10q-19 -56 -38 -80q-20 -7 -72 -4q-17 -68 -50 -235q-14 -73 6 -73q25 0 72 43l14 -25q-32 -41 -70 -66t-71 -25q-61 0 -37 116q28 128 63 267q-90 3 -139 3q-54 -271 -116 -363q-35 -23 -78 -23l-5 17q43 41 89 157.5t63 212.5q-79 1 -133 -59l-19 23
q14 20 26 33t34.5 30.5t55.5 27t74 9.5q29 0 116.5 -2.5t131.5 -2.5q22 0 32 5t23 24z" />
    <glyph glyph-name="rho" unicode="&#x3c1;" horiz-adv-x="480" 
d="M-14 -255l-5 19q12 14 28 87t55 297q18 103 45 158.5t85 97.5q61 46 126 46q61 0 97 -46.5t36 -118.5q0 -141 -142 -243q-32 -25 -66.5 -39.5t-56.5 -14.5q-34 0 -63 39q-2 -12 -5.5 -33.5t-6.5 -39.5t-6 -35q-19 -125 -35 -143q-14 -14 -41 -22.5t-45 -8.5zM211 41
q72 0 113.5 64.5t41.5 152.5q0 64 -24.5 103.5t-69.5 39.5q-46 0 -72 -46.5t-42 -133.5q-18 -98 -26 -150q37 -30 79 -30z" />
    <glyph glyph-name="uni03C2" unicode="&#x3c2;" horiz-adv-x="398" 
d="M247 -153l-20 17q41 48 40 83q0 21 -13.5 33.5t-48.5 22.5q-11 3 -56 16q-103 34 -103 153q0 69 34.5 129t91.5 99q73 50 136 50q38 0 61 -15t23 -39q0 -14 -10.5 -28t-24.5 -18q-12 -5 -23 9q-31 40 -77 40q-57 0 -94 -55.5t-37 -132.5q0 -48 16 -76t54 -41
q16 -5 51 -16q49 -14 71.5 -34t22.5 -55q1 -79 -94 -142z" />
    <glyph glyph-name="sigma" unicode="&#x3c3;" horiz-adv-x="481" 
d="M327 448q30 0 74.5 -4t60.5 -4q32 0 54 22l18 -11q-25 -74 -69 -74q-25 0 -97 9l-2 -2q34 -30 46 -63t12 -79q1 -99 -70 -176.5t-167 -77.5q-67 0 -105.5 44.5t-38.5 124.5q0 119 82 205.5t202 85.5zM286 393q-68 0 -111 -78.5t-43 -169.5q0 -55 19.5 -87.5t54.5 -32.5
t63 27t44 67.5t24.5 81.5t8.5 75q-1 60 -15 88q-15 29 -45 29z" />
    <glyph glyph-name="tau" unicode="&#x3c4;" horiz-adv-x="439" 
d="M448 463l28 -4q-23 -63 -38 -84q-21 -6 -74 -3q-11 0 -30.5 1t-28.5 1q-38 -159 -54 -246q-14 -67 9 -67q24 0 68 44l16 -26q-32 -40 -70.5 -65.5t-72.5 -25.5q-62 0 -36 113q16 76 67 276q-57 4 -95 -9t-73 -51l-20 21q67 102 182 101q23 0 78.5 -2t90.5 -3q20 0 30 5
t23 24z" />
    <glyph glyph-name="upsilon" unicode="&#x3c5;" horiz-adv-x="485" 
d="M67 324l-18 25q33 45 72.5 73t72.5 28q56 0 26 -119q-35 -132 -41 -160q-15 -64 0.5 -94t50.5 -30q65 0 111 77.5t47 198.5q0 70 -20 110l1 6q11 11 30 11q25 0 41.5 -32t15.5 -81q0 -83 -39.5 -164.5t-101.5 -133t-125 -51.5q-54 0 -85.5 43t-11.5 125q15 63 47 181
q12 46 0 46q-22 0 -73 -59z" />
    <glyph glyph-name="phi" unicode="&#x3c6;" horiz-adv-x="581" 
d="M281 460l12 -30q-152 -75 -152 -237q0 -62 25 -101t64 -51q27 145 54 250q19 76 60 117.5t88 41.5q49 0 84 -45t35 -128q0 -110 -76.5 -190t-176.5 -93q-21 -125 -37 -212q-19 -31 -84 -37l-8 9q15 54 52 236q-83 9 -128 61t-45 131q0 100 64 169.5t169 108.5zM410 408
q-18 0 -29.5 -18t-21.5 -67q-4 -21 -24.5 -126.5t-29.5 -160.5q75 5 124 78t49 167q0 60 -23 93.5t-45 33.5z" />
    <glyph glyph-name="chi" unicode="&#x3c7;" horiz-adv-x="447" 
d="M474 450l8 -13q-30 -35 -105 -137t-113 -161q11 -75 46 -263q9 -57 22 -57q24 0 71 57l21 -22q-71 -109 -132 -109q-42 0 -60 97q-18 91 -35 214q-134 -200 -208 -328h-10q-13 17 -13.5 41t20.5 61q20 29 96 137t105 150q-20 137 -35 210q-10 48 -21 48q-17 0 -61 -57
l-21 21q73 111 125 111q34 0 51 -80q6 -29 29 -174q22 33 77 119t70 109z" />
    <glyph glyph-name="psi" unicode="&#x3c8;" horiz-adv-x="598" 
d="M624 450l9 -27q-25 -19 -39 -39.5t-28 -57.5q-6 -15 -28 -73t-38 -96q-38 -94 -109 -138q-36 -21 -74 -29q-8 -36 -24 -118.5t-20 -99.5l-29 -27q-22 11 -16 69q9 43 33 173q-152 10 -143 185q1 24 6 78.5t6 69.5q4 58 -22 58q-19 0 -47 -23l-9 27q59 68 113 68
q63 0 50 -117q-4 -44 -13 -125q-15 -150 68 -170l84 454l61 24l8 -4l-98 -480q80 11 118 119q26 78 49 161q19 65 36 82q39 39 96 56z" />
    <glyph glyph-name="omega" unicode="&#x3c9;" horiz-adv-x="641" 
d="M486 427l2 9q14 14 41 14q28 0 53.5 -43.5t25.5 -113.5q-1 -74 -32 -139.5t-83 -110.5q-64 -55 -117 -55q-35 0 -57.5 27t-27.5 71q-29 -42 -67.5 -70t-71.5 -28q-45 0 -74.5 42.5t-29.5 117.5q0 100 55 181.5t146 126.5l17 -24q-59 -44 -93.5 -116t-34.5 -155
q0 -51 16.5 -78.5t41.5 -27.5q31 0 57.5 35.5t41.5 101.5q13 56 23 133l82 16l6 -5q-33 -111 -39 -190q-3 -46 11.5 -71.5t40.5 -25.5q56 0 88 66t33 157q1 107 -54 155z" />
    <glyph glyph-name="iotadieresis" unicode="&#x3ca;" horiz-adv-x="254" 
d="M208 113l13 -23q-30 -37 -76 -69.5t-72 -32.5q-44 0 -20 104q13 57 38 171t36 165l83 22l3 -8q-47 -187 -78 -341q-7 -36 3 -36q18 0 70 48zM129 633q19 0 30 -13t11 -31q0 -24 -15 -41.5t-38 -17.5q-19 0 -31 12.5t-12 31.5q0 22 15 40.5t40 18.5zM308 633q19 0 30 -13
t11 -31q0 -24 -15 -41.5t-38 -17.5q-18 0 -30 12.5t-12 31.5q0 22 15 40.5t39 18.5z" />
    <glyph glyph-name="upsilondieresis" unicode="&#x3cb;" horiz-adv-x="485" 
d="M67 324l-18 25q33 45 72.5 73t72.5 28q56 0 26 -119q-35 -132 -41 -160q-15 -64 0.5 -94t50.5 -30q65 0 111 77.5t47 198.5q0 70 -20 110l1 6q11 11 30 11q25 0 41.5 -32t15.5 -81q0 -83 -39.5 -164.5t-101.5 -133t-125 -51.5q-54 0 -85.5 43t-11.5 125q15 63 47 181
q12 46 0 46q-22 0 -73 -59zM230 633q19 0 30 -13t11 -31q0 -24 -15 -41.5t-38 -17.5q-19 0 -31 12.5t-12 31.5q0 22 15 40.5t40 18.5zM409 633q19 0 30 -13t11 -31q0 -24 -15 -41.5t-38 -17.5q-18 0 -30 12.5t-12 31.5q0 22 15 40.5t39 18.5z" />
    <glyph glyph-name="omicrontonos" unicode="&#x3cc;" horiz-adv-x="474" 
d="M180 -12q-69 0 -102 45t-33 112q0 93 43 165.5t108 106.5q61 33 113 33q64 0 99.5 -41.5t35.5 -115.5q0 -67 -28 -133t-79 -109q-75 -63 -157 -63zM217 29q16 0 31 6q41 17 73 90.5t31 167.5q0 58 -21 88t-56 30q-18 0 -36 -8q-35 -17 -68.5 -84t-33.5 -171
q0 -55 21.5 -87t58.5 -32zM389 659l-107 -171l-27 14q27 83 48 167q11 3 43 3.5t42 -1.5z" />
    <glyph glyph-name="upsilontonos" unicode="&#x3cd;" horiz-adv-x="485" 
d="M67 324l-18 25q33 45 72.5 73t72.5 28q56 0 26 -119q-35 -132 -41 -160q-15 -64 0.5 -94t50.5 -30q65 0 111 77.5t47 198.5q0 70 -20 110l1 6q11 11 30 11q25 0 41.5 -32t15.5 -81q0 -83 -39.5 -164.5t-101.5 -133t-125 -51.5q-54 0 -85.5 43t-11.5 125q15 63 47 181
q12 46 0 46q-22 0 -73 -59zM413 659l-108 -171l-27 14q23 72 49 167q11 3 42.5 3.5t41.5 -1.5z" />
    <glyph glyph-name="omegatonos" unicode="&#x3ce;" horiz-adv-x="641" 
d="M486 427l2 9q14 14 41 14q28 0 53.5 -43.5t25.5 -113.5q-1 -74 -32 -139.5t-83 -110.5q-64 -55 -117 -55q-35 0 -57.5 27t-27.5 71q-29 -42 -67.5 -70t-71.5 -28q-45 0 -74.5 42.5t-29.5 117.5q0 100 55 181.5t146 126.5l17 -24q-59 -44 -93.5 -116t-34.5 -155
q0 -51 16.5 -78.5t41.5 -27.5q31 0 57.5 35.5t41.5 101.5q13 56 23 133l82 16l6 -5q-33 -111 -39 -190q-3 -46 11.5 -71.5t40.5 -25.5q56 0 88 66t33 157q1 107 -54 155zM482 659l-108 -171l-27 14q31 98 49 167q11 3 43 3.5t42 -1.5z" />
    <glyph glyph-name="uni03D0" unicode="&#x3d0;" horiz-adv-x="478" 
d="M497 609q0 -33 -14 -61.5t-40.5 -52t-51.5 -39.5t-60 -34q120 -28 120 -168q-1 -103 -74.5 -184.5t-167.5 -81.5q-77 0 -116.5 58t-39.5 160q0 118 51.5 238.5t137.5 195.5q82 70 158 70q44 0 70.5 -26t26.5 -75zM419 595q0 72 -57 72q-35 0 -68 -29.5t-57.5 -76
t-41.5 -93t-27 -91.5q19 10 59.5 28.5t59.5 27.5q54 27 93 69.5t39 92.5zM359 244q0 67 -24 101.5t-66 34.5q-54 0 -110 -45q-18 -70 -18 -141q0 -73 21.5 -121t64.5 -48q57 0 94.5 71.5t37.5 147.5z" />
    <glyph glyph-name="uni03D1" unicode="&#x3d1;" horiz-adv-x="493" 
d="M37 227l-7 25q46 41 95 41q70 0 61 -137q-9 -114 62 -114q42 0 75 46t52 117.5t28 162.5q-60 -38 -113 -38q-84 0 -131 49t-47 123q0 88 61 148t140 60q73 0 123 -66t51 -205q0 -115 -37.5 -221t-114.5 -175q-63 -55 -126 -55q-51 0 -83 36.5t-23 123.5q7 86 -29 86
q-20 0 -37 -7zM278 669q-47 0 -69.5 -35.5t-22.5 -90.5q0 -68 39.5 -114t107.5 -46q40 0 71 19q1 20 1 34q1 110 -38 171.5t-89 61.5z" />
    <glyph glyph-name="uni03D5" unicode="&#x3d5;" horiz-adv-x="565" 
d="M419 665l-34 -152q-8 -41 0 -47q150 -62 150 -217q0 -108 -77.5 -180.5t-181.5 -77.5q-7 -27 -16 -69.5t-20.5 -95.5t-16.5 -78l-6 -3q-17 7 -25.5 33.5t0.5 88.5q5 23 13 66.5t11 57.5q-80 16 -125 72t-45 135q0 95 61 161t159 99l13 -29q-70 -33 -106 -84.5t-36 -135.5
q0 -60 27 -101.5t65 -56.5q20 107 125 585l51 37zM463 239q0 64 -31.5 109t-67.5 59q-37 -161 -78 -368q82 -2 129.5 54.5t47.5 145.5z" />
    <glyph glyph-name="uni03D6" unicode="&#x3d6;" horiz-adv-x="642" 
d="M211 492l-9 27q85 56 189 56q115 0 175.5 -69.5t60.5 -177.5q1 -88 -33 -162t-87 -121q-65 -57 -121 -57q-37 0 -62.5 28t-30.5 72q-27 -42 -68 -71t-74 -29q-45 0 -76 42.5t-31 117.5q0 100 54.5 182t145.5 126l16 -24q-58 -44 -91.5 -116t-33.5 -156q0 -49 17.5 -75.5
t42.5 -26.5q32 0 60.5 35.5t43.5 98.5q12 51 24 138l80 11l6 -4q-33 -110 -39 -191q-3 -46 13 -69.5t43 -23.5q55 -1 93 64.5t39 161.5q0 118 -56 180t-152 62q-76 0 -139 -29z" />
    <glyph glyph-name="uni03D9" unicode="&#x3d9;" horiz-adv-x="468" 
d="M116 -198l-10 6q6 22 16.5 66.5t12.5 53.5l14 63q-55 9 -80 52t-25 102q0 93 42.5 165.5t107.5 106.5q60 33 111 33q64 0 98.5 -41.5t34.5 -116.5q0 -67 -28 -133t-79 -108t-100 -54l-13 -63q-10 -50 -23 -74q-22 -38 -79 -58zM273 410q-17 0 -35 -8q-36 -17 -69 -82.5
t-33 -170.5q0 -56 20 -87.5t57 -31.5q16 0 31 6q41 17 72 89.5t30 166.5q0 59 -19.5 88.5t-53.5 29.5z" />
    <glyph glyph-name="uni03DB" unicode="&#x3db;" horiz-adv-x="405" 
d="M398 459l24 -10q-17 -61 -46 -71q-21 -11 -50 -1q-39 13 -74 13q-59 -1 -95 -52t-35 -123q0 -91 80 -121q37 -11 44 -13q52 -13 77 -36t26 -63q1 -54 -46 -98.5t-88 -44.5q-15 0 -25.5 9.5t-9.5 21.5q0 19 19 38q9 8 16 4q14 -7 33 -7t32.5 11.5t13.5 28.5q0 36 -82 56
q-56 17 -60 18q-110 37 -110 155q0 69 35 128.5t92 98.5q73 49 131 49q28 0 65 -7q19 -4 33 16z" />
    <glyph glyph-name="uni03DD" unicode="&#x3dd;" horiz-adv-x="428" 
d="M456 446l-47 -67q-58 12 -171 12h-32l-54 -261q137 4 197 10l3 -12l-43 -48q-35 7 -166 9l-22 -104q-25 -112 -59.5 -165t-98.5 -77l-5 8q43 57 81 241l91 441h163q118 0 154 23z" />
    <glyph glyph-name="uni03E1" unicode="&#x3e1;" horiz-adv-x="731" 
d="M131 643l41 15q27 9 58 9q91 0 166 -26t125.5 -69.5t85.5 -101t51 -119t16 -126.5q1 -221 -144 -390l-23 18q91 162 91 346q0 40 -6 72q-149 -82 -244 -182q-45 -47 -41 -90v-9q-9 -4 -20 -4t-21 7t-15.5 20.5t-5 31t13.5 40.5t37 47q39 39 94.5 77.5t93 60t100.5 55.5
q-15 56 -38 97.5t-40 58.5q-71 -52 -184 -111t-153 -71q-27 -8 -51.5 1t-33.5 23l2 10q240 75 391 180q-50 51 -126 81t-162 30q-21 0 -53 -5z" />
    <glyph glyph-name="uni03F0" unicode="&#x3f0;" horiz-adv-x="532" 
d="M491 113l18 -23q-31 -48 -66.5 -75t-67.5 -27t-46.5 33t-4.5 85q13 73 55 162l-3 4q-263 -246 -307 -284h-15q-24 9 -34 31.5t-3 40.5q42 21 76 48q49 60 64 146q10 55 3.5 90t-28.5 35q-19 0 -63 -42l-19 22q72 91 131 91q33 0 46.5 -30.5t4.5 -79.5q-15 -84 -70 -181
l4 -2q178 165 235 225q57 64 70 69q37 0 47 -37q5 -16 -2 -29q-8 -7 -27 -22t-32.5 -26.5t-20.5 -18.5q-26 -44 -37 -104q-10 -48 -9 -81t10 -50.5t22 -17.5q31 0 69 48z" />
    <glyph glyph-name="uni0401" unicode="&#x401;" horiz-adv-x="561" 
d="M127 649h439q-2 -14 -19 -154l-30 -2q-2 68 -14 89q-9 18 -27 25t-69 7h-72q-26 0 -33 -6.5t-12 -34.5l-41 -214h91q62 0 79 11.5t35 61.5h30l-38 -192h-30q2 56 -9.5 67.5t-74.5 11.5h-91l-33 -175q-14 -76 4 -93q17 -15 98 -15q54 0 81.5 7t47.5 27q29 27 68 95l29 -10
q-38 -100 -62 -155h-472l7 28q60 5 76 19t28 74l78 407q12 60 1.5 74t-72.5 19zM290 795q20 0 31 -13t11 -32q0 -24 -15.5 -41t-38.5 -17q-18 0 -30 12.5t-12 31.5q0 22 15 40.5t39 18.5zM481 795q19 0 30 -13t11 -32q0 -24 -15 -41t-38 -17q-19 0 -30.5 12t-12.5 32
q0 22 15 40.5t40 18.5z" />
    <glyph glyph-name="uni0402" unicode="&#x402;" horiz-adv-x="712" 
d="M651 674h21q-14 -71 -25 -179l-30 -3q-1 62 -15 92q-9 18 -28.5 24t-71.5 6h-77l-49 -256q74 28 118 28q80 0 128 -53.5t48 -141.5q0 -73 -30 -136.5t-79 -106t-99 -71t-102 -44.5l-12 29q91 42 156.5 125.5t65.5 198.5q0 72 -32.5 112.5t-89.5 40.5q-40 0 -79 -15
l-36 -196q-12 -64 1 -80t84 -20l-6 -28h-292l6 28q67 4 84.5 19.5t30.5 80.5l94 486h-51q-53 0 -77 -8t-41 -28q-21 -23 -50 -86l-29 2q25 82 46 180h20q6 -16 16.5 -20.5t33.5 -4.5h392q20 0 31 5t25 20z" />
    <glyph glyph-name="uni0403" unicode="&#x403;" horiz-adv-x="506" 
d="M133 649h425q0 -4 -4 -34t-8 -63.5t-6 -53.5l-29 -3q-5 73 -17 93q-16 26 -85 26h-70q-28 0 -35 -5.5t-12 -31.5l-88 -450q-7 -36 -8 -52.5t9 -27.5t25 -13.5t52 -5.5l-6 -28h-263l6 28q53 5 67.5 19.5t27.5 79.5l77 396q12 66 2 79.5t-67 18.5zM519 754l-3 -8l-192 -63
l-13 26q25 16 81.5 52t82.5 53q10 -3 25.5 -24.5t18.5 -35.5z" />
    <glyph glyph-name="uni0404" unicode="&#x404;" horiz-adv-x="634" 
d="M508 311l-334 8q-2 -26 -2 -42q0 -112 47 -183.5t140 -72.5q113 -1 182 102q23 33 40 33q15 0 20.5 -16t-2.5 -36q-17 -40 -77 -76q-72 -43 -172 -43q-129 0 -207 77t-78 211q1 177 118 284.5t283 107.5q75 0 180 -35q-4 -107 -7 -152l-30 -4q-5 86 -42.5 120.5
t-113.5 34.5q-108 0 -179 -71.5t-95 -198.5l344 8z" />
    <glyph glyph-name="uni0405" unicode="&#x405;" horiz-adv-x="472" 
d="M37 197l29 3q6 -43 21.5 -80.5t52 -68.5t87.5 -31q54 0 86 34.5t32 91.5q0 39 -22 71t-68 68l-29 22q-23 18 -39 33t-35 37.5t-29 50t-10 56.5q0 79 57.5 130t147.5 51q48 0 99 -17q11 -4 26 -10t17 -7q0 -1 -3 -142l-30 -3q-16 145 -120 145q-49 0 -79 -34t-30 -80
q0 -39 22.5 -68.5t67.5 -63.5l30 -22q58 -43 88 -85.5t30 -99.5q0 -86 -65 -139.5t-157 -53.5q-56 0 -105 19.5t-69 42.5q0 10 -1 60.5t-2 89.5z" />
    <glyph glyph-name="uni0406" unicode="&#x406;" horiz-adv-x="341" 
d="M386 649l-6 -28q-57 -5 -71.5 -18t-25.5 -69l-80 -415q-11 -58 0.5 -72t72.5 -19l-6 -28h-263l7 28q57 4 72 18.5t26 72.5l81 415q10 55 -1.5 68.5t-73.5 18.5l7 28h261z" />
    </font>
</defs>
</svg>
